SplineFontDB: 3.2
FontName: Multivers-Regular
FullName: Multivers Regular
FamilyName: Multivers
Weight: Regular
Copyright: 
Version: 1.000
ItalicAngle: 0
UnderlinePosition: -199
UnderlineWidth: 38
Ascent: 800
Descent: 200
InvalidEm: 0
sfntRevision: 0x00010000
LayerCount: 2
Layer: 0 0 "Back" 1
Layer: 1 0 "Fore" 0
XUID: [1021 473 -325923738 3809896]
StyleMap: 0x0040
FSType: 0
OS2Version: 4
OS2_WeightWidthSlopeOnly: 0
OS2_UseTypoMetrics: 0
CreationTime: 1659194366
ModificationTime: 1739281994
PfmFamily: 81
TTFWeight: 400
TTFWidth: 5
LineGap: 0
VLineGap: 0
Panose: 0 0 0 0 0 0 0 0 0 0
OS2TypoAscent: 970
OS2TypoAOffset: 0
OS2TypoDescent: -250
OS2TypoDOffset: 0
OS2TypoLinegap: 0
OS2WinAscent: 986
OS2WinAOffset: 0
OS2WinDescent: 350
OS2WinDOffset: 0
HheadAscent: 970
HheadAOffset: 0
HheadDescent: -250
HheadDOffset: 0
OS2SubXSize: 650
OS2SubYSize: 600
OS2SubXOff: 0
OS2SubYOff: 75
OS2SupXSize: 650
OS2SupYSize: 600
OS2SupXOff: 0
OS2SupYOff: 350
OS2StrikeYSize: 38
OS2StrikeYPos: 301
OS2CapHeight: 720
OS2XHeight: 510
OS2Vendor: 'NONE'
OS2CodePages: 00000093.00000000
OS2UnicodeRanges: a000006f.0000006a.00000000.00000000
Lookup: 1 0 0 "'aalt' Access All Alternates in Latin lookup 0" { "'aalt' Access All Alternates in Latin lookup 0 subtable"  } ['aalt' ('DFLT' <'dflt' > 'latn' <'AZE ' 'CAT ' 'CRT ' 'KAZ ' 'MOL ' 'ROM ' 'TAT ' 'TRK ' 'dflt' > ) ]
Lookup: 3 0 0 "'aalt' Access All Alternates in Latin lookup 1" { "'aalt' Access All Alternates in Latin lookup 1 subtable"  } ['aalt' ('DFLT' <'dflt' > 'latn' <'AZE ' 'CAT ' 'CRT ' 'KAZ ' 'MOL ' 'ROM ' 'TAT ' 'TRK ' 'dflt' > ) ]
Lookup: 6 0 0 "'ccmp' Glyph Composition/Decomposition in Latin lookup 2" { "'ccmp' Glyph Composition/Decomposition in Latin lookup 2 subtable"  } ['ccmp' ('DFLT' <'dflt' > 'latn' <'AZE ' 'CAT ' 'CRT ' 'KAZ ' 'MOL ' 'ROM ' 'TAT ' 'TRK ' 'dflt' > ) ]
Lookup: 1 0 0 "Single Substitution lookup 3" { "Single Substitution lookup 3 subtable"  } []

StartChar: .notdef
Encoding: 65536 -1 0
Width: 654
Flags: HW
LayerCount: 2
Fore
SplineSet
84 0 m 1
 84 720 l 1
 570 720 l 1
 570 0 l 1
 84 0 l 1
165 71 m 1
 490 71 l 1
 490 649 l 1
 165 649 l 1
 165 71 l 1
EndSplineSet
Validated: 1
EndChar

StartChar: A
Encoding: 65 65 1
Width: 693
GlyphClass: 2
Flags: HW
AnchorPoint: "Anchor-3" 659 0 basechar 0
AnchorPoint: "Anchor-2" 347 0 basechar 0
AnchorPoint: "Anchor-0" 347 720 basechar 0
LayerCount: 2
Fore
SplineSet
35 0 m 1
 297 720 l 1
 367 720 l 1
 112 0 l 1
 35 0 l 1
576 0 m 1
 321 720 l 1
 396 720 l 1
 659 0 l 1
 576 0 l 1
166 289 m 1
 524 289 l 1
 524 219 l 1
 166 219 l 1
 166 289 l 1
EndSplineSet
Validated: 5
Substitution2: "Single Substitution lookup 17 subtable" ordfeminine
Substitution2: "'aalt' Access All Alternates in Latin lookup 0 subtable" ordfeminine
EndChar

StartChar: AE
Encoding: 198 198 12
Width: 902
Flags: HW
LayerCount: 2
Fore
SplineSet
35 0 m 1
 297 720 l 1
 368 720 l 1
 112 0 l 1
 35 0 l 1
455 0 m 1
 455 720 l 1
 535 720 l 1
 535 0 l 1
 455 0 l 1
497 0 m 1
 497 71 l 1
 834 71 l 1
 834 0 l 1
 497 0 l 1
212 340 m 1
 212 410 l 1
 800 410 l 1
 800 340 l 1
 212 340 l 1
319 649 m 1
 319 720 l 1
 826 720 l 1
 826 649 l 1
 319 649 l 1
EndSplineSet
Validated: 5
EndChar

StartChar: B
Encoding: 66 66 13
Width: 611
Flags: HW
LayerCount: 2
Fore
SplineSet
137 0 m 1
 137 67 l 1
 350 67 l 2
 392.666666667 67 426.666666667 79 452 103 c 128
 477.333333333 127 490 159.666666667 490 201 c 0
 490 244.333333333 476.666666667 279.166666667 450 305.5 c 128
 423.333333333 331.833333333 387.666666667 345 343 345 c 2
 137 345 l 1
 137 410 l 1
 333 410 l 2
 377 410 411.333333333 421 436 443 c 128
 460.666666667 465 473 496 473 536 c 0
 473 573.333333333 461.333333333 602.166666667 438 622.5 c 128
 414.666666667 642.833333333 381.333333333 653 338 653 c 2
 137 653 l 1
 137 720 l 1
 344 720 l 2
 408 720 458.833333333 704.333333333 496.5 673 c 128
 534.166666667 641.666666667 553 598.666666667 553 544 c 0
 553 510 545.5 479.666666667 530.5 453 c 128
 515.5 426.333333333 494.833333333 405.666666667 468.5 391 c 128
 442.166666667 376.333333333 411.666666667 369 377 369 c 1
 381 390 l 1
 417.666666667 390 450.5 381.5 479.5 364.5 c 128
 508.5 347.5 531.333333333 324.166666667 548 294.5 c 128
 564.666666667 264.833333333 573 231 573 193 c 0
 573 154.333333333 564 120.5 546 91.5 c 128
 528 62.5 502.666666667 40 470 24 c 128
 437.333333333 8 399.333333333 0 356 0 c 2
 137 0 l 1
84 0 m 1
 84 720 l 1
 165 720 l 1
 165 0 l 1
 84 0 l 1
EndSplineSet
Validated: 5
EndChar

StartChar: C
Encoding: 67 67 14
Width: 706
GlyphClass: 2
Flags: HW
AnchorPoint: "Anchor-2" 371 0 basechar 0
AnchorPoint: "Anchor-0" 371 720 basechar 0
LayerCount: 2
Fore
SplineSet
372 -10 m 0
 325.333333333 -10 282.166666667 -1 242.5 17 c 128
 202.833333333 35 168.5 60.5 139.5 93.5 c 0
 77.1666666667 164.5 46 253.333333333 46 360 c 260
 46 466.666666667 77 555.5 139 626.5 c 0
 167.666666667 659.5 201.833333333 685 241.5 703 c 128
 281.166666667 721 324.666666667 730 372 730 c 0
 424 730 470.5 719 511.5 697 c 128
 552.5 675 586 643.833333333 612 603.5 c 128
 638 563.166666667 654 516 660 462 c 1
 573 462 l 1
 566.333333333 523.333333333 545.666666667 571.166666667 511 605.5 c 128
 476.333333333 639.833333333 430 657 372 657 c 0
 324 657 282.333333333 644.666666667 247 620 c 128
 211.666666667 595.333333333 184.666666667 560.833333333 166 516.5 c 128
 147.333333333 472.166666667 138 420 138 360 c 0
 138 300.666666667 147.333333333 248.666666667 166 204 c 128
 184.666666667 159.333333333 211.666666667 124.666666667 247 100 c 128
 282.333333333 75.3333333333 324 63 372 63 c 0
 430.666666667 63 477.5 80.5 512.5 115.5 c 128
 547.5 150.5 568.333333333 198 575 258 c 1
 661 258 l 1
 655.666666667 204 639.833333333 156.833333333 613.5 116.5 c 128
 587.166666667 76.1666666667 553.5 45 512.5 23 c 128
 471.5 1 424.666666667 -10 372 -10 c 0
EndSplineSet
Validated: 1
EndChar

StartChar: D
Encoding: 68 68 19
Width: 720
GlyphClass: 2
Flags: HW
AnchorPoint: "Anchor-2" 360 0 basechar 0
AnchorPoint: "Anchor-0" 360 720 basechar 0
LayerCount: 2
Fore
SplineSet
133 0 m 1
 133 71 l 1
 314 71 l 2
 371.333333333 71 420.5 83 461.5 107 c 128
 502.5 131 534 165 556 209 c 128
 578 253 589 304.666666667 589 364 c 0
 589 422.666666667 578 473.333333333 556 516 c 128
 534 558.666666667 502.666666667 591.5 462 614.5 c 128
 421.333333333 637.5 372 649 314 649 c 2
 132 649 l 1
 132 720 l 1
 314 720 l 2
 386 720 448.833333333 705.333333333 502.5 676 c 128
 556.166666667 646.666666667 597.666666667 605.166666667 627 551.5 c 128
 656.333333333 497.833333333 671 434.666666667 671 362 c 256
 671 289.333333333 656.166666667 225.833333333 626.5 171.5 c 128
 596.833333333 117.166666667 555.333333333 75 502 45 c 128
 448.666666667 15 386.333333333 0 315 0 c 2
 133 0 l 1
84 0 m 1
 84 720 l 1
 165 720 l 1
 165 0 l 1
 84 0 l 1
EndSplineSet
Validated: 5
EndChar

StartChar: Eth
Encoding: 208 208 20
Width: 720
GlyphClass: 2
Flags: HW
AnchorPoint: "Anchor-2" 360 0 basechar 0
AnchorPoint: "Anchor-0" 360 720 basechar 0
LayerCount: 2
Fore
SplineSet
0 327 m 1
 0 393 l 1
 363 393 l 1
 363 327 l 1
 0 327 l 1
133 0 m 1
 133 71 l 1
 314 71 l 2
 371.333333333 71 420.5 83 461.5 107 c 128
 502.5 131 534 165 556 209 c 128
 578 253 589 304.666666667 589 364 c 0
 589 422.666666667 578 473.333333333 556 516 c 128
 534 558.666666667 502.666666667 591.5 462 614.5 c 128
 421.333333333 637.5 372 649 314 649 c 2
 132 649 l 1
 132 720 l 1
 314 720 l 2
 386 720 448.833333333 705.333333333 502.5 676 c 128
 556.166666667 646.666666667 597.666666667 605.166666667 627 551.5 c 128
 656.333333333 497.833333333 671 434.666666667 671 362 c 256
 671 289.333333333 656.166666667 225.833333333 626.5 171.5 c 128
 596.833333333 117.166666667 555.333333333 75 502 45 c 128
 448.666666667 15 386.333333333 0 315 0 c 2
 133 0 l 1
84 0 m 1
 84 720 l 1
 165 720 l 1
 165 0 l 1
 84 0 l 1
EndSplineSet
Validated: 5
EndChar

StartChar: E
Encoding: 69 69 23
Width: 610
GlyphClass: 2
Flags: HW
AnchorPoint: "Anchor-3" 511 0 basechar 0
AnchorPoint: "Anchor-2" 305 0 basechar 0
AnchorPoint: "Anchor-0" 315 720 basechar 0
LayerCount: 2
Fore
SplineSet
84 0 m 1
 84 720 l 1
 165 720 l 1
 165 0 l 1
 84 0 l 1
126 0 m 1
 126 71 l 1
 543 71 l 1
 543 0 l 1
 126 0 l 1
126 340 m 1
 126 410 l 1
 508 410 l 1
 508 340 l 1
 126 340 l 1
126 649 m 1
 126 720 l 1
 535 720 l 1
 535 649 l 1
 126 649 l 1
EndSplineSet
Validated: 5
EndChar

StartChar: F
Encoding: 70 70 32
Width: 574
Flags: HW
LayerCount: 2
Fore
SplineSet
84 0 m 1
 84 720 l 1
 165 720 l 1
 165 0 l 1
 84 0 l 1
126 310 m 1
 126 380 l 1
 492 380 l 1
 492 310 l 1
 126 310 l 1
126 649 m 1
 126 720 l 1
 519 720 l 1
 519 649 l 1
 126 649 l 1
EndSplineSet
Validated: 5
EndChar

StartChar: G
Encoding: 71 71 33
Width: 730
GlyphClass: 2
Flags: HW
AnchorPoint: "Anchor-2" 375 0 basechar 0
AnchorPoint: "Anchor-0" 375 720 basechar 0
LayerCount: 2
Fore
SplineSet
392 -10 m 0
 321.333333333 -10 260.333333333 4.83333333333 209 34.5 c 0
 100.333333333 98.1666666667 46 204.666666667 46 354 c 0
 46 505.333333333 98.8333333333 614.833333333 204.5 682.5 c 0
 253.5 714.166666667 310.333333333 730 375 730 c 0
 425.666666667 730 471.5 720 512.5 700 c 128
 553.5 680 587 652.833333333 613 618.5 c 128
 639 584.166666667 654.666666667 542 660 492 c 1
 576 492 l 1
 570.666666667 548 550.333333333 590 515 618 c 128
 479.666666667 646 434 660 378 660 c 0
 328 660 285.666666667 647.166666667 251 621.5 c 128
 216.333333333 595.833333333 189.333333333 560.5 170 515.5 c 128
 150.666666667 470.5 141 417.333333333 141 356 c 0
 141 290 150.5 237.166666667 169.5 197.5 c 0
 210.5 109.166666667 299.833333333 65.1666666667 437.5 65.5 c 4
 491.833333333 65.8333333333 539 73 579 87 c 1
 581 300 l 1
 405 300 l 1
 405 370 l 1
 661 370 l 1
 659 30 l 1
 583.666666667 3.33333333333 494.666666667 -10 392 -10 c 0
EndSplineSet
Validated: 33
Substitution2: "'ss07' Style Set 7 in Latin lookup 28 subtable" G.ss07
Substitution2: "'aalt' Access All Alternates in Latin lookup 0 subtable" G.ss07
EndChar

StartChar: H
Encoding: 72 72 37
Width: 707
GlyphClass: 2
Flags: HW
AnchorPoint: "Anchor-2" 353 0 basechar 0
AnchorPoint: "Anchor-0" 353 720 basechar 0
LayerCount: 2
Fore
SplineSet
84 0 m 1
 84 720 l 1
 165 720 l 1
 165 0 l 1
 84 0 l 1
542 0 m 1
 542 720 l 1
 623 720 l 1
 623 0 l 1
 542 0 l 1
126 410 m 1
 577 410 l 1
 577 340 l 1
 126 340 l 1
 126 410 l 1
EndSplineSet
Validated: 5
EndChar

StartChar: Hbar
Encoding: 294 294 38
Width: 707
GlyphClass: 2
Flags: HW
AnchorPoint: "Anchor-2" 353 0 basechar 0
AnchorPoint: "Anchor-0" 353 720 basechar 0
LayerCount: 2
Fore
SplineSet
0 542 m 1
 0 608 l 1
 707 608 l 1
 707 542 l 1
 0 542 l 1
84 0 m 1
 84 720 l 1
 165 720 l 1
 165 0 l 1
 84 0 l 1
542 0 m 1
 542 720 l 1
 623 720 l 1
 623 0 l 1
 542 0 l 1
126 410 m 1
 577 410 l 1
 577 340 l 1
 126 340 l 1
 126 410 l 1
EndSplineSet
Validated: 5
EndChar

StartChar: I
Encoding: 73 73 39
Width: 249
GlyphClass: 2
Flags: HW
AnchorPoint: "Anchor-3" 147 0 basechar 0
AnchorPoint: "Anchor-2" 124 0 basechar 0
AnchorPoint: "Anchor-0" 124 720 basechar 0
LayerCount: 2
Fore
SplineSet
84 0 m 1
 84 720 l 1
 165 720 l 1
 165 0 l 1
 84 0 l 1
EndSplineSet
Validated: 1
EndChar

StartChar: J
Encoding: 74 74 48
Width: 437
Flags: HW
LayerCount: 2
Fore
SplineSet
136 -10 m 0
 103.333333333 -9.33333333333 64.3333333333 -5 19 3 c 5
 19 75 l 5
 62.3333333333 65.6666666667 104.5 61 145.5 61 c 128
 186.5 61 218.833333333 71 242.5 91 c 128
 266.166666667 111 278 142 278 184 c 2
 278 720 l 1
 359 720 l 1
 359 181 l 2
 359 116.333333333 339.833333333 68.3333333333 301.5 37 c 0
 261.833333333 5 206.666666667 -10.6666666667 136 -10 c 0
EndSplineSet
Validated: 33
Substitution2: "'ss08' Style Set 8 in Latin lookup 29 subtable" J.ss08
Substitution2: "'aalt' Access All Alternates in Latin lookup 0 subtable" J.ss08
EndChar

StartChar: K
Encoding: 75 75 49
Width: 664
GlyphClass: 2
Flags: HW
AnchorPoint: "Anchor-2" 343 0 basechar 0
AnchorPoint: "Anchor-0" 332 720 basechar 0
LayerCount: 2
Fore
SplineSet
84 0 m 1
 84 720 l 1
 165 720 l 1
 165 0 l 1
 84 0 l 1
165 374 m 5
 511 720 l 1
 621 720 l 1
 270 374 l 5
 165 374 l 5
526 0 m 1
 165 374 l 5
 270 374 l 5
 641 0 l 1
 526 0 l 1
EndSplineSet
Validated: 5
Substitution2: "'ss04' Style Set 4 in Latin lookup 25 subtable" K.ss04
Substitution2: "'aalt' Access All Alternates in Latin lookup 0 subtable" K.ss04
EndChar

StartChar: L
Encoding: 76 76 51
Width: 561
GlyphClass: 2
Flags: HW
AnchorPoint: "Anchor-2" 316 0 basechar 0
AnchorPoint: "Anchor-1" 375 720 basechar 0
AnchorPoint: "Anchor-0" 123 720 basechar 0
LayerCount: 2
Fore
SplineSet
84 0 m 1
 84 720 l 1
 165 720 l 1
 165 0 l 1
 84 0 l 1
126 0 m 1
 126 71 l 1
 513 71 l 1
 513 0 l 1
 126 0 l 1
EndSplineSet
Validated: 5
EndChar

StartChar: Lslash
Encoding: 321 321 55
Width: 561
GlyphClass: 2
Flags: HW
AnchorPoint: "Anchor-2" 316 0 basechar 0
AnchorPoint: "Anchor-1" 375 720 basechar 0
AnchorPoint: "Anchor-0" 123 720 basechar 0
LayerCount: 2
Fore
SplineSet
129 345 m 1
 0 292 l 1
 0 356 l 1
 127 408 l 1
 129 345 l 1
127 412 m 1
 307 486 l 1
 307 423 l 1
 129 349 l 1
 127 412 l 1
84 0 m 1
 84 720 l 1
 165 720 l 1
 165 0 l 1
 84 0 l 1
126 0 m 1
 126 71 l 1
 513 71 l 1
 513 0 l 1
 126 0 l 1
EndSplineSet
Validated: 5
EndChar

StartChar: M
Encoding: 77 77 56
Width: 877
Flags: HW
LayerCount: 2
Fore
SplineSet
84 0 m 1
 84 720 l 1
 207 720 l 1
 457 28 l 1
 420 28 l 1
 668 720 l 1
 793 720 l 1
 793 0 l 1
 709 0 l 5
 709 670 l 5
 723 670 l 1
 483 0 l 1
 387 0 l 1
 148 665 l 1
 162 665 l 1
 162 0 l 1
 84 0 l 1
EndSplineSet
Validated: 5
Substitution2: "'ss06' Style Set 6 in Latin lookup 27 subtable" M.ss06
Substitution2: "'aalt' Access All Alternates in Latin lookup 0 subtable" M.ss06
EndChar

StartChar: N
Encoding: 78 78 57
Width: 707
GlyphClass: 2
Flags: HW
AnchorPoint: "Anchor-2" 354 0 basechar 0
AnchorPoint: "Anchor-0" 354 720 basechar 0
LayerCount: 2
Fore
SplineSet
84 0 m 1
 84 720 l 1
 169 720 l 1
 558 114 l 1
 547 112 l 1
 547 720 l 5
 623 720 l 1
 623 0 l 1
 538 0 l 1
 149 606 l 1
 161 608 l 1
 161 0 l 1
 84 0 l 1
EndSplineSet
Validated: 5
EndChar

StartChar: Eng
Encoding: 330 330 62
Width: 707
Flags: HW
LayerCount: 2
Fore
SplineSet
84 0 m 1
 84 720 l 1
 169 720 l 1
 568 114 l 1
 547 112 l 1
 547 720 l 1
 623 720 l 1
 623 0 l 1
 548 0 l 1
 149 606 l 1
 161 608 l 1
 161 0 l 1
 84 0 l 1
474 -215 m 0
 456.666666667 -215 442.333333333 -213.833333333 431 -211.5 c 128
 419.666666667 -209.166666667 411 -207 405 -205 c 1
 405 -135 l 1
 411.666666667 -137 420.333333333 -139 431 -141 c 128
 441.666666667 -143 454 -144 468 -144 c 0
 498 -144 518.333333333 -138.5 529 -127.5 c 128
 539.666666667 -116.5 545 -99.6666666667 545 -77 c 2
 545 25 l 1
 623 25 l 1
 623 -80 l 2
 623 -120 611.333333333 -152.5 588 -177.5 c 128
 564.666666667 -202.5 526.666666667 -215 474 -215 c 0
EndSplineSet
Validated: 5
EndChar

StartChar: O
Encoding: 79 79 63
Width: 750
GlyphClass: 2
Flags: HW
AnchorPoint: "Anchor-3" 510 20 basechar 0
AnchorPoint: "Anchor-2" 375 0 basechar 0
AnchorPoint: "Anchor-1" 730 720 basechar 0
AnchorPoint: "Anchor-0" 375 720 basechar 0
LayerCount: 2
Fore
SplineSet
375 -10 m 0
 327 -10 283.166666667 -0.833333333333 243.5 17.5 c 128
 203.833333333 35.8333333333 169.5 61.6666666667 140.5 95 c 128
 111.5 128.333333333 89.6666666667 167.666666667 75 213 c 128
 60.3333333333 258.333333333 53 308.333333333 53 363 c 0
 53 435 66.1666666667 498.666666667 92.5 554 c 128
 118.833333333 609.333333333 156.5 652.5 205.5 683.5 c 128
 254.5 714.5 310.666666667 730 374 730 c 0
 438.666666667 730 495.5 714.5 544.5 683.5 c 128
 593.5 652.5 631.333333333 609.333333333 658 554 c 128
 684.666666667 498.666666667 698 434.666666667 698 362 c 0
 698 307.333333333 690.5 257.333333333 675.5 212 c 128
 660.5 166.666666667 638.5 127.5 609.5 94.5 c 128
 580.5 61.5 546 35.8333333333 506 17.5 c 128
 466 -0.833333333333 422.333333333 -10 375 -10 c 0
374 63 m 256
 422.666666667 63 465.333333333 75.6666666667 502 101 c 128
 538.666666667 126.333333333 566.333333333 161.833333333 585 207.5 c 128
 603.666666667 253.166666667 613 305.333333333 613 364 c 256
 613 422.666666667 603.833333333 474 585.5 518 c 128
 567.166666667 562 539.666666667 596.166666667 503 620.5 c 128
 466.333333333 644.833333333 423.333333333 657 374 657 c 256
 324.666666667 657 281.833333333 644.833333333 245.5 620.5 c 128
 209.166666667 596.166666667 182 562 164 518 c 128
 146 474 137 422.666666667 137 364 c 0
 137 304.666666667 146.166666667 252.333333333 164.5 207 c 128
 182.833333333 161.666666667 210.166666667 126.333333333 246.5 101 c 128
 282.833333333 75.6666666667 325.333333333 63 374 63 c 256
EndSplineSet
Validated: 1
Substitution2: "Single Substitution lookup 17 subtable" ordmasculine
Substitution2: "'aalt' Access All Alternates in Latin lookup 0 subtable" ordmasculine
EndChar

StartChar: Oslash
Encoding: 216 216 70
Width: 750
GlyphClass: 2
Flags: HW
AnchorPoint: "Anchor-3" 510 20 basechar 0
AnchorPoint: "Anchor-2" 375 0 basechar 0
AnchorPoint: "Anchor-1" 730 720 basechar 0
AnchorPoint: "Anchor-0" 375 720 basechar 0
LayerCount: 2
Fore
SplineSet
106 -10 m 1
 57 29 l 1
 644 730 l 1
 693 691 l 1
 106 -10 l 1
375 -10 m 0
 327 -10 283.166666667 -0.833333333333 243.5 17.5 c 128
 203.833333333 35.8333333333 169.5 61.6666666667 140.5 95 c 128
 111.5 128.333333333 89 167.666666667 73 213 c 128
 57 258.333333333 49 308.333333333 49 363 c 0
 49 435 62.8333333333 498.666666667 90.5 554 c 128
 118.166666667 609.333333333 156.5 652.5 205.5 683.5 c 128
 254.5 714.5 310.666666667 730 374 730 c 0
 438.666666667 730 495.5 714.5 544.5 683.5 c 128
 593.5 652.5 632 609.333333333 660 554 c 128
 688 498.666666667 702 434.666666667 702 362 c 0
 702 307.333333333 693.833333333 257.333333333 677.5 212 c 128
 661.166666667 166.666666667 638.5 127.5 609.5 94.5 c 128
 580.5 61.5 546 35.8333333333 506 17.5 c 128
 466 -0.833333333333 422.333333333 -10 375 -10 c 0
374 63 m 256
 422.666666667 63 465.333333333 75.6666666667 502 101 c 128
 538.666666667 126.333333333 567.333333333 161.833333333 588 207.5 c 128
 608.666666667 253.166666667 619 305.333333333 619 364 c 256
 619 422.666666667 608.833333333 474 588.5 518 c 128
 568.166666667 562 539.666666667 596.166666667 503 620.5 c 128
 466.333333333 644.833333333 423.333333333 657 374 657 c 256
 324.666666667 657 281.833333333 644.833333333 245.5 620.5 c 128
 209.166666667 596.166666667 181 562 161 518 c 128
 141 474 131 422.666666667 131 364 c 0
 131 304.666666667 141.166666667 252.333333333 161.5 207 c 128
 181.833333333 161.666666667 210.166666667 126.333333333 246.5 101 c 128
 282.833333333 75.6666666667 325.333333333 63 374 63 c 256
EndSplineSet
Validated: 5
EndChar

StartChar: OE
Encoding: 338 338 72
Width: 1014
Flags: HW
LayerCount: 2
Fore
SplineSet
403 -10 m 0
 330.333333333 -10 267.5 5.66666666667 214.5 37 c 128
 161.5 68.3333333333 120.666666667 111.833333333 92 167.5 c 128
 63.3333333333 223.166666667 49 287.666666667 49 361 c 0
 49 433.666666667 63.3333333333 497.666666667 92 553 c 128
 120.666666667 608.333333333 161.5 651.666666667 214.5 683 c 128
 267.5 714.333333333 330.333333333 730 403 730 c 0
 431.666666667 730 457.166666667 728.666666667 479.5 726 c 128
 501.833333333 723.333333333 522 719 540 713 c 1
 540 633 l 1
 526 641 506.666666667 647 482 651 c 128
 457.333333333 655 431 657 403 657 c 0
 344.333333333 657 294.666666667 644.833333333 254 620.5 c 128
 213.333333333 596.166666667 182.666666667 561.833333333 162 517.5 c 128
 141.333333333 473.166666667 131 421 131 361 c 256
 131 301 141.333333333 248.5 162 203.5 c 128
 182.666666667 158.5 213.333333333 123.833333333 254 99.5 c 128
 294.666666667 75.1666666667 344.333333333 63 403 63 c 0
 431 63 457.333333333 65 482 69 c 128
 506.666666667 73 526 79 540 87 c 1
 540 7 l 1
 522 1 501.833333333 -3.33333333333 479.5 -6 c 128
 457.166666667 -8.66666666667 431.666666667 -10 403 -10 c 0
507 0 m 1
 507 720 l 1
 939 720 l 1
 939 649 l 1
 587 649 l 1
 587 410 l 1
 912 410 l 1
 912 340 l 1
 587 340 l 1
 587 71 l 1
 947 71 l 1
 947 0 l 1
 507 0 l 1
EndSplineSet
Validated: 5
EndChar

StartChar: P
Encoding: 80 80 73
Width: 628
Flags: HW
LayerCount: 2
Fore
SplineSet
84 0 m 1
 84 720 l 1
 351 720 l 2
 401.666666667 720 444.5 711.666666667 479.5 695 c 128
 514.5 678.333333333 541.333333333 654.333333333 560 623 c 128
 578.666666667 591.666666667 588 554 588 510 c 256
 588 466 578.666666667 428.166666667 560 396.5 c 128
 541.333333333 364.833333333 514.5 340.333333333 479.5 323 c 128
 444.5 305.666666667 401.666666667 297 351 297 c 2
 143 297 l 1
 143 368 l 1
 348 368 l 2
 400 368 439.666666667 380.333333333 467 405 c 128
 494.333333333 429.666666667 508 464.666666667 508 510 c 256
 508 555.333333333 494.5 589.833333333 467.5 613.5 c 128
 440.5 637.166666667 400.666666667 649 348 649 c 2
 165 649 l 1
 165 0 l 1
 84 0 l 1
EndSplineSet
Validated: 5
EndChar

StartChar: Thorn
Encoding: 222 222 74
Width: 628
Flags: HW
LayerCount: 2
Fore
SplineSet
143 161 m 1
 143 232 l 1
 347 232 l 2
 399.666666667 232 439.666666667 244 467 268 c 128
 494.333333333 292 508 326 508 370 c 256
 508 414 494.333333333 448 467 472 c 128
 439.666666667 496 399.666666667 508 347 508 c 2
 143 508 l 1
 143 579 l 1
 350 579 l 2
 400 579 442.666666667 570.5 478 553.5 c 128
 513.333333333 536.5 540.5 512.5 559.5 481.5 c 128
 578.5 450.5 588 413.333333333 588 370 c 0
 588 327.333333333 578.5 290.333333333 559.5 259 c 128
 540.5 227.666666667 513.333333333 203.5 478 186.5 c 128
 442.666666667 169.5 400 161 350 161 c 2
 143 161 l 1
84 0 m 1
 84 720 l 1
 165 720 l 1
 165 0 l 1
 84 0 l 1
EndSplineSet
Validated: 5
EndChar

StartChar: Q
Encoding: 81 81 75
Width: 751
Flags: HW
LayerCount: 2
Fore
SplineSet
374 59 m 0
 428 59 473.166666667 72.1666666667 509.5 98.5 c 128
 545.833333333 124.833333333 572.166666667 161 588.5 207 c 128
 604.833333333 253 613 305.333333333 613 364 c 128
 613 422.666666667 603.833333333 474 585.5 518 c 128
 567.166666667 562 539.666666667 596.166666667 503 620.5 c 128
 466.333333333 644.833333333 423.333333333 657 374 657 c 128
 324.666666667 657 281.833333333 644.833333333 245.5 620.5 c 128
 209.166666667 596.166666667 182 562 164 518 c 128
 146 474 137 422.666666667 137 364 c 0
 137 304.666666667 146.166666667 252 164.5 206 c 128
 182.833333333 160 210.166666667 124 246.5 98 c 128
 282.833333333 72 325.333333333 59 374 59 c 0
478 30 m 1
 506.666666667 57.3333333333 548.330729167 72.6640625 602.9921875 75.9921875 c 0
 648.997395833 79.3307291667 695 83 741 87 c 5
 741 -1 l 5
 688.333333333 5 626.666666667 6.33333333333 556 3 c 1
 556 3 556 3 420 -7 c 129
 329.333333333 -13.6666666667 258.333333333 -1.16666666667 207 30.5 c 128
 155.666666667 62.1666666667 117.166666667 107.333333333 91.5 166 c 128
 65.8333333333 224.666666667 53 290.333333333 53 363 c 0
 53 435 66.1666666667 498.666666667 92.5 554 c 128
 118.833333333 609.333333333 156.5 652.5 205.5 683.5 c 128
 254.5 714.5 310.666666667 730 374 730 c 0
 438.666666667 730 495.5 714.5 544.5 683.5 c 128
 593.5 652.5 631.333333333 609.333333333 658 554 c 128
 684.666666667 498.666666667 698 434.666666667 698 362 c 0
 698 300 690.833333333 250.166666667 676.5 212.5 c 0
 664.166666667 179.5 644.961380073 148 618.88414022 118 c 0
 613.62804674 112 607.833333333 106.5 601.5 101.5 c 0
 565.166666667 67.8333333333 524 44 478 30 c 1
EndSplineSet
Substitution2: "'ss09' Style Set 9 in Latin lookup 30 subtable" Q.ss09
Substitution2: "'aalt' Access All Alternates in Latin lookup 0 subtable" Q.ss09
EndChar

StartChar: R
Encoding: 65537 -1 76
Width: 628
GlyphClass: 2
Flags: HW
AnchorPoint: "Anchor-2" 314 0 basechar 0
AnchorPoint: "Anchor-0" 314 720 basechar 0
LayerCount: 2
Fore
SplineSet
84 0 m 1
 84 720 l 1
 334 720 l 2
 384 720 426.5 711.666666667 461.5 695 c 128
 496.5 678.333333333 523.166666667 655.166666667 541.5 625.5 c 128
 559.833333333 595.833333333 569 560.666666667 569 520 c 256
 569 479.333333333 559.833333333 443.833333333 541.5 413.5 c 128
 523.166666667 383.166666667 496.5 359.5 461.5 342.5 c 128
 426.5 325.5 384 317 334 317 c 2
 143 317 l 1
 143 388 l 1
 331 388 l 2
 382.333333333 388 421.5 399.833333333 448.5 423.5 c 128
 475.5 447.166666667 489 479.333333333 489 520 c 0
 489 560 475.666666667 591.5 449 614.5 c 128
 422.333333333 637.5 383 649 331 649 c 2
 165 649 l 1
 165 0 l 1
 84 0 l 1
487 0 m 1
 122 359 l 1
 230 359 l 1
 606 0 l 1
 487 0 l 1
EndSplineSet
Validated: 5
Substitution2: "'calt' Contextual Alternates in Latin lookup 26 subtable" R.ss05
Substitution2: "'aalt' Access All Alternates in Latin lookup 0 subtable" R.ss05
EndChar

StartChar: S
Encoding: 83 83 80
Width: 584
GlyphClass: 2
Flags: HW
AnchorPoint: "Anchor-2" 301 0 basechar 0
AnchorPoint: "Anchor-0" 301 720 basechar 0
LayerCount: 2
Fore
SplineSet
316 -9 m 0
 136.666666667 -9 45 70.6666666667 41 230 c 1
 127 230 l 1
 129 118 192 62 316 62 c 0
 362 62 398.5 72.6666666667 425.5 94 c 0
 451.833333333 114.666666667 465 142.333333333 465 177 c 128
 465 211.666666667 457.666666667 237.5 443 254.5 c 0
 419.043256233 280.785871633 391.043256233 298.9525383 359 309 c 2
 241 346 l 2
 187.666666667 362.666666667 143.666666667 390.333333333 109 429 c 0
 83.6666666667 457.666666667 71 496 71 544 c 0
 71 582 80.3333333333 614.833333333 99 642.5 c 128
 117.666666667 670.166666667 144 691.833333333 178 707.5 c 128
 212 723.166666667 251.333333333 731 296 731 c 0
 452.666666667 731 532 658.666666667 534 514 c 1
 452 514 l 1
 451.333333333 611.333333333 398.666666667 660 294 660 c 0
 248.666666667 660 213.333333333 650.5 188 631.5 c 128
 162.666666667 612.5 150 585.666666667 150 551 c 0
 150 519 157.5 495 172.5 479 c 0
 195.977868262 455.191457537 225.144534929 437.52479087 260 426 c 2
 384 385 l 2
 436.666666667 367.666666667 477.833333333 339.666666667 507.5 301 c 0
 531.166666667 270.333333333 543 229.333333333 543 178 c 0
 543 122 522.666666667 77 482 43 c 0
 440.666666667 8.33333333333 385.333333333 -9 316 -9 c 0
EndSplineSet
Validated: 1
EndChar

StartChar: uni1E9E
Encoding: 7838 7838 85
Width: 684
Flags: HW
LayerCount: 2
Fore
SplineSet
397 -9 m 0
 371.666666667 -9 347.666666667 -7.5 325 -4.5 c 128
 302.333333333 -1.5 283.333333333 3.33333333333 268 10 c 1
 268 85 l 1
 283.333333333 77.6666666667 302.333333333 72 325 68 c 128
 347.666666667 64 372 62 398 62 c 0
 454 62 495.333333333 72.6666666667 522 94 c 128
 548.666666667 115.333333333 562 147.333333333 562 190 c 0
 562 231.333333333 547 265.666666667 517 293 c 128
 487 320.333333333 437 344.666666667 367 366 c 1
 342 375 l 1
 557 645 l 1
 556 586 l 1
 534 611.333333333 507.833333333 630 477.5 642 c 128
 447.166666667 654 412.333333333 660 373 660 c 0
 304.333333333 660 252.5 642 217.5 606 c 128
 182.5 570 165 516 165 444 c 2
 165 0 l 1
 84 0 l 1
 84 444 l 2
 84 538 109 609.333333333 159 658 c 128
 209 706.666666667 281.666666667 731 377 731 c 0
 430.333333333 731 477.166666667 722.833333333 517.5 706.5 c 128
 557.833333333 690.166666667 597.666666667 663 637 625 c 1
 436 371 l 1
 409 429 l 1
 487 405 545.5 372 584.5 330 c 128
 623.5 288 643 238.666666667 643 182 c 0
 643 142 633.5 107.666666667 614.5 79 c 128
 595.5 50.3333333333 567.666666667 28.5 531 13.5 c 128
 494.333333333 -1.5 449.666666667 -9 397 -9 c 0
EndSplineSet
Validated: 5
EndChar

StartChar: T
Encoding: 84 84 86
Width: 619
GlyphClass: 2
Flags: HW
AnchorPoint: "Anchor-2" 309 0 basechar 0
AnchorPoint: "Anchor-0" 309 720 basechar 0
LayerCount: 2
Fore
SplineSet
269 0 m 1
 269 649 l 1
 34 649 l 1
 34 720 l 1
 585 720 l 1
 585 649 l 1
 350 649 l 1
 350 596 l 4
 350 0 l 1
 269 0 l 1
EndSplineSet
Validated: 1
EndChar

StartChar: U
Encoding: 85 85 89
Width: 683
GlyphClass: 2
Flags: HW
AnchorPoint: "Anchor-3" 474 20 basechar 0
AnchorPoint: "Anchor-2" 341 0 basechar 0
AnchorPoint: "Anchor-1" 663 720 basechar 0
AnchorPoint: "Anchor-0" 341 720 basechar 0
LayerCount: 2
Fore
SplineSet
340 -10 m 0
 257.333333333 -10 193 15.5 147 66.5 c 128
 101 117.5 78 188.333333333 78 279 c 2
 78 720 l 1
 159 720 l 1
 159 275 l 2
 159 206.333333333 174.666666667 153.833333333 206 117.5 c 128
 237.333333333 81.1666666667 282 63 340 63 c 0
 400 63 445.666666667 81 477 117 c 128
 508.333333333 153 524 205.666666667 524 275 c 2
 524 720 l 1
 605 720 l 1
 605 278 l 2
 605 188 581.833333333 117.5 535.5 66.5 c 128
 489.166666667 15.5 424 -10 340 -10 c 0
EndSplineSet
Validated: 1
EndChar

StartChar: V
Encoding: 86 86 99
Width: 693
Flags: HW
LayerCount: 2
Fore
SplineSet
297 0 m 1
 35 720 l 1
 120 720 l 1
 363 38 l 1
 336 38 l 1
 578 720 l 1
 659 720 l 1
 396 0 l 1
 297 0 l 1
EndSplineSet
Validated: 5
EndChar

StartChar: W
Encoding: 87 87 100
Width: 1031
GlyphClass: 2
Flags: HW
AnchorPoint: "Anchor-2" 516 0 basechar 0
AnchorPoint: "Anchor-0" 516 720 basechar 0
LayerCount: 2
Fore
SplineSet
247 0 m 1
 48 720 l 1
 134 720 l 1
 312 58 l 1
 294 58 l 1
 468 720 l 1
 567 720 l 1
 743 58 l 1
 724 58 l 5
 901 720 l 5
 983 720 l 1
 784 0 l 1
 685 0 l 1
 510 642 l 1
 522 642 l 1
 346 0 l 1
 247 0 l 1
EndSplineSet
Validated: 5
EndChar

StartChar: X
Encoding: 88 88 105
Width: 658
Flags: HW
LayerCount: 2
Fore
SplineSet
527 0 m 1
 304 338 l 1
 52 720 l 1
 145 720 l 1
 354 403 l 1
 620 0 l 1
 527 0 l 1
315 401 m 1
 532 720 l 1
 619 720 l 1
 357 334 l 1
 315 401 l 1
346 330 m 1
 122 0 l 1
 36 0 l 1
 303 398 l 1
 346 330 l 1
EndSplineSet
Validated: 5
EndChar

StartChar: Y
Encoding: 89 89 106
Width: 648
GlyphClass: 2
Flags: HW
AnchorPoint: "Anchor-2" 324 0 basechar 0
AnchorPoint: "Anchor-0" 324 720 basechar 0
LayerCount: 2
Fore
SplineSet
284 0 m 1
 284 327 l 1
 23 720 l 1
 120 720 l 1
 346 375 l 1
 310 375 l 1
 536 720 l 1
 626 720 l 1
 364 327 l 1
 364 0 l 1
 284 0 l 1
EndSplineSet
Validated: 5
EndChar

StartChar: Z
Encoding: 90 90 111
Width: 602
GlyphClass: 2
Flags: HW
AnchorPoint: "Anchor-2" 301 0 basechar 0
AnchorPoint: "Anchor-0" 301 720 basechar 0
LayerCount: 2
Fore
SplineSet
60 0 m 1
 60 61 l 1
 463 689 l 1
 492 649 l 1
 70 649 l 1
 70 720 l 1
 538 720 l 1
 538 659 l 1
 135 31 l 1
 106 71 l 1
 547 71 l 1
 547 0 l 1
 60 0 l 1
EndSplineSet
Validated: 5
EndChar

StartChar: K.ss04
Encoding: 65559 -1 133
Width: 664
GlyphClass: 2
Flags: HW
AnchorPoint: "Anchor-2" 343 0 basechar 0
AnchorPoint: "Anchor-0" 332 720 basechar 0
LayerCount: 2
Fore
SplineSet
84 0 m 1
 84 720 l 1
 165 720 l 1
 165 0 l 1
 84 0 l 1
103 256 m 1
 516 720 l 1
 621 720 l 1
 326 396 l 1
 309 387 l 1
 132 193 l 1
 103 256 l 1
539 0 m 1
 249 413 l 1
 340 415 l 1
 641 0 l 1
 539 0 l 1
EndSplineSet
Validated: 5
EndChar

StartChar: R.ss05
Encoding: 82 82 135
Width: 608
GlyphClass: 2
Flags: HW
AnchorPoint: "Anchor-2" 322 0 basechar 0
AnchorPoint: "Anchor-0" 313 720 basechar 0
LayerCount: 2
Fore
SplineSet
84 0 m 1
 84 720 l 1
 334 720 l 17
 378.666666667 720 420.5 711 459.5 693 c 5
 494.5 677 521.5 654.333333333 540.5 625 c 133
 559.5 595.666666667 569 562.333333333 569 525 c 1
 569 479 553.666666667 440.333333333 523 409 c 1
 489 374.333333333 443 350 385 336 c 1
 392 362 l 1
 470.666666667 358.666666667 518 321.333333333 534 250 c 128
 550 178.666666667 563.478841146 119.833333333 574.436523438 73.5 c 1
 580.812174479 45.8333333333 591.257161458 21.3333333333 605.771484375 0 c 1
 562 0 562 0 517.771484375 0 c 1
 506.590494792 22 496.168619792 53 486.505859375 93 c 1
 484.168619792 101.666666667 475.333333333 141.833333333 460 213.5 c 128
 444.666666667 285.166666667 404.333333333 321 339 321 c 10
 143 321 l 1
 143 388 l 1
 331 388 l 17
 377 388 415.666666667 401.5 447 428.5 c 1
 475 452.166666667 489 483.166666667 489 521.5 c 129
 489 559.833333333 475.333333333 590.166666667 448 612.5 c 5
 418.666666667 636.833333333 379.666666667 649 331 649 c 9
 165 649 l 1
 165 0 l 1
 84 0 l 1
EndSplineSet
Validated: 5
EndChar

StartChar: M.ss06
Encoding: 65561 -1 139
Width: 856
Flags: HW
LayerCount: 2
Fore
SplineSet
64 0 m 1
 130 720 l 1
 242 720 l 1
 439 28 l 1
 416 28 l 1
 612 720 l 1
 725 720 l 1
 792 0 l 1
 712 0 l 1
 647 670 l 1
 671 670 l 1
 482 0 l 1
 367 0 l 1
 180 665 l 1
 202 665 l 1
 138 0 l 1
 64 0 l 1
EndSplineSet
Validated: 5
EndChar

StartChar: G.ss07
Encoding: 65562 -1 140
Width: 729
GlyphClass: 2
Flags: HW
AnchorPoint: "Anchor-2" 375 0 basechar 0
AnchorPoint: "Anchor-0" 375 720 basechar 0
LayerCount: 2
Fore
SplineSet
380 -10 m 0
 314 -10 256 5.66666666667 206 37 c 128
 156 68.3333333333 117.333333333 111.833333333 90 167.5 c 128
 62.6666666667 223.166666667 49 286.333333333 49 357 c 0
 49 431 63 495.833333333 91 551.5 c 128
 119 607.166666667 158 650.833333333 208 682.5 c 128
 258 714.166666667 315.333333333 730 380 730 c 0
 434.666666667 730 482.5 719.333333333 523.5 698 c 128
 564.5 676.666666667 597.5 648 622.5 612 c 128
 647.5 576 663 536 669 492 c 1
 588 492 l 1
 584 522 573.666666667 549.5 557 574.5 c 128
 540.333333333 599.5 517.333333333 619.5 488 634.5 c 128
 458.666666667 649.5 423.333333333 657 382 657 c 0
 330.666666667 657 286.166666667 644.666666667 248.5 620 c 128
 210.833333333 595.333333333 181.833333333 560.5 161.5 515.5 c 128
 141.166666667 470.5 131 417.666666667 131 357 c 0
 131 298.333333333 140.833333333 246.833333333 160.5 202.5 c 128
 180.166666667 158.166666667 208.833333333 123.833333333 246.5 99.5 c 128
 284.166666667 75.1666666667 329.666666667 63 383 63 c 0
 424.333333333 63 461.666666667 71.6666666667 495 89 c 128
 528.333333333 106.333333333 554.666666667 134.5 574 173.5 c 128
 593.333333333 212.5 603 264.666666667 603 330 c 1
 680 330 l 1
 680 252.666666667 666.666666667 188.833333333 640 138.5 c 128
 613.333333333 88.1666666667 577.333333333 50.8333333333 532 26.5 c 128
 486.666666667 2.16666666667 436 -10 380 -10 c 0
622 300 m 1
 401 300 l 1
 401 371 l 1
 680 371 l 1
 680 330 l 1
 622 300 l 1
EndSplineSet
Validated: 5
EndChar

StartChar: J.ss08
Encoding: 65566 -1 144
Width: 597
Flags: HW
LayerCount: 2
Fore
SplineSet
288 -10 m 0
 243.333333333 -10 203.833333333 -0.666666666667 169.5 18 c 128
 135.166666667 36.6666666667 108 63.6666666667 88 99 c 128
 68 134.333333333 58 176.333333333 58 225 c 1
 137 225 l 1
 137 172.333333333 151.333333333 132.166666667 180 104.5 c 128
 208.666666667 76.8333333333 244.333333333 63 287 63 c 0
 316.333333333 63 342.333333333 69.3333333333 365 82 c 128
 387.666666667 94.6666666667 405.666666667 114 419 140 c 128
 432.333333333 166 439 199 439 239 c 2
 439 720 l 1
 519 720 l 1
 519 242 l 2
 519 187.333333333 509 141.333333333 489 104 c 128
 469 66.6666666667 441.833333333 38.3333333333 407.5 19 c 128
 373.166666667 -0.333333333333 333.333333333 -10 288 -10 c 0
EndSplineSet
Validated: 1
EndChar

StartChar: Q.ss09
Encoding: 65567 -1 145
Width: 750
Flags: HW
LayerCount: 2
Fore
SplineSet
375 -10 m 0
 327 -10 283.166666667 -0.833333333333 243.5 17.5 c 128
 203.833333333 35.8333333333 169.5 61.6666666667 140.5 95 c 128
 111.5 128.333333333 89 167.666666667 73 213 c 128
 57 258.333333333 49 308.333333333 49 363 c 0
 49 435 62.8333333333 498.666666667 90.5 554 c 128
 118.166666667 609.333333333 156.5 652.5 205.5 683.5 c 128
 254.5 714.5 310.666666667 730 374 730 c 0
 438.666666667 730 495.5 714.5 544.5 683.5 c 128
 593.5 652.5 632 609.333333333 660 554 c 128
 688 498.666666667 702 434.666666667 702 362 c 0
 702 307.333333333 693.833333333 257.333333333 677.5 212 c 128
 661.166666667 166.666666667 638.5 127.5 609.5 94.5 c 128
 580.5 61.5 546 35.8333333333 506 17.5 c 128
 466 -0.833333333333 422.333333333 -10 375 -10 c 0
374 63 m 0
 410.666666667 63 444 70.1666666667 474 84.5 c 128
 504 98.8333333333 529.833333333 119.5 551.5 146.5 c 128
 573.166666667 173.5 589.833333333 205.333333333 601.5 242 c 128
 613.166666667 278.666666667 619 319.333333333 619 364 c 0
 619 422.666666667 608.833333333 474 588.5 518 c 128
 568.166666667 562 539.666666667 596.166666667 503 620.5 c 128
 466.333333333 644.833333333 423.333333333 657 374 657 c 256
 324.666666667 657 281.833333333 644.833333333 245.5 620.5 c 128
 209.166666667 596.166666667 181 562 161 518 c 128
 141 474 131 422.666666667 131 364 c 0
 131 304.666666667 141.166666667 252.333333333 161.5 207 c 128
 181.833333333 161.666666667 210.166666667 126.333333333 246.5 101 c 128
 282.833333333 75.6666666667 325.333333333 63 374 63 c 0
378 222 m 1
 440 257 l 1
 638 -86 l 1
 576 -121 l 1
 378 222 l 1
EndSplineSet
Validated: 5
EndChar

StartChar: a
Encoding: 97 97 150
Width: 515
GlyphClass: 2
Flags: HW
AnchorPoint: "Anchor-3" 460 0 basechar 0
AnchorPoint: "Anchor-2" 258 0 basechar 0
AnchorPoint: "Anchor-0" 266 510 basechar 0
LayerCount: 2
Fore
SplineSet
379 0 m 5
 376.333333333 11.3333333333 374.333333333 24.3333333333 373 39 c 132
 371.666666667 53.6666666667 371 72 371 94 c 5
 366 94 l 5
 366 345 l 6
 366 423 334.5 462 271.5 462 c 4
 200.5 462 163.333333333 434.333333333 160 379 c 5
 75 379 l 5
 77.6666666667 419.666666667 93 451.666666667 121 475 c 4
 151.666666667 500.333333333 199.5 513 264.5 513 c 132
 329.5 513 376.166666667 499.5 404.5 472.5 c 132
 432.833333333 445.5 447 403 447 345 c 6
 447 94 l 6
 447 79.3333333333 448 63.1666666667 450 45.5 c 132
 452 27.8333333333 455.333333333 12.6666666667 460 0 c 5
 379 0 l 5
210 -10 m 0
 159.333333333 -10 119.166666667 3.83333333333 89.5 31.5 c 128
 59.8333333333 59.1666666667 45 99.1666666667 45 151.5 c 0
 45 231.833333333 90 280.666666667 180 298 c 0
 232 308 301.333333333 312.333333333 388 311 c 1
 388 260 l 0
 319.333333333 259.333333333 265.333333333 256 226 250 c 0
 156.666666667 239.333333333 122 203.333333333 122 142 c 0
 122 116.666666667 130.5 96.1666666667 147.5 80.5 c 128
 164.5 64.8333333333 189.333333333 57 222 57 c 0
 264.666666667 57 299.333333333 72.8333333333 326 104.5 c 128
 352.666666667 136.166666667 366 168.666666667 366 202 c 1
 379 112 l 1
 368.333333333 78 348.166666667 49.1666666667 318.5 25.5 c 128
 288.833333333 1.83333333333 252.666666667 -10 210 -10 c 0
EndSplineSet
Validated: 37
Substitution2: "'ss02' Style Set 2 in Latin lookup 23 subtable" a.ss02
Substitution2: "Single Substitution lookup 17 subtable" ordfeminine
AlternateSubs2: "'aalt' Access All Alternates in Latin lookup 1 subtable" a.ss02 ordfeminine
EndChar

StartChar: ae
Encoding: 230 230 161
Width: 834
Flags: HW
LayerCount: 2
Fore
SplineSet
357 134 m 1
 357 345 l 2
 357 381.666666667 348.833333333 408.833333333 332.5 426.5 c 128
 316.166666667 444.166666667 290.333333333 453 255 453 c 256
 219.666666667 453 191.666666667 445 171 429 c 128
 150.333333333 413 138.666666667 390.666666667 136 362 c 1
 60 362 l 1
 62.6666666667 411.333333333 81.6666666667 450 117 478 c 128
 152.333333333 506 199.666666667 520 259 520 c 256
 318.333333333 520 362.666666667 505.333333333 392 476 c 128
 421.333333333 446.666666667 436 403 436 345 c 2
 436 134 l 1
 357 134 l 1
207 -10 m 0
 157 -10 117.5 2.5 88.5 27.5 c 128
 59.5 52.5 45 86 45 128 c 0
 45 169.333333333 58.8333333333 203 86.5 229 c 128
 114.166666667 255 157.666666667 273.666666667 217 285 c 2
 379 315 l 1
 379 250 l 1
 230 224 l 2
 192.666666667 217.333333333 165.666666667 206.333333333 149 191 c 128
 132.333333333 175.666666667 124 155.666666667 124 131 c 0
 124 107.666666667 132.166666667 89.5 148.5 76.5 c 128
 164.833333333 63.5 188.666666667 57 220 57 c 0
 246.666666667 57 270.333333333 61.6666666667 291 71 c 128
 311.666666667 80.3333333333 327.833333333 93.3333333333 339.5 110 c 128
 351.166666667 126.666666667 357 146 357 168 c 1
 419 134 l 1
 399 81.3333333333 370.166666667 44.1666666667 332.5 22.5 c 128
 294.833333333 0.833333333333 253 -10 207 -10 c 0
581 -10 m 0
 536.333333333 -10 497.833333333 1.33333333333 465.5 24 c 128
 433.166666667 46.6666666667 408.333333333 78 391 118 c 128
 373.666666667 158 365 204.333333333 365 257 c 0
 365 309 374.166666667 354.833333333 392.5 394.5 c 128
 410.833333333 434.166666667 436.5 465 469.5 487 c 128
 502.5 509 541 520 585 520 c 0
 628.333333333 520 665.666666667 509.833333333 697 489.5 c 128
 728.333333333 469.166666667 752.333333333 440.166666667 769 402.5 c 128
 785.666666667 364.833333333 794 320.333333333 794 269 c 0
 794 262.333333333 793.833333333 256.166666667 793.5 250.5 c 128
 793.166666667 244.833333333 792.666666667 238.666666667 792 232 c 1
 413 232 l 1
 413 298 l 1
 744 298 l 1
 718 261 l 1
 718 323.666666667 706.833333333 371.333333333 684.5 404 c 128
 662.166666667 436.666666667 628.666666667 453 584 453 c 0
 556 453 530.833333333 445 508.5 429 c 128
 486.166666667 413 468.5 390.333333333 455.5 361 c 128
 442.5 331.666666667 436 297 436 257 c 0
 436 196.333333333 449.333333333 147.833333333 476 111.5 c 128
 502.666666667 75.1666666667 539 57 585 57 c 0
 614.333333333 57 639.333333333 64.5 660 79.5 c 128
 680.666666667 94.5 696 116 706 144 c 1
 781 144 l 1
 765.666666667 96.6666666667 740.666666667 59.1666666667 706 31.5 c 128
 671.333333333 3.83333333333 629.666666667 -10 581 -10 c 0
EndSplineSet
Validated: 5
EndChar

StartChar: b
Encoding: 98 98 162
Width: 586
Flags: HW
LayerCount: 2
Fore
SplineSet
321 -9 m 0
 239 -9 180.666666667 34.6666666667 146 122 c 1
 156 125 l 1
 154 0 l 5
 76 0 l 5
 78 34 78.8333333333 59.5 78.5 76.5 c 132
 78.1666666667 93.5 78 308 78 720 c 1
 162 720 l 1
 162 393 l 1
 151 403 l 1
 191 481 250 520 328 520 c 0
 372 520 410.166666667 509.166666667 442.5 487.5 c 128
 474.833333333 465.833333333 500 435.333333333 518 396 c 128
 536 356.666666667 545 310.666666667 545 258 c 0
 545 204 535.666666667 157 517 117 c 128
 498.333333333 77 472.333333333 46 439 24 c 128
 405.666666667 2 366.333333333 -9 321 -9 c 0
305.5 60 m 0
 349.833333333 60 385.5 77.3333333333 412.5 112 c 0
 439.5 148 453 196.333333333 453 257 c 0
 453 315.905982906 439.333333333 363.405982906 412 399.5 c 0
 386 433.833333333 351.666666667 451 309 451 c 256
 260.333333333 451 222.833333333 433.666666667 196.5 399 c 128
 170.166666667 364.333333333 157 316 157 254 c 0
 157 193.333333333 170.166666667 145.833333333 196.5 111.5 c 128
 222.833333333 77.1666666667 259.166666667 60 305.5 60 c 0
EndSplineSet
Validated: 37
EndChar

StartChar: c
Encoding: 99 99 163
Width: 514
GlyphClass: 2
Flags: HW
AnchorPoint: "Anchor-2" 269 0 basechar 0
AnchorPoint: "Anchor-0" 273 510 basechar 0
LayerCount: 2
Fore
SplineSet
272 -10 m 0
 226.666666667 -10 186.666666667 1.33333333333 152 24 c 128
 117.333333333 46.6666666667 90 78.1666666667 70 118.5 c 128
 50 158.833333333 40 205 40 257 c 256
 40 309 50 354.666666667 70 394 c 128
 90 433.333333333 117.5 464.166666667 152.5 486.5 c 128
 187.5 508.833333333 227.333333333 520 272 520 c 0
 308.666666667 520 341.666666667 512.666666667 371 498 c 128
 400.333333333 483.333333333 423.666666667 462.333333333 441 435 c 128
 458.333333333 407.666666667 469.333333333 375.666666667 474 339 c 1
 391 339 l 1
 385 376.333333333 373 405.5 355 426.5 c 132
 337 447.5 309.666666667 458 273 458 c 4
 241.666666667 458 214.666666667 450 192 434 c 132
 169.333333333 418 152.666666667 394.5 142 363.5 c 128
 131.333333333 332.5 126 297 126 257 c 256
 126 217 131.333333333 181.166666667 142 149.5 c 128
 152.666666667 117.833333333 169.5 93.6666666667 192.5 77 c 128
 215.5 60.3333333333 242.666666667 52 274 52 c 0
 309.333333333 52 336.333333333 62.5 355 83.5 c 128
 373.666666667 104.5 386 133.333333333 392 170 c 1
 475 170 l 1
 469.666666667 134.666666667 458 103.333333333 440 76 c 128
 422 48.6666666667 398.5 27.5 369.5 12.5 c 128
 340.5 -2.5 308 -10 272 -10 c 0
EndSplineSet
Validated: 1
EndChar

StartChar: d
Encoding: 100 100 168
Width: 586
GlyphClass: 2
Flags: HW
AnchorPoint: "Anchor-2" 293 0 basechar 0
AnchorPoint: "Anchor-1" 576 720 basechar 0
AnchorPoint: "Anchor-0" 293 738 basechar 0
LayerCount: 2
Fore
SplineSet
439 0 m 1
 431 117 l 1
 440 127 l 1
 428 89 406.5 56.6666666667 375.5 30 c 132
 344.5 3.33333333333 306.666666667 -10 262 -10 c 260
 217.333333333 -10 178.5 1 145.5 23 c 132
 112.5 45 87 75.5 69 114.5 c 128
 51 153.5 42 199.666666667 42 253 c 256
 42 306.333333333 51.1666666667 353 69.5 393 c 128
 87.8333333333 433 113.833333333 464 147.5 486 c 128
 181.166666667 508 220.333333333 519 265 519 c 0
 311 519 349.166666667 507 379.5 483 c 128
 409.833333333 459 430.333333333 426 441 384 c 1
 426 385 l 1
 426 720 l 1
 508 720 l 1
 508 416 508 416 508 263.5 c 128
 508 161.833333333 510.666666667 74 516 0 c 1
 439 0 l 1
277 59 m 4
 326.333333333 59 364.166666667 76.3333333333 390.5 111 c 132
 416.833333333 145.666666667 430 194 430 256 c 0
 430 316.666666667 416.666666667 364.166666667 390 398.5 c 128
 363.333333333 432.833333333 325.666666667 450 277 450 c 256
 228.333333333 450 191 432.833333333 165 398.5 c 128
 139 364.166666667 126 315.666666667 126 253 c 0
 126 192.333333333 139 144.833333333 165 110.5 c 132
 191 76.1666666667 228.333333333 59 277 59 c 4
EndSplineSet
Validated: 5
EndChar

StartChar: eth
Encoding: 240 240 169
Width: 572
Flags: HW
LayerCount: 2
Fore
SplineSet
274 -10 m 0
 230 -10 190.166666667 -0.166666666667 154.5 19.5 c 128
 118.833333333 39.1666666667 90.6666666667 67.6666666667 70 105 c 128
 49.3333333333 142.333333333 39 187.666666667 39 241 c 0
 39 295 49.3333333333 340.833333333 70 378.5 c 128
 90.6666666667 416.166666667 118.333333333 445 153 465 c 128
 187.666666667 485 226 495 268 495 c 0
 302.666666667 495 334.166666667 488.833333333 362.5 476.5 c 128
 390.833333333 464.166666667 414.666666667 446.5 434 423.5 c 128
 453.333333333 400.5 465.666666667 373.666666667 471 343 c 1
 451 299 l 1
 451 357 l 2
 451 423.666666667 437.166666667 480 409.5 526 c 128
 381.833333333 572 342.166666667 606.833333333 290.5 630.5 c 128
 238.833333333 654.166666667 176.333333333 666 103 666 c 1
 113 730 l 1
 176.333333333 730 233.5 721.5 284.5 704.5 c 128
 335.5 687.5 379.333333333 662.833333333 416 630.5 c 128
 452.666666667 598.166666667 481 558.166666667 501 510.5 c 128
 521 462.833333333 531 407.666666667 531 345 c 0
 531 230.333333333 508 142.5 462 81.5 c 128
 416 20.5 353.333333333 -10 274 -10 c 0
271 61 m 0
 303.666666667 61 332.5 68.3333333333 357.5 83 c 128
 382.5 97.6666666667 402.166666667 119 416.5 147 c 128
 430.833333333 175 438 209.666666667 438 251 c 0
 438 290.333333333 430.333333333 322.833333333 415 348.5 c 128
 399.666666667 374.166666667 379.5 393.666666667 354.5 407 c 128
 329.5 420.333333333 302.333333333 427 273 427 c 0
 227.666666667 427 190.833333333 411.666666667 162.5 381 c 128
 134.166666667 350.333333333 120 304 120 242 c 0
 120 202 126.666666667 168.5 140 141.5 c 128
 153.333333333 114.5 171.5 94.3333333333 194.5 81 c 128
 217.5 67.6666666667 243 61 271 61 c 0
184 529 m 1
 153 578 l 1
 427 755 l 1
 458 706 l 1
 184 529 l 1
EndSplineSet
Validated: 5
EndChar

StartChar: dcroat
Encoding: 273 273 171
Width: 586
GlyphClass: 2
Flags: HW
AnchorPoint: "Anchor-2" 293 0 basechar 0
AnchorPoint: "Anchor-1" 576 720 basechar 0
AnchorPoint: "Anchor-0" 293 738 basechar 0
LayerCount: 2
Fore
SplineSet
260 595 m 1
 260 652 l 1
 586 652 l 1
 586 595 l 1
 260 595 l 1
435 0 m 1
 435 117 l 1
 444 113 l 1
 432 75 409.833333333 45 377.5 23 c 128
 345.166666667 1 306.666666667 -10 262 -10 c 256
 217.333333333 -10 178.5 1 145.5 23 c 128
 112.5 45 87 75.5 69 114.5 c 128
 51 153.5 42 199.666666667 42 253 c 256
 42 306.333333333 51.1666666667 353 69.5 393 c 128
 87.8333333333 433 113.833333333 464 147.5 486 c 128
 181.166666667 508 220.333333333 519 265 519 c 0
 311 519 349.833333333 507.666666667 381.5 485 c 128
 413.166666667 462.333333333 434.333333333 430 445 388 c 1
 430 385 l 1
 430 720 l 1
 508 720 l 1
 508 0 l 1
 435 0 l 1
277 59 m 0
 326.333333333 59 364.833333333 76.3333333333 392.5 111 c 128
 420.166666667 145.666666667 434 194 434 256 c 0
 434 316.666666667 420 364.166666667 392 398.5 c 128
 364 432.833333333 325.666666667 450 277 450 c 256
 228.333333333 450 190.333333333 432.833333333 163 398.5 c 128
 135.666666667 364.166666667 122 315.666666667 122 253 c 0
 122 192.333333333 135.666666667 144.833333333 163 110.5 c 128
 190.333333333 76.1666666667 228.333333333 59 277 59 c 0
EndSplineSet
Validated: 5
EndChar

StartChar: e
Encoding: 101 101 172
Width: 544
GlyphClass: 2
Flags: HW
AnchorPoint: "Anchor-3" 399 19 basechar 0
AnchorPoint: "Anchor-2" 272 0 basechar 0
AnchorPoint: "Anchor-0" 283 510 basechar 0
LayerCount: 2
Fore
SplineSet
278 -10 m 0
 230 -10 188.166666667 1.33333333333 152.5 24 c 128
 116.833333333 46.6666666667 88.8333333333 78 68.5 118 c 0
 49.5 155.333333333 40 201.666666667 40 257 c 0
 40 309 50 354.833333333 70 394.5 c 128
 90 434.166666667 118.333333333 465 155 487 c 128
 191.666666667 509 234 520 282 520 c 0
 327.333333333 520 366.666666667 509.833333333 400 489.5 c 128
 433.333333333 469.166666667 459 440.166666667 477 402.5 c 128
 495 364.833333333 504 320.333333333 504 269 c 0
 504 262.333333333 503.833333333 256.166666667 503.5 250.5 c 128
 503.166666667 244.833333333 502.666666667 238.666666667 502 232 c 1
 98 232 l 1
 98 298 l 1
 454 298 l 1
 428 261 l 1
 428 323.666666667 415.333333333 372.166666667 390 406.5 c 128
 364.666666667 440.833333333 328.333333333 458 281 458 c 0
 232.333333333 458 193.333333333 440.666666667 164 406 c 128
 134.666666667 371.333333333 120 321.666666667 120 257 c 256
 120 192.333333333 135.666666667 141.5 167 104.5 c 0
 196.333333333 69.5 235.333333333 52 284 52 c 0
 358.666666667 52 403.666666667 87.3333333333 419 158 c 1
 496 158 l 1
 469.333333333 46 396.666666667 -10 278 -10 c 0
EndSplineSet
Validated: 5
EndChar

StartChar: f
Encoding: 102 102 181
Width: 341
Flags: HW
LayerCount: 2
Fore
SplineSet
117 0 m 1
 117 587 l 6
 117 632.333333333 130 666.5 156 689.5 c 4
 181.333333333 711.833333333 221 723 275 723 c 6
 275 723 275 723 321 723 c 5
 321 660 l 5
 281 660 l 6
 251.666666667 660 230 653.833333333 216 641.5 c 132
 202 629.166666667 195 609.333333333 195 582 c 6
 195 0 l 1
 117 0 l 1
16 443 m 1
 16 510 l 1
 314 510 l 1
 314 443 l 1
 16 443 l 1
EndSplineSet
Validated: 5
EndChar

StartChar: g
Encoding: 103 103 182
Width: 586
GlyphClass: 2
Flags: HW
AnchorPoint: "Anchor-2" 293 -166 basechar 0
AnchorPoint: "Anchor-0" 278 510 basechar 0
LayerCount: 2
Fore
SplineSet
508 394 m 1041
274 -176 m 0
 130 -176 57 -133.333333333 55 -48 c 1
 132 -48 l 1
 131.333333333 -88.6666666667 180.333333333 -109 279 -109 c 128
 377.666666667 -109 427 -63.3333333333 427 28 c 2
 427 127 l 1
 436 125 l 1
 426 87 405.166666667 58.5 373.5 39.5 c 128
 341.833333333 20.5 303.333333333 11 258 11 c 0
 220 11 182 21.3333333333 144 42 c 0
 111.333333333 60 86.1666666667 88.5 68.5 127.5 c 128
 50.8333333333 166.5 42 210.666666667 42 260 c 256
 42 312 51.1666666667 357.333333333 69.5 396 c 128
 87.8333333333 434.666666667 114 464.833333333 148 486.5 c 128
 182 508.166666667 221.666666667 519 267 519 c 0
 313 519 351 507.5 381 484.5 c 128
 411 461.5 431 429 441 387 c 1
 432 386 l 1
 439 510 l 1
 515 510 l 1
 513.666666667 496.666666667 511.333333333 458 508 394 c 1
 508 29 l 2
 508 -107.666666667 430 -176 274 -176 c 0
278 79 m 256
 323.333333333 79 360.833333333 96 390.5 130 c 0
 417.5 161.333333333 431 206.166666667 431 264.5 c 128
 431 322.833333333 417.5 368.5 390.5 401.5 c 128
 363.5 434.5 326 451 278 451 c 0
 229.333333333 451 191.666666667 434.5 165 401.5 c 128
 138.333333333 368.5 125 321.666666667 125 261 c 0
 125 205 138.5 161.333333333 165.5 130 c 0
 195.166666667 96 232.666666667 79 278 79 c 256
EndSplineSet
EndChar

StartChar: h
Encoding: 104 104 186
Width: 579
GlyphClass: 2
Flags: HW
AnchorPoint: "Anchor-2" 307 0 basechar 0
AnchorPoint: "Anchor-0" 307 510 basechar 0
LayerCount: 2
Fore
SplineSet
78 0 m 1
 78 720 l 1
 160 720 l 1
 160 0 l 1
 78 0 l 1
429 0 m 1
 429 339 l 2
 429 376.333333333 419.833333333 404.333333333 401.5 423 c 128
 383.166666667 441.666666667 355.666666667 451 319 451 c 4
 201 451 148 395 160 283 c 1
 147 395 l 1
 169.666666667 478.333333333 233 520 337 520 c 0
 388.333333333 520 429.5 505.333333333 460.5 476 c 128
 491.5 446.666666667 507 407.666666667 507 359 c 2
 507 0 l 1
 429 0 l 1
EndSplineSet
Validated: 37
EndChar

StartChar: hbar
Encoding: 295 295 187
Width: 579
GlyphClass: 2
Flags: HW
AnchorPoint: "Anchor-2" 307 0 basechar 0
AnchorPoint: "Anchor-0" 307 510 basechar 0
LayerCount: 2
Fore
SplineSet
0 595 m 1
 0 652 l 1
 327 652 l 1
 327 595 l 1
 0 595 l 1
78 0 m 1
 78 720 l 1
 157 720 l 1
 157 0 l 1
 78 0 l 1
429 0 m 1
 429 339 l 2
 429 376.333333333 419.833333333 404.333333333 401.5 423 c 128
 383.166666667 441.666666667 355.666666667 451 319 451 c 0
 287 451 258.666666667 443.833333333 234 429.5 c 128
 209.333333333 415.166666667 190.333333333 395.5 177 370.5 c 128
 163.666666667 345.5 157 316.333333333 157 283 c 1
 144 400 l 1
 160.666666667 437.333333333 186.166666667 466.666666667 220.5 488 c 128
 254.833333333 509.333333333 293.666666667 520 337 520 c 0
 388.333333333 520 429.5 505.333333333 460.5 476 c 128
 491.5 446.666666667 507 407.666666667 507 359 c 2
 507 0 l 1
 429 0 l 1
EndSplineSet
Validated: 5
EndChar

StartChar: dotlessi
Encoding: 305 305 189
Width: 235
GlyphClass: 2
Flags: HW
AnchorPoint: "Anchor-3" 157 0 basechar 0
AnchorPoint: "Anchor-2" 117 0 basechar 0
AnchorPoint: "Anchor-0" 117 510 basechar 0
LayerCount: 2
Fore
SplineSet
78 0 m 1
 78 510 l 1
 157 510 l 1
 157 0 l 1
 78 0 l 1
EndSplineSet
Validated: 1
EndChar

StartChar: uni0237
Encoding: 567 567 199
Width: 235
GlyphClass: 2
Flags: HW
AnchorPoint: "Anchor-2" 117 -159 basechar 0
AnchorPoint: "Anchor-0" 117 510 basechar 0
LayerCount: 2
Fore
SplineSet
17 -169 m 0
 -7.66666666667 -168.333333333 -24.3333333333 -166.666666667 -33 -164 c 5
 -33 -99 l 1
 -20.3333333333 -103 -5.66666666667 -105 11 -105 c 0
 36.3333333333 -105 53.8333333333 -99.6666666667 63.5 -89 c 128
 73.1666666667 -78.3333333333 78 -64 78 -46 c 2
 78 510 l 1
 157 510 l 1
 157 -50 l 2
 157 -86 145.833333333 -114.833333333 123.5 -136.5 c 0
 98.5 -160.166666667 63 -171 17 -169 c 0
EndSplineSet
Validated: 33
EndChar

StartChar: k
Encoding: 107 107 200
Width: 518
GlyphClass: 2
Flags: HW
AnchorPoint: "Anchor-2" 280 0 basechar 0
AnchorPoint: "Anchor-0" 260 740 basechar 0
LayerCount: 2
Fore
SplineSet
78 0 m 5
 78 738 l 5
 157 738 l 5
 157 0 l 5
 78 0 l 5
400 0 m 5
 157 265 l 5
 390 510 l 5
 496 510 l 5
 233 243 l 5
 237 289 l 5
 506 0 l 5
 400 0 l 5
EndSplineSet
Validated: 5
Substitution2: "'ss04' Style Set 4 in Latin lookup 25 subtable" k.ss04
Substitution2: "'aalt' Access All Alternates in Latin lookup 0 subtable" k.ss04
EndChar

StartChar: l
Encoding: 108 108 202
Width: 235
GlyphClass: 2
Flags: HW
AnchorPoint: "Anchor-2" 117 0 basechar 0
AnchorPoint: "Anchor-1" 224 740 basechar 0
AnchorPoint: "Anchor-0" 117 740 basechar 0
LayerCount: 2
Fore
SplineSet
78 0 m 1
 78 740 l 5
 157 740 l 5
 157 0 l 1
 78 0 l 1
EndSplineSet
Validated: 1
EndChar

StartChar: lslash
Encoding: 322 322 206
Width: 252
GlyphClass: 2
Flags: HW
AnchorPoint: "Anchor-2" 126 0 basechar 0
AnchorPoint: "Anchor-1" 233 720 basechar 0
AnchorPoint: "Anchor-0" 126 720 basechar 0
LayerCount: 2
Fore
SplineSet
129 346 m 1
 0 293 l 1
 0 356 l 1
 127 408 l 1
 129 346 l 1
127 412 m 1
 252 464 l 1
 252 401 l 1
 129 350 l 1
 127 412 l 1
87 0 m 1
 87 720 l 1
 165 720 l 1
 165 0 l 1
 87 0 l 1
EndSplineSet
Validated: 5
EndChar

StartChar: m
Encoding: 109 109 207
Width: 891
Flags: HW
LayerCount: 2
Fore
SplineSet
78 0 m 1
 78 398 l 2
 77 454 77 454 76 510 c 1
 150 510 l 1
 152 393 l 1
 157 393 l 1
 157 0 l 1
 78 0 l 1
409 0 m 1
 409 344 l 2
 409 380.666666667 400.833333333 407.666666667 384.5 425 c 128
 368.166666667 442.333333333 344.333333333 451 313 451 c 4
 208.333333333 451 156.333333333 395 157 283 c 1
 144 396 l 1
 174 478.666666667 235.333333333 520 328 520 c 0
 376 520 414.666666667 505.833333333 444 477.5 c 128
 473.333333333 449.166666667 488 411 488 363 c 2
 488 0 l 1
 409 0 l 1
741 0 m 1
 741 344 l 2
 741 380.666666667 732.666666667 407.666666667 716 425 c 128
 699.333333333 442.333333333 675.333333333 451 644 451 c 4
 539.333333333 451 487.333333333 395 488 283 c 1
 468 397 l 1
 496 479 559 520 657 520 c 0
 704.333333333 520 743.166666667 505.833333333 773.5 477.5 c 128
 803.833333333 449.166666667 819 411 819 363 c 2
 819 0 l 1
 741 0 l 1
EndSplineSet
Validated: 37
EndChar

StartChar: n
Encoding: 110 110 208
Width: 579
GlyphClass: 2
Flags: HW
AnchorPoint: "Anchor-2" 304 0 basechar 0
AnchorPoint: "Anchor-0" 318 510 basechar 0
LayerCount: 2
Fore
SplineSet
78 0 m 1
 78 401 l 6
 78 434.333333333 77.3333333333 470.666666667 76 510 c 1
 150 510 l 1
 152 393 l 5
 157 393 l 5
 157 0 l 1
 78 0 l 1
429 0 m 1
 429 339 l 2
 429 376.333333333 419.833333333 404.333333333 401.5 423 c 128
 383.166666667 441.666666667 355.666666667 451 319 451 c 0
 287 451 258.666666667 443.833333333 234 429.5 c 128
 209.333333333 415.166666667 190.333333333 395.5 177 370.5 c 132
 163.666666667 345.5 157 316.333333333 157 283 c 5
 131.666666667 441 191.666666667 520 337 520 c 4
 388.333333333 520 429.5 505.333333333 460.5 476 c 128
 491.5 446.666666667 507 407.666666667 507 359 c 2
 507 0 l 1
 429 0 l 1
EndSplineSet
Validated: 37
EndChar

StartChar: eng
Encoding: 331 331 213
Width: 579
Flags: HW
LayerCount: 2
Fore
SplineSet
368 -215 m 0
 355.333333333 -215 345 -214.333333333 337 -213 c 128
 329 -211.666666667 322.666666667 -210 318 -208 c 1
 318 -146 l 1
 322 -147.333333333 328 -148.666666667 336 -150 c 128
 344 -151.333333333 352.666666667 -152 362 -152 c 0
 386.666666667 -152 404 -146.5 414 -135.5 c 128
 424 -124.5 429 -108.333333333 429 -87 c 2
 429 339 l 2
 429 376.333333333 419.833333333 404.333333333 401.5 423 c 128
 383.166666667 441.666666667 355.666666667 451 319 451 c 0
 287 451 258.666666667 443.833333333 234 429.5 c 128
 209.333333333 415.166666667 190.333333333 395.5 177 370.5 c 128
 163.666666667 345.5 157 316.333333333 157 283 c 1
 144 400 l 1
 160.666666667 437.333333333 186.166666667 466.666666667 220.5 488 c 128
 254.833333333 509.333333333 293.666666667 520 337 520 c 0
 388.333333333 520 429.5 505.333333333 460.5 476 c 128
 491.5 446.666666667 507 407.666666667 507 359 c 2
 507 -91 l 2
 507 -130.333333333 496 -160.833333333 474 -182.5 c 128
 452 -204.166666667 416.666666667 -215 368 -215 c 0
78 0 m 1
 78 510 l 1
 152 510 l 1
 152 393 l 1
 157 393 l 1
 157 0 l 1
 78 0 l 1
EndSplineSet
Validated: 5
EndChar

StartChar: o
Encoding: 111 111 214
Width: 556
GlyphClass: 2
Flags: HW
AnchorPoint: "Anchor-3" 397 20 basechar 0
AnchorPoint: "Anchor-2" 278 0 basechar 0
AnchorPoint: "Anchor-1" 540 510 basechar 0
AnchorPoint: "Anchor-0" 278 510 basechar 0
LayerCount: 2
Fore
SplineSet
278 -10 m 256
 214.666666667 -10 163.353190104 7 124.059570312 41 c 0
 66.6865234373 91.6666666667 38 163.666666667 38 257 c 0
 38 329 58.1813151042 391 98.5439453125 443 c 0
 138.181315104 494.333333333 198 520 278 520 c 256
 351.333333333 520 408.043294271 497.666666667 448.129882812 453 c 0
 494.709960937 401.666666667 518 336.333333333 518 257 c 0
 518 175.666666667 494.408203125 109 447.224609375 57 c 0
 407.074869792 12.3333333333 350.666666667 -10 278 -10 c 256
278 57 m 256
 319.333333333 57 352.943684896 70.3333333333 378.831054688 97 c 0
 416.277018229 135.666666667 435 189.333333333 435 258 c 0
 435 319.333333333 418.490559896 369 385.471679688 407 c 0
 359.157226563 437.666666667 323.333333333 453 278 453 c 256
 233.333333333 453 197.848632813 438.333333333 171.545898438 409 c 0
 137.181966146 371 120 320.666666667 120 258 c 0
 120 187.333333333 139.490885417 133 178.47265625 95 c 0
 204.157552083 69.6666666667 237.333333333 57 278 57 c 256
EndSplineSet
Validated: 1
Substitution2: "Single Substitution lookup 17 subtable" ordmasculine
Substitution2: "'aalt' Access All Alternates in Latin lookup 0 subtable" ordmasculine
EndChar

StartChar: oslash
Encoding: 248 248 221
Width: 565
Flags: HW
LayerCount: 2
Fore
SplineSet
283 -10 m 256
 234.333333333 -10 191.666666667 1.66666666667 155 25 c 128
 118.333333333 48.3333333333 90 80.1666666667 70 120.5 c 128
 50 160.833333333 40 206.333333333 40 257 c 0
 40 308.333333333 50.1666666667 353.666666667 70.5 393 c 128
 90.8333333333 432.333333333 119.166666667 463.333333333 155.5 486 c 128
 191.833333333 508.666666667 234.333333333 520 283 520 c 256
 331.666666667 520 374.166666667 508.666666667 410.5 486 c 128
 446.833333333 463.333333333 475.166666667 432.333333333 495.5 393 c 128
 515.833333333 353.666666667 526 308.333333333 526 257 c 0
 526 206.333333333 515.833333333 160.833333333 495.5 120.5 c 128
 475.166666667 80.1666666667 446.833333333 48.3333333333 410.5 25 c 128
 374.166666667 1.66666666667 331.666666667 -10 283 -10 c 256
283 57 m 256
 316.333333333 57 345 65.5 369 82.5 c 128
 393 99.5 411.666666667 123.166666667 425 153.5 c 128
 438.333333333 183.833333333 445 218.666666667 445 258 c 0
 445 317.333333333 430.333333333 364.666666667 401 400 c 128
 371.666666667 435.333333333 332.333333333 453 283 453 c 256
 233.666666667 453 194.166666667 435.333333333 164.5 400 c 128
 134.833333333 364.666666667 120 317.333333333 120 258 c 0
 120 218.666666667 126.666666667 183.833333333 140 153.5 c 128
 153.333333333 123.166666667 172.166666667 99.5 196.5 82.5 c 128
 220.833333333 65.5 249.666666667 57 283 57 c 256
78 -3 m 1
 37 36 l 1
 487 513 l 1
 528 474 l 1
 78 -3 l 1
EndSplineSet
Validated: 5
EndChar

StartChar: oe
Encoding: 339 339 223
Width: 909
Flags: HW
LayerCount: 2
Fore
SplineSet
273 -10 m 256
 227.666666667 -10 187.333333333 1.66666666667 152 25 c 128
 116.666666667 48.3333333333 89.1666666667 80.1666666667 69.5 120.5 c 128
 49.8333333333 160.833333333 40 206.333333333 40 257 c 0
 40 308.333333333 50 353.666666667 70 393 c 128
 90 432.333333333 117.5 463.333333333 152.5 486 c 128
 187.5 508.666666667 227.666666667 520 273 520 c 256
 318.333333333 520 357.666666667 508.666666667 391 486 c 128
 424.333333333 463.333333333 450.166666667 432.333333333 468.5 393 c 128
 486.833333333 353.666666667 496 308.333333333 496 257 c 0
 496 206.333333333 486.833333333 160.833333333 468.5 120.5 c 128
 450.166666667 80.1666666667 424.333333333 48.3333333333 391 25 c 128
 357.666666667 1.66666666667 318.333333333 -10 273 -10 c 256
273 57 m 256
 303 57 329.333333333 65.5 352 82.5 c 128
 374.666666667 99.5 392.5 123.166666667 405.5 153.5 c 128
 418.5 183.833333333 425 218.666666667 425 258 c 0
 425 298 418.5 332.5 405.5 361.5 c 128
 392.5 390.5 374.666666667 413 352 429 c 128
 329.333333333 445 303 453 273 453 c 256
 243 453 216.666666667 445 194 429 c 128
 171.333333333 413 153.333333333 390.5 140 361.5 c 128
 126.666666667 332.5 120 298 120 258 c 0
 120 218.666666667 126.666666667 183.833333333 140 153.5 c 128
 153.333333333 123.166666667 171.333333333 99.5 194 82.5 c 128
 216.666666667 65.5 243 57 273 57 c 256
654 -10 m 0
 610.666666667 -10 572.5 1.33333333333 539.5 24 c 128
 506.5 46.6666666667 480.833333333 78 462.5 118 c 128
 444.166666667 158 435 204.333333333 435 257 c 0
 435 309 444.166666667 354.833333333 462.5 394.5 c 128
 480.833333333 434.166666667 506.666666667 465 540 487 c 128
 573.333333333 509 612.333333333 520 657 520 c 0
 699 520 736.166666667 509.833333333 768.5 489.5 c 128
 800.833333333 469.166666667 825.833333333 440.166666667 843.5 402.5 c 128
 861.166666667 364.833333333 870 320.333333333 870 269 c 0
 870 262.333333333 869.833333333 256.166666667 869.5 250.5 c 128
 869.166666667 244.833333333 868.333333333 238.666666667 867 232 c 1
 483 232 l 1
 483 298 l 1
 820 298 l 1
 794 261 l 1
 793.333333333 323.666666667 780.833333333 371.333333333 756.5 404 c 128
 732.166666667 436.666666667 699 453 657 453 c 0
 627.666666667 453 601.5 445 578.5 429 c 128
 555.5 413 537.666666667 390.333333333 525 361 c 128
 512.333333333 331.666666667 506 297 506 257 c 256
 506 217 512.333333333 182 525 152 c 128
 537.666666667 122 555.5 98.6666666667 578.5 82 c 128
 601.5 65.3333333333 628 57 658 57 c 0
 684.666666667 57 709.333333333 64.5 732 79.5 c 128
 754.666666667 94.5 771.333333333 116 782 144 c 1
 856 144 l 1
 840.666666667 96.6666666667 814.833333333 59.1666666667 778.5 31.5 c 128
 742.166666667 3.83333333333 700.666666667 -10 654 -10 c 0
EndSplineSet
Validated: 5
EndChar

StartChar: p
Encoding: 112 112 224
Width: 586
Flags: HW
LayerCount: 2
Fore
SplineSet
321 12 m 4
 275 12 236.833333333 24.1666666667 206.5 48.5 c 132
 176.166666667 72.8333333333 155.333333333 106 144 148 c 5
 160 146 l 5
 160 -158 l 1
 78 -158 l 1
 78 402 l 2
 78 427.333333333 76.6666666667 463.333333333 74 510 c 1
 151 510 l 1
 155 393 l 1
 144 392 l 1
 156 430.666666667 178.5 461.666666667 211.5 485 c 128
 244.5 508.333333333 283.333333333 520 328 520 c 0
 470.666666667 520 542 435.333333333 542 266 c 128
 542 96.6666666667 468.333333333 12 321 12 c 4
309 81 m 4
 409.666666667 81 460 142.666666667 460 266 c 128
 460 389.333333333 409.666666667 451 309 451 c 256
 260.333333333 451 222.5 433.666666667 195.5 399 c 128
 168.5 364.333333333 155 316 155 254 c 0
 155 207.333333333 168.5 166.833333333 195.5 132.5 c 132
 222.5 98.1666666667 260.333333333 81 309 81 c 4
EndSplineSet
Validated: 5
EndChar

StartChar: thorn
Encoding: 254 254 225
Width: 586
Flags: HW
LayerCount: 2
Fore
SplineSet
321 -9 m 0
 275 -9 236.333333333 2.33333333333 205 25 c 128
 173.666666667 47.6666666667 152.333333333 80 141 122 c 1
 157 125 l 1
 157 -205 l 1
 78 -205 l 1
 78 720 l 1
 157 720 l 1
 157 393 l 1
 141 397 l 1
 153 435.666666667 176 465.833333333 210 487.5 c 128
 244 509.166666667 283.333333333 520 328 520 c 0
 372 520 410.166666667 509.166666667 442.5 487.5 c 128
 474.833333333 465.833333333 500 435.333333333 518 396 c 128
 536 356.666666667 545 310.666666667 545 258 c 0
 545 204 535.666666667 157 517 117 c 128
 498.333333333 77 472.333333333 46 439 24 c 128
 405.666666667 2 366.333333333 -9 321 -9 c 0
309 60 m 0
 358.333333333 60 396.5 77.3333333333 423.5 112 c 128
 450.5 146.666666667 464 195 464 257 c 0
 464 317.666666667 450.333333333 365.166666667 423 399.5 c 128
 395.666666667 433.833333333 357.666666667 451 309 451 c 256
 260.333333333 451 222 433.666666667 194 399 c 128
 166 364.333333333 152 316 152 254 c 0
 152 193.333333333 166 145.833333333 194 111.5 c 128
 222 77.1666666667 260.333333333 60 309 60 c 0
EndSplineSet
Validated: 5
EndChar

StartChar: q
Encoding: 113 113 226
Width: 586
Flags: HW
LayerCount: 2
Fore
SplineSet
427 -157 m 5
 427 137 l 5
 441 138 l 5
 429 100 407.333333333 69.1666666667 376 45.5 c 132
 344.666666667 21.8333333333 306.666666667 10 262 10 c 260
 217.333333333 10 178.5 20.8333333333 145.5 42.5 c 132
 112.5 64.1666666667 87.5 96 70.5 138 c 132
 53.5 180 45 221 45 261 c 260
 45 314.333333333 53.6666666667 359.666666667 71 397 c 132
 88.3333333333 434.333333333 113.833333333 464 147.5 486 c 132
 181.166666667 508 220.333333333 519 265 519 c 4
 311.666666667 519 350.166666667 506.833333333 380.5 482.5 c 132
 410.833333333 458.166666667 431.333333333 425 442 383 c 5
 432 385 l 5
 434 510 l 5
 510 510 l 5
 508 400 l 5
 508 98 508 98 508 -157 c 5
 427 -157 l 5
277 79 m 4
 326.333333333 79 364.333333333 97.6666666667 391 135 c 132
 417.666666667 172.333333333 431 218.333333333 431 273 c 132
 431 327.666666667 417.5 370.833333333 390.5 402.5 c 132
 363.5 434.166666667 325.666666667 450 277 450 c 260
 228.333333333 450 191 434.166666667 165 402.5 c 132
 139 370.833333333 126 323.666666667 126 261 c 4
 126 213.666666667 139 171.5 165 134.5 c 132
 191 97.5 228.333333333 79 277 79 c 4
EndSplineSet
Validated: 5
EndChar

StartChar: r
Encoding: 114 114 227
Width: 363
GlyphClass: 2
Flags: HW
AnchorPoint: "Anchor-2" 117 0 basechar 0
AnchorPoint: "Anchor-0" 208 510 basechar 0
LayerCount: 2
Fore
SplineSet
78 0 m 1
 78 510 l 1
 152 510 l 1
 152 383 l 1
 157 383 l 1
 157 0 l 1
 78 0 l 1
157 274 m 1
 143 389 l 1
 155.666666667 431.666666667 176.666666667 464.166666667 206 486.5 c 128
 235.333333333 508.833333333 269 520 307 520 c 0
 322.333333333 520 333 518.666666667 339 516 c 1
 339 440 l 1
 336.333333333 441.333333333 332.166666667 442.166666667 326.5 442.5 c 128
 320.833333333 442.833333333 313.666666667 443 305 443 c 0
 256.333333333 443 219.5 428.333333333 194.5 399 c 128
 169.5 369.666666667 157 328 157 274 c 1
EndSplineSet
Validated: 5
EndChar

StartChar: s
Encoding: 115 115 231
Width: 455
GlyphClass: 2
Flags: HW
AnchorPoint: "Anchor-2" 240 0 basechar 0
AnchorPoint: "Anchor-0" 231 510 basechar 0
LayerCount: 2
Fore
SplineSet
243 -10 m 4
 109 -10 40.6666666667 45.6666666667 38 157 c 5
 113 157 l 5
 113 89 156.666666667 55 244 55 c 0
 278 55 304.5 61.5 323.5 74.5 c 128
 342.5 87.5 352 106.333333333 352 131 c 0
 352 148.333333333 346.5 163.666666667 335.5 177 c 128
 324.5 190.333333333 302.666666667 201.666666667 270 211 c 2
 191 235 l 2
 147 247.666666667 114 266.333333333 92 291 c 128
 70 315.666666667 59 345 59 379 c 0
 59 422.333333333 74.6666666667 456.666666667 106 482 c 128
 137.333333333 507.333333333 180 520 234 520 c 0
 356.666666667 520 418.333333333 469.666666667 419 369 c 1
 344 369 l 1
 343.333333333 425.666666667 305.666666667 454.333333333 231 455 c 0
 200.333333333 455 176.333333333 448.833333333 159 436.5 c 128
 141.666666667 424.166666667 133 407 133 385 c 0
 133 367.666666667 139.166666667 352.5 151.5 339.5 c 128
 163.833333333 326.5 185 315.333333333 215 306 c 2
 292 281 l 2
 336 268.333333333 369.5 249 392.5 223 c 128
 415.5 197 427 166 427 130 c 0
 427 86 410.666666667 51.6666666667 378 27 c 128
 345.333333333 2.33333333333 300.333333333 -10 243 -10 c 4
EndSplineSet
Validated: 1
EndChar

StartChar: germandbls
Encoding: 223 223 236
Width: 592
Flags: HW
LayerCount: 2
Fore
SplineSet
307 -9 m 0
 292.333333333 -9 279.166666667 -8.16666666667 267.5 -6.5 c 128
 255.833333333 -4.83333333333 246.333333333 -2.66666666667 239 0 c 1
 239 66 l 1
 248.333333333 63.3333333333 258.166666667 61.3333333333 268.5 60 c 128
 278.833333333 58.6666666667 290 58 302 58 c 0
 364.666666667 58 408.833333333 70.5 434.5 95.5 c 128
 460.166666667 120.5 473 154 473 196 c 0
 473 240 458.666666667 275.666666667 430 303 c 128
 401.333333333 330.333333333 363.333333333 344 316 344 c 2
 259 344 l 1
 259 413 l 1
 314 413 l 2
 336.666666667 413 357.166666667 417.833333333 375.5 427.5 c 128
 393.833333333 437.166666667 408.666666667 451.333333333 420 470 c 128
 431.333333333 488.666666667 437 510.666666667 437 536 c 0
 437 576 424.833333333 607.833333333 400.5 631.5 c 128
 376.166666667 655.166666667 343 667 301 667 c 0
 259.666666667 667 225.333333333 653.5 198 626.5 c 128
 170.666666667 599.5 157 558.666666667 157 504 c 2
 157 0 l 1
 78 0 l 1
 78 508 l 2
 78 578 98.1666666667 632.5 138.5 671.5 c 128
 178.833333333 710.5 232.666666667 730 300 730 c 0
 343.333333333 730 381.166666667 722.333333333 413.5 707 c 128
 445.833333333 691.666666667 471.166666667 670 489.5 642 c 128
 507.833333333 614 517 581 517 543 c 0
 517 509 509.166666667 479 493.5 453 c 128
 477.833333333 427 456.666666667 406.666666667 430 392 c 128
 403.333333333 377.333333333 373.333333333 370 340 370 c 1
 333 391 l 1
 377.666666667 391 416.5 382.666666667 449.5 366 c 128
 482.5 349.333333333 508.166666667 326.166666667 526.5 296.5 c 128
 544.833333333 266.833333333 554 232.666666667 554 194 c 0
 554 153.333333333 544.166666667 117.833333333 524.5 87.5 c 128
 504.833333333 57.1666666667 476.5 33.5 439.5 16.5 c 128
 402.5 -0.5 358.333333333 -9 307 -9 c 0
EndSplineSet
Validated: 5
EndChar

StartChar: t
Encoding: 116 116 237
Width: 364
GlyphClass: 2
Flags: HW
AnchorPoint: "Anchor-2" 237 0 basechar 0
AnchorPoint: "Anchor-1" 294 778 basechar 0
AnchorPoint: "Anchor-0" 177 510 basechar 0
LayerCount: 2
Fore
SplineSet
233.5 0 m 128
 205.833333333 0 179.5 10.8333333333 154.5 32.5 c 128
 129.5 54.1666666667 117 88.6666666667 117 136 c 2
 117 625 l 1
 195 655 l 1
 195 137 l 2
 195 109.666666667 202.166666667 91 216.5 81 c 0
 232.166666667 69.6666666667 255.333333333 64.6666666667 286 66 c 0
 286 66 286 66 341 73 c 1
 341 10 l 1
 297 3.33333333333 261.166666667 0 233.5 0 c 128
16 443 m 1
 16 510 l 1
 341 510 l 1
 341 443 l 1
 16 443 l 1
EndSplineSet
Validated: 37
EndChar

StartChar: u
Encoding: 117 117 240
Width: 570
GlyphClass: 2
Flags: HW
AnchorPoint: "Anchor-3" 492 0 basechar 0
AnchorPoint: "Anchor-2" 285 0 basechar 0
AnchorPoint: "Anchor-1" 550 510 basechar 0
AnchorPoint: "Anchor-0" 285 510 basechar 0
LayerCount: 2
Fore
SplineSet
238 -10 m 0
 205.333333333 -10 176.5 -3.33333333333 151.5 10 c 128
 126.5 23.3333333333 107 42.1666666667 93 66.5 c 128
 79 90.8333333333 72 119 72 151 c 2
 72 510 l 1
 151 510 l 1
 151 170 l 2
 151 133.333333333 160 105.666666667 178 87 c 128
 196 68.3333333333 222 59 256 59 c 0
 286 59 312.833333333 66.1666666667 336.5 80.5 c 128
 360.166666667 94.8333333333 378.833333333 114.666666667 392.5 140 c 128
 406.166666667 165.333333333 413 194.333333333 413 227 c 1
 426 110 l 1
 409.333333333 72.6666666667 384.166666667 43.3333333333 350.5 22 c 128
 316.833333333 0.666666666667 279.333333333 -10 238 -10 c 0
419 0 m 1
 419 117 l 1
 413 117 l 1
 413 510 l 1
 492 510 l 1
 492 0 l 1
 419 0 l 1
EndSplineSet
Validated: 5
EndChar

StartChar: v
Encoding: 118 118 250
Width: 506
Flags: HW
LayerCount: 2
Fore
SplineSet
222 0 m 1
 18 510 l 1
 102 510 l 1
 271 57 l 1
 240 57 l 1
 408 510 l 1
 488 510 l 1
 284 0 l 1
 222 0 l 1
EndSplineSet
Validated: 5
EndChar

StartChar: w
Encoding: 119 119 251
Width: 747
GlyphClass: 2
Flags: HW
AnchorPoint: "Anchor-2" 374 0 basechar 0
AnchorPoint: "Anchor-0" 374 510 basechar 0
LayerCount: 2
Fore
SplineSet
181 0 m 1
 28 510 l 1
 108 510 l 1
 224 76 l 1
 205 76 l 1
 344 510 l 1
 406 510 l 1
 547 76 l 1
 528 76 l 1
 643 510 l 1
 719 510 l 1
 566 0 l 1
 504 0 l 1
 364 425 l 1
 385 425 l 1
 243 0 l 1
 181 0 l 1
EndSplineSet
Validated: 5
EndChar

StartChar: x
Encoding: 120 120 256
Width: 530
Flags: HW
LayerCount: 2
Fore
SplineSet
409 0 m 1
 247 237 l 1
 52 510 l 1
 143 510 l 1
 293 291 l 1
 499 0 l 1
 409 0 l 1
252 287 m 1
 406 510 l 1
 493 510 l 1
 293 233 l 1
 252 287 l 1
285 232 m 1
 119 0 l 1
 31 0 l 1
 246 289 l 1
 285 232 l 1
EndSplineSet
Validated: 5
EndChar

StartChar: y
Encoding: 65573 -1 257
Width: 506
GlyphClass: 2
Flags: HW
AnchorPoint: "Anchor-2" 254 0 basechar 0
AnchorPoint: "Anchor-0" 256 510 basechar 0
LayerCount: 2
Fore
SplineSet
115 -208 m 0
 96.3333333333 -208 78.6666666667 -207.666666667 62 -207 c 1
 62 -145 l 1
 62 -145 62 -145 111 -145 c 0
 138.333333333 -145 157 -140.833333333 167 -132.5 c 0
 181.985226495 -119.217640153 194.651893161 -97.7176401527 205 -68 c 6
 244 44 l 1
 255 77 l 1
 408 510 l 1
 488 510 l 1
 265 -93 l 6
 255 -120.333333333 242.666666667 -143.5 228 -162.5 c 0
 214 -180.833333333 197.833333333 -193 179.5 -199 c 128
 161.166666667 -205 139.666666667 -208 115 -208 c 0
238 -4 m 1
 18 510 l 1
 101 510 l 1
 289 53 l 1
 238 -4 l 1
EndSplineSet
Validated: 5
Substitution2: "'calt' Contextual Alternates in Latin lookup 24 subtable" y.ss03
Substitution2: "'aalt' Access All Alternates in Latin lookup 0 subtable" y.ss03
EndChar

StartChar: z
Encoding: 122 122 262
Width: 477
GlyphClass: 2
Flags: HW
AnchorPoint: "Anchor-2" 239 0 basechar 0
AnchorPoint: "Anchor-0" 239 510 basechar 0
LayerCount: 2
Fore
SplineSet
51 0 m 1
 51 57 l 1
 350 479 l 1
 378 443 l 1
 61 443 l 1
 61 510 l 1
 424 510 l 1
 424 453 l 1
 125 31 l 1
 97 67 l 1
 434 67 l 1
 434 0 l 1
 51 0 l 1
EndSplineSet
Validated: 5
EndChar

StartChar: a.ss02
Encoding: 65601 -1 289
Width: 586
GlyphClass: 2
Flags: HW
AnchorPoint: "Anchor-3" 508 0 basechar 0
AnchorPoint: "Anchor-2" 293 0 basechar 0
AnchorPoint: "Anchor-0" 293 510 basechar 0
LayerCount: 2
Fore
SplineSet
262 -10 m 256
 217.333333333 -10 178.5 1 145.5 23 c 128
 112.5 45 87 75.5 69 114.5 c 128
 51 153.5 42 199.666666667 42 253 c 256
 42 306.333333333 51.1666666667 353 69.5 393 c 128
 87.8333333333 433 113.833333333 464 147.5 486 c 128
 181.166666667 508 220.333333333 519 265 519 c 0
 311 519 349.833333333 507.666666667 381.5 485 c 128
 413.166666667 462.333333333 434.333333333 430 445 388 c 1
 435 385 l 1
 435 510 l 1
 508 510 l 1
 508 0 l 1
 435 0 l 1
 435 117 l 1
 444 113 l 1
 432 75 409.833333333 45 377.5 23 c 128
 345.166666667 1 306.666666667 -10 262 -10 c 256
277 59 m 0
 326.333333333 59 364.833333333 76.3333333333 392.5 111 c 128
 420.166666667 145.666666667 434 194 434 256 c 0
 434 316.666666667 420 364.166666667 392 398.5 c 128
 364 432.833333333 325.666666667 450 277 450 c 256
 228.333333333 450 190.333333333 432.833333333 163 398.5 c 128
 135.666666667 364.166666667 122 315.666666667 122 253 c 0
 122 192.333333333 135.666666667 144.833333333 163 110.5 c 128
 190.333333333 76.1666666667 228.333333333 59 277 59 c 0
EndSplineSet
Validated: 5
EndChar

StartChar: y.ss03
Encoding: 121 121 300
Width: 506
GlyphClass: 2
Flags: HW
AnchorPoint: "Anchor-2" 254 0 basechar 0
AnchorPoint: "Anchor-0" 254 510 basechar 0
LayerCount: 2
Fore
SplineSet
143 -158 m 5
 230 61 l 1
 247 88 l 1
 408 510 l 1
 488 510 l 1
 226 -158 l 5
 143 -158 l 5
238 -4 m 1
 18 510 l 1
 104 510 l 1
 292 53 l 1
 238 -4 l 1
EndSplineSet
Validated: 5
EndChar

StartChar: k.ss04
Encoding: 65612 -1 305
Width: 518
GlyphClass: 2
Flags: HW
AnchorPoint: "Anchor-2" 280 0 basechar 0
AnchorPoint: "Anchor-0" 260 740 basechar 0
LayerCount: 2
Fore
SplineSet
78 0 m 1
 78 720 l 1
 157 720 l 1
 157 0 l 1
 78 0 l 1
146 235 m 1
 396 510 l 1
 493 510 l 1
 281 277 l 1
 273 276 l 1
 141 135 l 1
 146 235 l 1
300 304 m 1
 506 0 l 1
 415 0 l 1
 229 280 l 1
 300 304 l 1
EndSplineSet
Validated: 5
EndChar

StartChar: f_f_i
Encoding: 65617 -1 310
Width: 896
GlyphClass: 3
LigCaretCntFixed: 1
Flags: HW
LayerCount: 2
Fore
SplineSet
117 0 m 1
 117 587 l 2
 117 631.666666667 130 666.666666667 156 692 c 128
 182 717.333333333 221.666666667 730 275 730 c 0
 288.333333333 730 298.666666667 729.333333333 306 728 c 128
 313.333333333 726.666666667 319.666666667 725 325 723 c 1
 325 661 l 1
 320.333333333 662.333333333 314 663.666666667 306 665 c 128
 298 666.333333333 289.666666667 667 281 667 c 0
 251.666666667 667 230 659.666666667 216 645 c 128
 202 630.333333333 195 609.333333333 195 582 c 2
 195 0 l 1
 117 0 l 1
428 0 m 1
 428 587 l 2
 428 631.666666667 441.166666667 666.666666667 467.5 692 c 128
 493.833333333 717.333333333 533.333333333 730 586 730 c 0
 599.333333333 730 609.833333333 729.333333333 617.5 728 c 128
 625.166666667 726.666666667 631.666666667 725 637 723 c 1
 637 661 l 1
 632.333333333 662.333333333 626 663.666666667 618 665 c 128
 610 666.333333333 601.333333333 667 592 667 c 0
 562.666666667 667 541.166666667 659.666666667 527.5 645 c 128
 513.833333333 630.333333333 507 609.333333333 507 582 c 2
 507 0 l 1
 428 0 l 1
740 0 m 1
 740 510 l 1
 818 510 l 1
 818 0 l 1
 740 0 l 1
16 443 m 1
 16 510 l 1
 783 510 l 1
 783 443 l 1
 16 443 l 1
734 627 m 1
 734 720 l 1
 825 720 l 1
 825 627 l 1
 734 627 l 1
EndSplineSet
Validated: 5
Substitution2: "'ss01' Style Set 1 in Latin lookup 22 subtable" f_f_i.ss01
Ligature2: "'liga' Standard Ligatures in Latin lookup 21 subtable" f f i
Substitution2: "'aalt' Access All Alternates in Latin lookup 0 subtable" f_f_i.ss01
LCarets2: 2 299 597
EndChar

StartChar: f_f_l
Encoding: 65618 -1 311
Width: 896
GlyphClass: 3
LigCaretCntFixed: 1
Flags: HW
LayerCount: 2
Fore
SplineSet
428 0 m 1
 428 577 l 2
 428 622.333333333 441.333333333 657.5 468 682.5 c 128
 494.666666667 707.5 535.666666667 720 591 720 c 2
 772 720 l 1
 772 657 l 1
 592 657 l 2
 562.666666667 657 541.166666667 649.666666667 527.5 635 c 128
 513.833333333 620.333333333 507 599.333333333 507 572 c 2
 507 0 l 1
 428 0 l 1
117 0 m 1
 117 577 l 2
 117 622.333333333 130 657.5 156 682.5 c 128
 182 707.5 221.666666667 720 275 720 c 0
 288.333333333 720 298.666666667 719.333333333 306 718 c 128
 313.333333333 716.666666667 319.666666667 715 325 713 c 1
 325 651 l 1
 320.333333333 652.333333333 314 653.666666667 306 655 c 128
 298 656.333333333 289.666666667 657 281 657 c 0
 251.666666667 657 230 649.666666667 216 635 c 128
 202 620.333333333 195 599.333333333 195 572 c 2
 195 0 l 1
 117 0 l 1
16 443 m 1
 16 510 l 1
 619 510 l 1
 619 443 l 1
 16 443 l 1
740 0 m 1
 740 720 l 1
 818 720 l 1
 818 0 l 1
 740 0 l 1
EndSplineSet
Validated: 5
Ligature2: "'liga' Standard Ligatures in Latin lookup 21 subtable" f f l
LCarets2: 2 299 597
EndChar

StartChar: f_i
Encoding: 65619 -1 312
Width: 576
GlyphClass: 3
LigCaretCntFixed: 1
Flags: HW
AnchorPoint: "Anchor-5" 144 0 baselig 0
AnchorPoint: "Anchor-4" 144 740 baselig 0
AnchorPoint: "Anchor-5" 432 0 baselig 1
AnchorPoint: "Anchor-4" 432 740 baselig 1
LayerCount: 2
Fore
SplineSet
117 0 m 1
 117 587 l 2
 117 631.666666667 130 666.666666667 156 692 c 128
 182 717.333333333 221.666666667 730 275 730 c 0
 288.333333333 730 298.666666667 729.333333333 306 728 c 128
 313.333333333 726.666666667 319.666666667 725 325 723 c 1
 325 661 l 1
 320.333333333 662.333333333 314 663.666666667 306 665 c 128
 298 666.333333333 289.666666667 667 281 667 c 0
 251.666666667 667 230 659.666666667 216 645 c 128
 202 630.333333333 195 609.333333333 195 582 c 2
 195 0 l 1
 117 0 l 1
428 0 m 1
 428 510 l 1
 507 510 l 1
 507 0 l 1
 428 0 l 1
16 443 m 1
 16 510 l 1
 471 510 l 1
 471 443 l 1
 16 443 l 1
422 627 m 1
 422 720 l 1
 513 720 l 1
 513 627 l 1
 422 627 l 1
EndSplineSet
Validated: 5
Substitution2: "'ss01' Style Set 1 in Latin lookup 22 subtable" f_i.ss01
Ligature2: "'liga' Standard Ligatures in Latin lookup 21 subtable" f i
Substitution2: "'aalt' Access All Alternates in Latin lookup 0 subtable" f_i.ss01
LCarets2: 1 289
EndChar

StartChar: f_l
Encoding: 65620 -1 313
Width: 585
GlyphClass: 3
LigCaretCntFixed: 1
Flags: HW
AnchorPoint: "Anchor-5" 146 0 baselig 0
AnchorPoint: "Anchor-4" 146 740 baselig 0
AnchorPoint: "Anchor-5" 439 0 baselig 1
AnchorPoint: "Anchor-4" 439 740 baselig 1
LayerCount: 2
Fore
SplineSet
117 0 m 1
 117 577 l 2
 117 622.333333333 130.166666667 657.5 156.5 682.5 c 128
 182.833333333 707.5 223.666666667 720 279 720 c 2
 460 720 l 1
 460 657 l 1
 281 657 l 2
 251.666666667 657 230 649.666666667 216 635 c 128
 202 620.333333333 195 599.333333333 195 572 c 2
 195 0 l 1
 117 0 l 1
16 443 m 1
 16 510 l 1
 308 510 l 1
 308 443 l 1
 16 443 l 1
428 0 m 1
 428 720 l 1
 507 720 l 1
 507 0 l 1
 428 0 l 1
EndSplineSet
Validated: 5
Ligature2: "'liga' Standard Ligatures in Latin lookup 21 subtable" f l
LCarets2: 1 292
EndChar

StartChar: w_w_w.liga
Encoding: 65621 -1 314
Width: 2038
GlyphClass: 3
LigCaretCntFixed: 1
Flags: HW
AnchorPoint: "Anchor-5" 340 0 baselig 0
AnchorPoint: "Anchor-4" 340 510 baselig 0
AnchorPoint: "Anchor-5" 1019 0 baselig 1
AnchorPoint: "Anchor-4" 1019 510 baselig 1
AnchorPoint: "Anchor-5" 1699 0 baselig 2
AnchorPoint: "Anchor-4" 1699 510 baselig 2
LayerCount: 2
Fore
SplineSet
181 0 m 1
 28 510 l 1
 108 510 l 1
 224 76 l 1
 205 76 l 1
 344 510 l 1
 406 510 l 1
 547 76 l 1
 528 76 l 1
 667 510 l 1
 729 510 l 1
 869 76 l 1
 850 76 l 1
 990 510 l 1
 1052 510 l 1
 1192 76 l 1
 1173 76 l 1
 1313 510 l 1
 1375 510 l 1
 1516 76 l 1
 1496 76 l 1
 1636 510 l 1
 1698 510 l 1
 1839 76 l 1
 1819 76 l 1
 1935 510 l 1
 2010 510 l 1
 1858 0 l 1
 1795 0 l 1
 1656 425 l 1
 1676 425 l 1
 1535 0 l 1
 1472 0 l 1
 1333 425 l 1
 1353 425 l 1
 1212 0 l 1
 1149 0 l 1
 1010 425 l 1
 1030 425 l 1
 889 0 l 1
 826 0 l 1
 686 425 l 1
 708 425 l 1
 566 0 l 1
 504 0 l 1
 364 425 l 1
 385 425 l 1
 243 0 l 1
 181 0 l 1
EndSplineSet
Validated: 5
Ligature2: "'liga' Standard Ligatures in Latin lookup 21 subtable" w w w
LCarets2: 2 680 1359
EndChar

StartChar: f_f_i.ss01
Encoding: 65622 -1 315
Width: 897
GlyphClass: 3
LigCaretCntFixed: 1
Flags: HW
AnchorPoint: "Anchor-5" 150 0 baselig 0
AnchorPoint: "Anchor-4" 150 740 baselig 0
AnchorPoint: "Anchor-5" 449 0 baselig 1
AnchorPoint: "Anchor-4" 449 740 baselig 1
AnchorPoint: "Anchor-5" 748 0 baselig 2
AnchorPoint: "Anchor-4" 748 740 baselig 2
LayerCount: 2
Fore
SplineSet
428 0 m 1
 428 587 l 2
 428 631.666666667 441.166666667 666.666666667 467.5 692 c 128
 493.833333333 717.333333333 533.333333333 730 586 730 c 0
 599.333333333 730 609.833333333 729.333333333 617.5 728 c 128
 625.166666667 726.666666667 631.666666667 725 637 723 c 1
 637 661 l 1
 632.333333333 662.333333333 626 663.666666667 618 665 c 128
 610 666.333333333 601.333333333 667 592 667 c 0
 562.666666667 667 541.166666667 659.666666667 527.5 645 c 128
 513.833333333 630.333333333 507 609.333333333 507 582 c 2
 507 0 l 1
 428 0 l 1
117 0 m 1
 117 587 l 2
 117 631.666666667 130 666.666666667 156 692 c 128
 182 717.333333333 221.666666667 730 275 730 c 0
 288.333333333 730 298.666666667 729.333333333 306 728 c 128
 313.333333333 726.666666667 319.666666667 725 325 723 c 1
 325 661 l 1
 320.333333333 662.333333333 314 663.666666667 306 665 c 128
 298 666.333333333 289.666666667 667 281 667 c 0
 251.666666667 667 230 659.666666667 216 645 c 128
 202 630.333333333 195 609.333333333 195 582 c 2
 195 0 l 1
 117 0 l 1
16 443 m 1
 16 510 l 1
 783 510 l 1
 783 443 l 1
 16 443 l 1
740 0 m 1
 740 510 l 1
 818 510 l 1
 818 0 l 1
 740 0 l 1
780 607 m 256
 764.666666667 607 751.666666667 612.333333333 741 623 c 128
 730.333333333 633.666666667 725 647 725 663 c 0
 725 679.666666667 730.333333333 693 741 703 c 128
 751.666666667 713 764.666666667 718 780 718 c 256
 795.333333333 718 808.166666667 713 818.5 703 c 128
 828.833333333 693 834 679.666666667 834 663 c 0
 834 647 828.833333333 633.666666667 818.5 623 c 128
 808.166666667 612.333333333 795.333333333 607 780 607 c 256
EndSplineSet
Validated: 5
LCarets2: 2 299 598
EndChar

StartChar: f_i.ss01
Encoding: 65623 -1 316
Width: 594
GlyphClass: 3
LigCaretCntFixed: 1
Flags: HW
AnchorPoint: "Anchor-5" 149 0 baselig 0
AnchorPoint: "Anchor-4" 149 740 baselig 0
AnchorPoint: "Anchor-5" 446 0 baselig 1
AnchorPoint: "Anchor-4" 446 740 baselig 1
LayerCount: 2
Fore
SplineSet
117 0 m 1
 117 587 l 2
 117 631.666666667 130 666.666666667 156 692 c 128
 182 717.333333333 221.666666667 730 275 730 c 0
 288.333333333 730 298.666666667 729.333333333 306 728 c 128
 313.333333333 726.666666667 319.666666667 725 325 723 c 1
 325 661 l 1
 320.333333333 662.333333333 314 663.666666667 306 665 c 128
 298 666.333333333 289.666666667 667 281 667 c 0
 251.666666667 667 230 659.666666667 216 645 c 128
 202 630.333333333 195 609.333333333 195 582 c 2
 195 0 l 1
 117 0 l 1
428 0 m 1
 428 510 l 1
 507 510 l 1
 507 0 l 1
 428 0 l 1
468 607 m 0
 453.333333333 607 440.5 612.333333333 429.5 623 c 128
 418.5 633.666666667 413 647 413 663 c 0
 413 679.666666667 418.5 693 429.5 703 c 128
 440.5 713 453.333333333 718 468 718 c 0
 483.333333333 718 496.333333333 713 507 703 c 128
 517.666666667 693 523 679.666666667 523 663 c 0
 523 647 517.666666667 633.666666667 507 623 c 128
 496.333333333 612.333333333 483.333333333 607 468 607 c 0
16 443 m 1
 16 510 l 1
 471 510 l 1
 471 443 l 1
 16 443 l 1
EndSplineSet
Validated: 5
LCarets2: 1 297
EndChar

StartChar: ordfeminine
Encoding: 170 170 317
Width: 360
Flags: HW
LayerCount: 2
Fore
SplineSet
239 418 m 1
 237 425.333333333 235.666666667 433.833333333 235 443.5 c 128
 234.333333333 453.166666667 234 464 234 476 c 1
 231 476 l 1
 231 624 l 2
 231 642.666666667 226.5 656.666666667 217.5 666 c 128
 208.5 675.333333333 194.666666667 680 176 680 c 0
 158 680 143.333333333 675.833333333 132 667.5 c 128
 120.666666667 659.166666667 114.333333333 648.333333333 113 635 c 1
 54 635 l 1
 56.6666666667 664.333333333 69 687.5 91 704.5 c 128
 113 721.5 142 730 178 730 c 0
 215.333333333 730 243.666666667 720.833333333 263 702.5 c 128
 282.333333333 684.166666667 292 657.666666667 292 623 c 2
 292 476 l 2
 292 465.333333333 292.5 455.333333333 293.5 446 c 128
 294.5 436.666666667 296 427.333333333 298 418 c 1
 239 418 l 1
139 412 m 0
 110.333333333 412 87.5 419.666666667 70.5 435 c 128
 53.5 450.333333333 45 471 45 497 c 0
 45 522.333333333 53.5 543.166666667 70.5 559.5 c 128
 87.5 575.833333333 113.666666667 587.333333333 149 594 c 2
 243 613 l 1
 243 567 l 1
 160 551 l 2
 143.333333333 547.666666667 130.166666667 542.5 120.5 535.5 c 128
 110.833333333 528.5 106 517.666666667 106 503 c 0
 106 489.666666667 110.333333333 479.5 119 472.5 c 128
 127.666666667 465.5 140 462 156 462 c 0
 177.333333333 462 195.166666667 467.833333333 209.5 479.5 c 128
 223.833333333 491.166666667 231 505.333333333 231 522 c 1
 238 477 l 1
 230.666666667 454.333333333 218 437.833333333 200 427.5 c 128
 182 417.166666667 161.666666667 412 139 412 c 0
EndSplineSet
Validated: 5
EndChar

StartChar: ordmasculine
Encoding: 186 186 318
Width: 401
Flags: HW
LayerCount: 2
Fore
SplineSet
200 412 m 0
 170 412 143.5 419 120.5 433 c 128
 97.5 447 79.8333333333 466 67.5 490 c 128
 55.1666666667 514 49 541.333333333 49 572 c 0
 49 618.666666667 62.8333333333 656.666666667 90.5 686 c 128
 118.166666667 715.333333333 154.666666667 730 200 730 c 0
 246 730 282.833333333 715.333333333 310.5 686 c 128
 338.166666667 656.666666667 352 618.666666667 352 572 c 0
 352 526 338.166666667 487.833333333 310.5 457.5 c 128
 282.833333333 427.166666667 246 412 200 412 c 0
200 464 m 0
 227.333333333 464 249 474 265 494 c 128
 281 514 289 540.333333333 289 573 c 0
 289 605 281 630.5 265 649.5 c 128
 249 668.5 227.333333333 678 200 678 c 0
 174 678 152.833333333 668.5 136.5 649.5 c 128
 120.166666667 630.5 112 605 112 573 c 0
 112 540.333333333 120.166666667 514 136.5 494 c 128
 152.833333333 474 174 464 200 464 c 0
EndSplineSet
Validated: 1
EndChar

StartChar: zero
Encoding: 48 48 319
Width: 640
Flags: HW
LayerCount: 2
Fore
SplineSet
320 -10 m 0
 266 -10 218.666666667 5.5 178 36.5 c 128
 137.333333333 67.5 105.666666667 111.166666667 83 167.5 c 128
 60.3333333333 223.833333333 49 289 49 363 c 256
 49 437 60.1666666667 501.5 82.5 556.5 c 128
 104.833333333 611.5 136.5 654.166666667 177.5 684.5 c 128
 218.5 714.833333333 266 730 320 730 c 0
 374.666666667 730 422.166666667 714.833333333 462.5 684.5 c 128
 502.833333333 654.166666667 534.5 611.5 557.5 556.5 c 128
 580.5 501.5 592 437 592 363 c 0
 592 288.333333333 580.5 223 557.5 167 c 128
 534.5 111 502.833333333 67.5 462.5 36.5 c 128
 422.166666667 5.5 374.666666667 -10 320 -10 c 0
320 61 m 256
 358.666666667 61 391.666666667 73 419 97 c 128
 446.333333333 121 467.333333333 155.5 482 200.5 c 128
 496.666666667 245.5 504 300 504 364 c 0
 504 427.333333333 496.833333333 481 482.5 525 c 128
 468.166666667 569 447.333333333 602.333333333 420 625 c 128
 392.666666667 647.666666667 359.333333333 659 320 659 c 4
 281.333333333 659 248.333333333 647.666666667 221 625 c 128
 193.666666667 602.333333333 172.833333333 569 158.5 525 c 128
 144.166666667 481 137 427.333333333 137 364 c 0
 137 300 144.333333333 245.333333333 159 200 c 128
 173.666666667 154.666666667 194.5 120.166666667 221.5 96.5 c 128
 248.5 72.8333333333 281.333333333 61 320 61 c 256
EndSplineSet
Validated: 1
Substitution2: "'tnum' Tabular Numbers in Latin lookup 19 subtable" zero.tf
Substitution2: "'aalt' Access All Alternates in Latin lookup 0 subtable" zero.tf
EndChar

StartChar: one
Encoding: 49 49 320
Width: 379
Flags: HW
LayerCount: 2
Fore
SplineSet
217 0 m 1
 217 639 l 1
 237 633 l 1
 237 633 237 633 65 515 c 5
 65 603 l 5
 237 720 l 1
 295 720 l 1
 295 0 l 1
 217 0 l 1
EndSplineSet
Validated: 5
Substitution2: "'tnum' Tabular Numbers in Latin lookup 19 subtable" one.tf
Substitution2: "'aalt' Access All Alternates in Latin lookup 0 subtable" one.tf
EndChar

StartChar: two
Encoding: 50 50 321
Width: 527
Flags: HW
LayerCount: 2
Fore
SplineSet
41 0 m 1
 41 69 l 1
 109.666666667 128.333333333 167 180.5 213 225.5 c 128
 259 270.5 296 310.833333333 324 346.5 c 128
 352 382.166666667 372 414.666666667 384 444 c 128
 396 473.333333333 402 502 402 530 c 0
 402 570.666666667 390.333333333 602.333333333 367 625 c 128
 343.666666667 647.666666667 311 659 269 659 c 0
 225.666666667 659 191 646.333333333 165 621 c 128
 139 595.666666667 123.333333333 559.333333333 118 512 c 1
 34 512 l 1
 40 577.333333333 64.1666666667 630 106.5 670 c 128
 148.833333333 710 205 730 275 730 c 0
 339.666666667 730 391.333333333 712.333333333 430 677 c 128
 468.666666667 641.666666667 488 593 488 531 c 0
 488 497 481.5 462.833333333 468.5 428.5 c 128
 455.5 394.166666667 434.666666667 358.166666667 406 320.5 c 128
 377.333333333 282.833333333 339.833333333 241.333333333 293.5 196 c 128
 247.166666667 150.666666667 190.666666667 99.6666666667 124 43 c 1
 105 71 l 1
 499 71 l 1
 499 0 l 1
 41 0 l 1
EndSplineSet
Validated: 5
Substitution2: "'ss10' Style Set 10 in Latin lookup 31 subtable" two.ss10
Substitution2: "'tnum' Tabular Numbers in Latin lookup 19 subtable" two.tf
AlternateSubs2: "'aalt' Access All Alternates in Latin lookup 1 subtable" two.ss10 two.tf
EndChar

StartChar: three
Encoding: 51 51 322
Width: 554
Flags: HW
LayerCount: 2
Fore
SplineSet
285 -10 m 0
 238.333333333 -10 197.5 -1.16666666667 162.5 16.5 c 128
 127.5 34.1666666667 99.3333333333 60 78 94 c 128
 56.6666666667 128 43.6666666667 169 39 217 c 1
 123 217 l 1
 129 166.333333333 146 127.666666667 174 101 c 128
 202 74.3333333333 239.333333333 61 286 61 c 0
 329.333333333 61 363.5 73 388.5 97 c 128
 413.5 121 426 154 426 196 c 0
 426 239.333333333 413.666666667 274.666666667 389 302 c 128
 364.333333333 329.333333333 331.333333333 343 290 343 c 2
 204 343 l 1
 204 411 l 1
 287 411 l 2
 325 411 355.166666667 422.333333333 377.5 445 c 128
 399.833333333 467.666666667 411 498 411 536 c 0
 411 575.333333333 399.333333333 605.666666667 376 627 c 128
 352.666666667 648.333333333 321.333333333 659 282 659 c 256
 242.666666667 659 209.166666667 647.166666667 181.5 623.5 c 128
 153.833333333 599.833333333 137.666666667 565.666666667 133 521 c 1
 49 521 l 1
 52.3333333333 563.666666667 64.1666666667 600.5 84.5 631.5 c 128
 104.833333333 662.5 132.333333333 686.666666667 167 704 c 128
 201.666666667 721.333333333 240.666666667 730 284 730 c 0
 326 730 363 722.333333333 395 707 c 128
 427 691.666666667 452 670 470 642 c 128
 488 614 497 580.666666667 497 542 c 0
 497 508 489.5 478 474.5 452 c 128
 459.5 426 439 405.666666667 413 391 c 128
 387 376.333333333 357 369 323 369 c 1
 317 390 l 1
 357 390 391.666666667 381.5 421 364.5 c 128
 450.333333333 347.5 473 324.333333333 489 295 c 128
 505 265.666666667 513 231.666666667 513 193 c 0
 513 153 503.333333333 117.666666667 484 87 c 128
 464.666666667 56.3333333333 438 32.5 404 15.5 c 128
 370 -1.5 330.333333333 -10 285 -10 c 0
EndSplineSet
Validated: 5
Substitution2: "'tnum' Tabular Numbers in Latin lookup 19 subtable" three.tf
Substitution2: "'aalt' Access All Alternates in Latin lookup 0 subtable" three.tf
EndChar

StartChar: four
Encoding: 52 52 323
Width: 577
Flags: HW
LayerCount: 2
Fore
SplineSet
374 0 m 1
 374 189 l 1
 376 209 l 1
 376 616 l 1
 400 616 l 1
 113 204 l 1
 87 236 l 1
 548 236 l 1
 548 165 l 1
 32 165 l 1
 32 226 l 1
 378 720 l 1
 458 720 l 1
 458 0 l 1
 374 0 l 1
EndSplineSet
Validated: 5
Substitution2: "'tnum' Tabular Numbers in Latin lookup 19 subtable" four.tf
Substitution2: "'aalt' Access All Alternates in Latin lookup 0 subtable" four.tf
EndChar

StartChar: five
Encoding: 53 53 324
Width: 555
Flags: HW
LayerCount: 2
Fore
SplineSet
282 -10 m 0
 212.666666667 -10 157.5 9.16666666667 116.5 47.5 c 128
 75.5 85.8333333333 51 136 43 198 c 1
 128 198 l 1
 136 154 153.5 120.166666667 180.5 96.5 c 128
 207.5 72.8333333333 240.666666667 61 280 61 c 0
 321.333333333 61 356.333333333 74.3333333333 385 101 c 128
 413.666666667 127.666666667 428 170.333333333 428 229 c 256
 428 287.666666667 413.833333333 331.333333333 385.5 360 c 128
 357.166666667 388.666666667 320.666666667 403 276 403 c 0
 244.666666667 403 217.333333333 396.333333333 194 383 c 128
 170.666666667 369.666666667 155.333333333 354 148 336 c 1
 77 336 l 1
 108 720 l 1
 476 720 l 1
 476 650 l 1
 157 650 l 1
 183 678 l 1
 162 392 l 1
 143 397 l 1
 155 416.333333333 173.666666667 433 199 447 c 128
 224.333333333 461 255.666666667 468 293 468 c 0
 336.333333333 468 374.5 458.5 407.5 439.5 c 128
 440.5 420.5 466.5 393.333333333 485.5 358 c 128
 504.5 322.666666667 514 279.666666667 514 229 c 256
 514 178.333333333 504.5 135.333333333 485.5 100 c 128
 466.5 64.6666666667 439.666666667 37.5 405 18.5 c 128
 370.333333333 -0.5 329.333333333 -10 282 -10 c 0
EndSplineSet
Validated: 5
Substitution2: "'tnum' Tabular Numbers in Latin lookup 19 subtable" five.tf
Substitution2: "'aalt' Access All Alternates in Latin lookup 0 subtable" five.tf
EndChar

StartChar: six
Encoding: 54 54 325
Width: 578
Flags: HW
LayerCount: 2
Fore
SplineSet
303 -10 m 0
 221 -10 158.166666667 20.6666666667 114.5 82 c 128
 70.8333333333 143.333333333 49 232.666666667 49 350 c 0
 49 431.333333333 59.3333333333 500.333333333 80 557 c 128
 100.666666667 613.666666667 130.666666667 656.666666667 170 686 c 128
 209.333333333 715.333333333 256.333333333 730 311 730 c 0
 371 730 420.166666667 714.166666667 458.5 682.5 c 128
 496.833333333 650.833333333 519.666666667 604 527 542 c 5
 442 542 l 5
 436.666666667 577.333333333 422.333333333 605.666666667 399 627 c 128
 375.666666667 648.333333333 345.666666667 659 309 659 c 0
 251.666666667 659 208.666666667 633.833333333 180 583.5 c 128
 151.333333333 533.166666667 137 456.666666667 137 354 c 2
 137 293 l 1
 115 301 l 1
 121 331.666666667 133.833333333 358.333333333 153.5 381 c 128
 173.166666667 403.666666667 197.5 421.333333333 226.5 434 c 128
 255.5 446.666666667 287 453 321 453 c 0
 365 453 403.333333333 443.166666667 436 423.5 c 128
 468.666666667 403.833333333 494.166666667 376.666666667 512.5 342 c 128
 530.833333333 307.333333333 540 266.666666667 540 220 c 0
 540 174 530 133.666666667 510 99 c 128
 490 64.3333333333 462.333333333 37.5 427 18.5 c 128
 391.666666667 -0.5 350.333333333 -10 303 -10 c 0
306 61 m 0
 350 61 385.333333333 75.3333333333 412 104 c 128
 438.666666667 132.666666667 452 171.666666667 452 221 c 0
 452 271.666666667 439 311.5 413 340.5 c 128
 387 369.5 350.666666667 384 304 384 c 0
 258.666666667 384 221.333333333 370.333333333 192 343 c 128
 162.666666667 315.666666667 148 277.666666667 148 229 c 0
 148 195.666666667 154.833333333 166.333333333 168.5 141 c 128
 182.166666667 115.666666667 201 96 225 82 c 128
 249 68 276 61 306 61 c 0
EndSplineSet
Validated: 5
Substitution2: "'tnum' Tabular Numbers in Latin lookup 19 subtable" six.tf
Substitution2: "'aalt' Access All Alternates in Latin lookup 0 subtable" six.tf
EndChar

StartChar: seven
Encoding: 55 55 326
Width: 513
Flags: HW
LayerCount: 2
Fore
SplineSet
158 0 m 1
 158 0 158 0 419 679 c 1
 431 650 l 1
 66 650 l 1
 66 720 l 1
 492 720 l 1
 492 662 l 1
 250 0 l 1
 158 0 l 1
EndSplineSet
Validated: 5
Substitution2: "'tnum' Tabular Numbers in Latin lookup 19 subtable" seven.tf
Substitution2: "'aalt' Access All Alternates in Latin lookup 0 subtable" seven.tf
EndChar

StartChar: eight
Encoding: 56 56 327
Width: 562
Flags: HW
LayerCount: 2
Fore
SplineSet
281 -10 m 256
 232.333333333 -10 190.166666667 -1 154.5 17 c 128
 118.833333333 35 91.3333333333 59.5 72 90.5 c 128
 52.6666666667 121.5 43 156.666666667 43 196 c 0
 43 232 50.6666666667 264.666666667 66 294 c 128
 81.3333333333 323.333333333 102.333333333 346.666666667 129 364 c 128
 155.666666667 381.333333333 185 390 217 390 c 1
 219 369 l 1
 189 369 161.833333333 376.5 137.5 391.5 c 128
 113.166666667 406.5 94.1666666667 427.166666667 80.5 453.5 c 128
 66.8333333333 479.833333333 60 508.666666667 60 540 c 0
 60 577.333333333 69.3333333333 610.333333333 88 639 c 128
 106.666666667 667.666666667 132.666666667 690 166 706 c 128
 199.333333333 722 238 730 282 730 c 256
 326 730 364.333333333 722 397 706 c 128
 429.666666667 690 455.333333333 667.666666667 474 639 c 128
 492.666666667 610.333333333 502 577.666666667 502 541 c 0
 502 509 495.166666667 480 481.5 454 c 128
 467.833333333 428 449 407.333333333 425 392 c 128
 401 376.666666667 373.333333333 369 342 369 c 1
 345 390 l 1
 377.666666667 390 407.166666667 381.333333333 433.5 364 c 128
 459.833333333 346.666666667 480.833333333 323.333333333 496.5 294 c 128
 512.166666667 264.666666667 520 232 520 196 c 0
 520 156.666666667 510.333333333 121.5 491 90.5 c 128
 471.666666667 59.5 444 35 408 17 c 128
 372 -1 329.666666667 -10 281 -10 c 256
281 61 m 256
 327.666666667 61 364.666666667 73.8333333333 392 99.5 c 128
 419.333333333 125.166666667 433 159.666666667 433 203 c 0
 433 245.666666667 419.5 279.666666667 392.5 305 c 128
 365.5 330.333333333 328.333333333 343 281 343 c 256
 233.666666667 343 196.5 330.333333333 169.5 305 c 128
 142.5 279.666666667 129 245.666666667 129 203 c 0
 129 159.666666667 142.666666667 125.166666667 170 99.5 c 128
 197.333333333 73.8333333333 234.333333333 61 281 61 c 256
281 411 m 0
 323 411 356.166666667 422.166666667 380.5 444.5 c 128
 404.833333333 466.833333333 417 496.333333333 417 533 c 0
 417 571.666666667 404.5 602.333333333 379.5 625 c 128
 354.5 647.666666667 321.666666667 659 281 659 c 256
 240.333333333 659 207.666666667 647.666666667 183 625 c 128
 158.333333333 602.333333333 146 571.666666667 146 533 c 0
 146 496.333333333 158.166666667 466.833333333 182.5 444.5 c 128
 206.833333333 422.166666667 239.666666667 411 281 411 c 0
EndSplineSet
Validated: 5
Substitution2: "'tnum' Tabular Numbers in Latin lookup 19 subtable" eight.tf
Substitution2: "'aalt' Access All Alternates in Latin lookup 0 subtable" eight.tf
EndChar

StartChar: nine
Encoding: 57 57 328
Width: 588
Flags: HW
LayerCount: 2
Fore
SplineSet
278 -10 m 0
 237.333333333 -10 200.833333333 -1.83333333333 168.5 14.5 c 128
 136.166666667 30.8333333333 110 53.1666666667 90 81.5 c 128
 70 109.833333333 57.3333333333 148 52 196 c 1
 138 196 l 1
 143.333333333 150.666666667 158.666666667 116.833333333 184 94.5 c 128
 209.333333333 72.1666666667 241.333333333 61 280 61 c 0
 308.666666667 61 333.166666667 66.8333333333 353.5 78.5 c 128
 373.833333333 90.1666666667 390.666666667 108.333333333 404 133 c 128
 417.333333333 157.666666667 427.166666667 189.333333333 433.5 228 c 128
 439.833333333 266.666666667 443 312.666666667 443 366 c 2
 443 427 l 1
 464 426 l 1
 458.666666667 396 446.166666667 369.5 426.5 346.5 c 128
 406.833333333 323.5 382.333333333 305.666666667 353 293 c 128
 323.666666667 280.333333333 292 274 258 274 c 0
 215.333333333 274 177.833333333 283.666666667 145.5 303 c 128
 113.166666667 322.333333333 87.8333333333 349.333333333 69.5 384 c 128
 51.1666666667 418.666666667 42 458 42 502 c 0
 42 548.666666667 52 588.833333333 72 622.5 c 128
 92 656.166666667 119.833333333 682.5 155.5 701.5 c 128
 191.166666667 720.5 232.333333333 730 279 730 c 0
 361.666666667 730 424.333333333 699.166666667 467 637.5 c 128
 509.666666667 575.833333333 531 485 531 365 c 0
 531 283.666666667 521.166666667 215.166666667 501.5 159.5 c 128
 481.833333333 103.833333333 453.333333333 61.6666666667 416 33 c 128
 378.666666667 4.33333333333 332.666666667 -10 278 -10 c 0
278 343 m 0
 322.666666667 343 359.333333333 355.833333333 388 381.5 c 128
 416.666666667 407.166666667 431 444.666666667 431 494 c 0
 431 526.666666667 424.166666667 555.333333333 410.5 580 c 128
 396.833333333 604.666666667 378.333333333 624 355 638 c 128
 331.666666667 652 304.666666667 659 274 659 c 0
 230.666666667 659 195.833333333 645 169.5 617 c 128
 143.166666667 589 130 550 130 500 c 0
 130 452 143 413.833333333 169 385.5 c 128
 195 357.166666667 231.333333333 343 278 343 c 0
EndSplineSet
Validated: 5
Substitution2: "'tnum' Tabular Numbers in Latin lookup 19 subtable" nine.tf
Substitution2: "'aalt' Access All Alternates in Latin lookup 0 subtable" nine.tf
EndChar

StartChar: two.ss10
Encoding: 65624 -1 329
Width: 527
Flags: HW
LayerCount: 2
Fore
SplineSet
41 0 m 1
 41 51 l 2
 41 93 49.6666666667 130 67 162 c 128
 84.3333333333 194 106.666666667 222.5 134 247.5 c 128
 161.333333333 272.5 190.333333333 295.666666667 221 317 c 128
 251.666666667 338.333333333 280.833333333 359.666666667 308.5 381 c 128
 336.166666667 402.333333333 358.5 425.333333333 375.5 450 c 128
 392.5 474.666666667 401 502.333333333 401 533 c 0
 401 572.333333333 389 603.166666667 365 625.5 c 128
 341 647.833333333 309.666666667 659 271 659 c 0
 229.666666667 659 195.166666667 646 167.5 620 c 128
 139.833333333 594 123.333333333 558 118 512 c 1
 34 512 l 1
 40.6666666667 579.333333333 65.6666666667 632.5 109 671.5 c 128
 152.333333333 710.5 208 730 276 730 c 0
 340 730 391.333333333 712.666666667 430 678 c 128
 468.666666667 643.333333333 488 595 488 533 c 0
 488 498.333333333 481.166666667 467.166666667 467.5 439.5 c 128
 453.833333333 411.833333333 435.666666667 386.833333333 413 364.5 c 128
 390.333333333 342.166666667 365.666666667 321.5 339 302.5 c 128
 312.333333333 283.5 285.666666667 264.666666667 259 246 c 128
 232.333333333 227.333333333 208.333333333 208.166666667 187 188.5 c 128
 165.666666667 168.833333333 148.833333333 147.166666667 136.5 123.5 c 128
 124.166666667 99.8333333333 119 73.3333333333 121 44 c 1
 105 71 l 1
 499 71 l 1
 499 0 l 1
 41 0 l 1
EndSplineSet
Validated: 37
EndChar

StartChar: zero.tf
Encoding: 65625 -1 330
Width: 588
Flags: HW
LayerCount: 2
Fore
SplineSet
294 -10 m 256
 242.666666667 -10 197.333333333 5.66666666667 158 37 c 128
 118.666666667 68.3333333333 88.1666666667 112 66.5 168 c 128
 44.8333333333 224 34 289 34 363 c 256
 34 437 44.8333333333 501.5 66.5 556.5 c 128
 88.1666666667 611.5 118.666666667 654.166666667 158 684.5 c 128
 197.333333333 714.833333333 242.666666667 730 294 730 c 0
 346 730 391.333333333 714.833333333 430 684.5 c 128
 468.666666667 654.166666667 499 611.5 521 556.5 c 128
 543 501.5 554 437 554 363 c 256
 554 289 543 223.833333333 521 167.5 c 128
 499 111.166666667 468.5 67.5 429.5 36.5 c 128
 390.5 5.5 345.333333333 -10 294 -10 c 256
294 61 m 0
 329.333333333 61 359.666666667 73 385 97 c 128
 410.333333333 121 429.666666667 155.666666667 443 201 c 128
 456.333333333 246.333333333 463 300.666666667 463 364 c 256
 463 427.333333333 456.5 480.833333333 443.5 524.5 c 128
 430.5 568.166666667 411.333333333 601.5 386 624.5 c 128
 360.666666667 647.5 330 659 294 659 c 256
 258 659 227.333333333 647.666666667 202 625 c 128
 176.666666667 602.333333333 157.333333333 569 144 525 c 128
 130.666666667 481 124 427.333333333 124 364 c 0
 124 300 130.833333333 245.333333333 144.5 200 c 128
 158.166666667 154.666666667 177.5 120.166666667 202.5 96.5 c 128
 227.5 72.8333333333 258 61 294 61 c 0
EndSplineSet
Validated: 1
Substitution2: "'pnum' Proportional Numbers in Latin lookup 18 subtable" zero
Substitution2: "'aalt' Access All Alternates in Latin lookup 0 subtable" zero
EndChar

StartChar: one.tf
Encoding: 65626 -1 331
Width: 588
Flags: HW
LayerCount: 2
Fore
SplineSet
299 11 m 1
 299 639 l 1
 317 633 l 1
 309.666666667 617 296.333333333 600.5 277 583.5 c 128
 257.666666667 566.5 234.333333333 551 207 537 c 128
 179.666666667 523 150 513.333333333 118 508 c 1
 118 585 l 1
 148.666666667 591 177.166666667 600.5 203.5 613.5 c 128
 229.833333333 626.5 253 642.333333333 273 661 c 128
 293 679.666666667 308 699.333333333 318 720 c 1
 380 720 l 1
 380 11 l 1
 299 11 l 1
110 0 m 1
 110 71 l 1
 543 71 l 1
 543 0 l 1
 110 0 l 1
EndSplineSet
Validated: 5
Substitution2: "'pnum' Proportional Numbers in Latin lookup 18 subtable" one
Substitution2: "'aalt' Access All Alternates in Latin lookup 0 subtable" one
EndChar

StartChar: two.tf
Encoding: 65627 -1 332
Width: 588
Flags: HW
LayerCount: 2
Fore
SplineSet
78 0 m 1
 78 69 l 1
 144 128.333333333 198.666666667 180.5 242 225.5 c 128
 285.333333333 270.5 320 310.833333333 346 346.5 c 128
 372 382.166666667 390.5 414.666666667 401.5 444 c 128
 412.5 473.333333333 418 502 418 530 c 0
 418 570.666666667 407.833333333 602.333333333 387.5 625 c 128
 367.166666667 647.666666667 337 659 297 659 c 0
 255.666666667 659 223.333333333 646.333333333 200 621 c 128
 176.666666667 595.666666667 162.666666667 559.333333333 158 512 c 1
 72 512 l 1
 76.6666666667 577.333333333 99.5 630 140.5 670 c 128
 181.5 710 235.666666667 730 303 730 c 0
 365.666666667 730 415.333333333 712.333333333 452 677 c 128
 488.666666667 641.666666667 507 593 507 531 c 0
 507 497 500.666666667 462.833333333 488 428.5 c 128
 475.333333333 394.166666667 455.333333333 358.166666667 428 320.5 c 128
 400.666666667 282.833333333 364.833333333 241.333333333 320.5 196 c 128
 276.166666667 150.666666667 222 99.6666666667 158 43 c 1
 139 71 l 1
 519 71 l 1
 519 0 l 1
 78 0 l 1
EndSplineSet
Validated: 5
Substitution2: "'ss10' Style Set 10 in Latin lookup 31 subtable" two.tf.ss10
Substitution2: "'pnum' Proportional Numbers in Latin lookup 18 subtable" two
AlternateSubs2: "'aalt' Access All Alternates in Latin lookup 1 subtable" two two.tf.ss10
EndChar

StartChar: three.tf
Encoding: 65628 -1 333
Width: 588
Flags: HW
LayerCount: 2
Fore
SplineSet
303 -10 m 0
 257.666666667 -10 218.166666667 -1.16666666667 184.5 16.5 c 128
 150.833333333 34.1666666667 123.833333333 60 103.5 94 c 128
 83.1666666667 128 70.6666666667 169 66 217 c 1
 153 217 l 1
 158.333333333 167.666666667 173.666666667 129.333333333 199 102 c 128
 224.333333333 74.6666666667 258.666666667 61 302 61 c 0
 342 61 373.666666667 73 397 97 c 128
 420.333333333 121 432 154 432 196 c 0
 432 239.333333333 420.333333333 274.666666667 397 302 c 128
 373.666666667 329.333333333 342.333333333 343 303 343 c 2
 225 343 l 1
 225 411 l 1
 300 411 l 2
 336.666666667 411 365.5 422.333333333 386.5 445 c 128
 407.5 467.666666667 418 498 418 536 c 0
 418 575.333333333 407.166666667 605.666666667 385.5 627 c 128
 363.833333333 648.333333333 335 659 299 659 c 256
 263 659 232.166666667 647.166666667 206.5 623.5 c 128
 180.833333333 599.833333333 166 565.666666667 162 521 c 1
 76 521 l 1
 79.3333333333 563.666666667 90.8333333333 600.5 110.5 631.5 c 128
 130.166666667 662.5 156.333333333 686.666666667 189 704 c 128
 221.666666667 721.333333333 259.333333333 730 302 730 c 0
 342 730 377.333333333 722.333333333 408 707 c 128
 438.666666667 691.666666667 462.666666667 670 480 642 c 128
 497.333333333 614 506 580.666666667 506 542 c 0
 506 508 499 478 485 452 c 128
 471 426 451.666666667 405.666666667 427 391 c 128
 402.333333333 376.333333333 374.333333333 369 343 369 c 1
 338 390 l 1
 375.333333333 390 407.666666667 381.5 435 364.5 c 128
 462.333333333 347.5 483.5 324.333333333 498.5 295 c 128
 513.5 265.666666667 521 231.666666667 521 193 c 0
 521 153 511.833333333 117.666666667 493.5 87 c 128
 475.166666667 56.3333333333 449.5 32.5 416.5 15.5 c 128
 383.5 -1.5 345.666666667 -10 303 -10 c 0
EndSplineSet
Validated: 5
Substitution2: "'pnum' Proportional Numbers in Latin lookup 18 subtable" three
Substitution2: "'aalt' Access All Alternates in Latin lookup 0 subtable" three
EndChar

StartChar: four.tf
Encoding: 65629 -1 334
Width: 588
Flags: HW
LayerCount: 2
Fore
SplineSet
371 0 m 1
 371 189 l 1
 373 209 l 1
 373 616 l 1
 401 616 l 1
 128 204 l 1
 99 236 l 1
 541 236 l 1
 541 165 l 1
 47 165 l 1
 47 226 l 1
 375 720 l 1
 457 720 l 1
 457 0 l 1
 371 0 l 1
EndSplineSet
Validated: 5
Substitution2: "'pnum' Proportional Numbers in Latin lookup 18 subtable" four
Substitution2: "'aalt' Access All Alternates in Latin lookup 0 subtable" four
EndChar

StartChar: five.tf
Encoding: 65630 -1 335
Width: 588
Flags: HW
LayerCount: 2
Fore
SplineSet
299 -10 m 0
 233 -10 180.333333333 9.16666666667 141 47.5 c 128
 101.666666667 85.8333333333 78 136 70 198 c 1
 157 198 l 1
 164.333333333 153.333333333 180.666666667 119.333333333 206 96 c 128
 231.333333333 72.6666666667 261.666666667 61 297 61 c 0
 335.666666667 61 368 74.3333333333 394 101 c 128
 420 127.666666667 433 170.333333333 433 229 c 256
 433 287.666666667 420.166666667 331.333333333 394.5 360 c 128
 368.833333333 388.666666667 335.666666667 403 295 403 c 0
 266.333333333 403 241.333333333 396.333333333 220 383 c 128
 198.666666667 369.666666667 184.333333333 354 177 336 c 1
 103 336 l 1
 133 720 l 1
 486 720 l 1
 486 650 l 1
 179 650 l 1
 210 678 l 1
 190 392 l 1
 169 397 l 1
 180.333333333 416.333333333 198.166666667 433 222.5 447 c 128
 246.833333333 461 276.666666667 468 312 468 c 0
 352.666666667 468 388.833333333 458.5 420.5 439.5 c 128
 452.166666667 420.5 477.166666667 393.333333333 495.5 358 c 128
 513.833333333 322.666666667 523 279.666666667 523 229 c 256
 523 178.333333333 513.666666667 135.333333333 495 100 c 128
 476.333333333 64.6666666667 450.333333333 37.5 417 18.5 c 128
 383.666666667 -0.5 344.333333333 -10 299 -10 c 0
EndSplineSet
Validated: 5
Substitution2: "'pnum' Proportional Numbers in Latin lookup 18 subtable" five
Substitution2: "'aalt' Access All Alternates in Latin lookup 0 subtable" five
EndChar

StartChar: six.tf
Encoding: 65631 -1 336
Width: 588
Flags: HW
LayerCount: 2
Fore
SplineSet
307 -10 m 0
 229 -10 168.833333333 20.8333333333 126.5 82.5 c 128
 84.1666666667 144.166666667 63 233.333333333 63 350 c 0
 63 431.333333333 73 500.166666667 93 556.5 c 128
 113 612.833333333 141.833333333 655.833333333 179.5 685.5 c 128
 217.166666667 715.166666667 262.333333333 730 315 730 c 0
 372.333333333 730 419.5 712.5 456.5 677.5 c 128
 493.5 642.5 515.666666667 594 523 532 c 1
 436 532 l 1
 431.333333333 573.333333333 418 604.833333333 396 626.5 c 128
 374 648.166666667 346.333333333 659 313 659 c 0
 260.333333333 659 220.5 633.833333333 193.5 583.5 c 128
 166.5 533.166666667 153 456.666666667 153 354 c 2
 153 293 l 1
 131 301 l 1
 137 331.666666667 149.333333333 358.333333333 168 381 c 128
 186.666666667 403.666666667 209.666666667 421.333333333 237 434 c 128
 264.333333333 446.666666667 294 453 326 453 c 0
 368 453 404.5 443.166666667 435.5 423.5 c 128
 466.5 403.833333333 490.833333333 376.666666667 508.5 342 c 128
 526.166666667 307.333333333 535 266.666666667 535 220 c 0
 535 174 525.333333333 133.666666667 506 99 c 128
 486.666666667 64.3333333333 460 37.5 426 18.5 c 128
 392 -0.5 352.333333333 -10 307 -10 c 0
309 61 m 0
 349 61 381.5 75.3333333333 406.5 104 c 128
 431.5 132.666666667 444 171.666666667 444 221 c 0
 444 271.666666667 432 311.5 408 340.5 c 128
 384 369.5 350 384 306 384 c 0
 265.333333333 384 231.166666667 370.333333333 203.5 343 c 128
 175.833333333 315.666666667 162 277.666666667 162 229 c 0
 162 195.666666667 168.333333333 166.333333333 181 141 c 128
 193.666666667 115.666666667 211.166666667 96 233.5 82 c 128
 255.833333333 68 281 61 309 61 c 0
EndSplineSet
Validated: 5
Substitution2: "'pnum' Proportional Numbers in Latin lookup 18 subtable" six
Substitution2: "'aalt' Access All Alternates in Latin lookup 0 subtable" six
EndChar

StartChar: seven.tf
Encoding: 65632 -1 337
Width: 588
Flags: HW
LayerCount: 2
Fore
SplineSet
196 0 m 1
 204.666666667 114 228.833333333 226.5 268.5 337.5 c 128
 308.166666667 448.5 367.333333333 562.333333333 446 679 c 1
 453 650 l 1
 69 650 l 1
 69 720 l 1
 519 720 l 1
 519 662 l 1
 447 545.333333333 392.666666667 433.666666667 356 327 c 128
 319.333333333 220.333333333 297.666666667 111.333333333 291 0 c 1
 196 0 l 1
EndSplineSet
Validated: 5
Substitution2: "'pnum' Proportional Numbers in Latin lookup 18 subtable" seven
Substitution2: "'aalt' Access All Alternates in Latin lookup 0 subtable" seven
EndChar

StartChar: eight.tf
Encoding: 65633 -1 338
Width: 588
Flags: HW
LayerCount: 2
Fore
SplineSet
295 -10 m 0
 248.333333333 -10 207.666666667 -1 173 17 c 128
 138.333333333 35 111.666666667 59.5 93 90.5 c 128
 74.3333333333 121.5 65 156.666666667 65 196 c 0
 65 232 72.3333333333 264.666666667 87 294 c 128
 101.666666667 323.333333333 121.666666667 346.666666667 147 364 c 128
 172.333333333 381.333333333 200.666666667 390 232 390 c 1
 235 369 l 1
 205.666666667 369 179.5 376.5 156.5 391.5 c 128
 133.5 406.5 115.333333333 427.166666667 102 453.5 c 128
 88.6666666667 479.833333333 82 508.666666667 82 540 c 0
 82 577.333333333 91 610.333333333 109 639 c 128
 127 667.666666667 152 690 184 706 c 128
 216 722 253.333333333 730 296 730 c 0
 338 730 374.833333333 722 406.5 706 c 128
 438.166666667 690 462.833333333 667.666666667 480.5 639 c 128
 498.166666667 610.333333333 507 577.666666667 507 541 c 0
 507 509 500.5 480 487.5 454 c 128
 474.5 428 456.333333333 407.333333333 433 392 c 128
 409.666666667 376.666666667 383 369 353 369 c 1
 357 390 l 1
 387.666666667 390 415.666666667 381.333333333 441 364 c 128
 466.333333333 346.666666667 486.5 323.333333333 501.5 294 c 128
 516.5 264.666666667 524 232 524 196 c 0
 524 156.666666667 514.5 121.5 495.5 90.5 c 128
 476.5 59.5 449.833333333 35 415.5 17 c 128
 381.166666667 -1 341 -10 295 -10 c 0
295 61 m 0
 337 61 370.666666667 73.8333333333 396 99.5 c 128
 421.333333333 125.166666667 434 159.666666667 434 203 c 0
 434 245.666666667 421.5 279.666666667 396.5 305 c 128
 371.5 330.333333333 337.666666667 343 295 343 c 0
 251.666666667 343 217.333333333 330.333333333 192 305 c 128
 166.666666667 279.666666667 154 245.666666667 154 203 c 0
 154 159.666666667 166.666666667 125.166666667 192 99.5 c 128
 217.333333333 73.8333333333 251.666666667 61 295 61 c 0
295 411 m 0
 333 411 363 422.166666667 385 444.5 c 128
 407 466.833333333 418 496.333333333 418 533 c 0
 418 571.666666667 406.5 602.333333333 383.5 625 c 128
 360.5 647.666666667 331 659 295 659 c 0
 257.666666667 659 227.666666667 647.666666667 205 625 c 128
 182.333333333 602.333333333 171 571.666666667 171 533 c 0
 171 496.333333333 182.333333333 466.833333333 205 444.5 c 128
 227.666666667 422.166666667 257.666666667 411 295 411 c 0
EndSplineSet
Validated: 5
Substitution2: "'pnum' Proportional Numbers in Latin lookup 18 subtable" eight
Substitution2: "'aalt' Access All Alternates in Latin lookup 0 subtable" eight
EndChar

StartChar: nine.tf
Encoding: 65634 -1 339
Width: 588
Flags: HW
LayerCount: 2
Fore
SplineSet
279 -10 m 0
 240.333333333 -10 205.333333333 -1.83333333333 174 14.5 c 128
 142.666666667 30.8333333333 117.333333333 55.1666666667 98 87.5 c 128
 78.6666666667 119.833333333 66.6666666667 160 62 208 c 1
 150 208 l 1
 155.333333333 156 169.833333333 118.5 193.5 95.5 c 128
 217.166666667 72.5 247 61 283 61 c 0
 309.666666667 61 332.333333333 67 351 79 c 128
 369.666666667 91 385 109.333333333 397 134 c 128
 409 158.666666667 417.833333333 190.333333333 423.5 229 c 128
 429.166666667 267.666666667 432 313.333333333 432 366 c 2
 432 427 l 1
 455 426 l 1
 449.666666667 395.333333333 437.333333333 368.5 418 345.5 c 128
 398.666666667 322.5 375.333333333 304.833333333 348 292.5 c 128
 320.666666667 280.166666667 291.333333333 274 260 274 c 0
 219.333333333 274 183.5 283.666666667 152.5 303 c 128
 121.5 322.333333333 97.1666666667 349.333333333 79.5 384 c 128
 61.8333333333 418.666666667 53 458 53 502 c 0
 53 548.666666667 62.6666666667 588.833333333 82 622.5 c 128
 101.333333333 656.166666667 128.166666667 682.5 162.5 701.5 c 128
 196.833333333 720.5 236.333333333 730 281 730 c 0
 360.333333333 730 420.5 699.166666667 461.5 637.5 c 128
 502.5 575.833333333 523 485 523 365 c 0
 523 283.666666667 513.666666667 215.166666667 495 159.5 c 128
 476.333333333 103.833333333 449 61.6666666667 413 33 c 128
 377 4.33333333333 332.333333333 -10 279 -10 c 0
281 343 m 0
 323 343 357 355.833333333 383 381.5 c 128
 409 407.166666667 422 444.666666667 422 494 c 256
 422 543.333333333 408.666666667 583.166666667 382 613.5 c 128
 355.333333333 643.833333333 320.666666667 659 278 659 c 0
 238.666666667 659 206.666666667 645 182 617 c 128
 157.333333333 589 145 550 145 500 c 0
 145 452 156.833333333 413.833333333 180.5 385.5 c 128
 204.166666667 357.166666667 237.666666667 343 281 343 c 0
EndSplineSet
Validated: 5
Substitution2: "'pnum' Proportional Numbers in Latin lookup 18 subtable" nine
Substitution2: "'aalt' Access All Alternates in Latin lookup 0 subtable" nine
EndChar

StartChar: two.tf.ss10
Encoding: 65635 -1 340
Width: 588
Flags: HW
LayerCount: 2
Fore
SplineSet
79 0 m 1
 79 51 l 2
 79 93 87.1666666667 130 103.5 162 c 128
 119.833333333 194 140.833333333 222.5 166.5 247.5 c 128
 192.166666667 272.5 219.5 295.666666667 248.5 317 c 128
 277.5 338.333333333 304.833333333 359.666666667 330.5 381 c 128
 356.166666667 402.333333333 377.166666667 425.333333333 393.5 450 c 128
 409.833333333 474.666666667 418 502.333333333 418 533 c 0
 418 572.333333333 406.833333333 603.166666667 384.5 625.5 c 128
 362.166666667 647.833333333 333.666666667 659 299 659 c 0
 259.666666667 659 227.5 645.666666667 202.5 619 c 128
 177.5 592.333333333 162.666666667 556.666666667 158 512 c 1
 72 512 l 1
 77.3333333333 578 100.666666667 630.833333333 142 670.5 c 128
 183.333333333 710.166666667 237 730 303 730 c 0
 364.333333333 730 413.666666667 712.666666667 451 678 c 128
 488.333333333 643.333333333 507 595 507 533 c 0
 507 498.333333333 500.5 467.166666667 487.5 439.5 c 128
 474.5 411.833333333 457.333333333 386.833333333 436 364.5 c 128
 414.666666667 342.166666667 391.333333333 321.5 366 302.5 c 128
 340.666666667 283.5 315.5 264.666666667 290.5 246 c 128
 265.5 227.333333333 242.833333333 208.166666667 222.5 188.5 c 128
 202.166666667 168.833333333 186.333333333 147.166666667 175 123.5 c 128
 163.666666667 99.8333333333 159 73.3333333333 161 44 c 1
 145 71 l 1
 519 71 l 1
 519 0 l 1
 79 0 l 1
EndSplineSet
Validated: 37
EndChar

StartChar: hyphen_greater.liga
Encoding: 65636 -1 343
Width: 825
GlyphClass: 3
LigCaretCntFixed: 1
Flags: HW
LayerCount: 2
Fore
SplineSet
60 395 m 1
 698 395 l 1
 665 368 l 1
 345 690 l 1
 443 690 l 1
 770 360 l 1
 442 30 l 1
 344 30 l 1
 665 352 l 1
 698 325 l 1
 60 325 l 1
 60 395 l 1
EndSplineSet
Validated: 5
Ligature2: "'liga' Standard Ligatures in Latin lookup 21 subtable" hyphen greater
LCarets2: 1 413
EndChar

StartChar: period
Encoding: 46 46 344
Width: 250
Flags: HW
LayerCount: 2
Fore
SplineSet
74 0 m 1
 74 102 l 1
 176 102 l 1
 176 0 l 1
 74 0 l 1
EndSplineSet
Validated: 1
Substitution2: "'ss01' Style Set 1 in Latin lookup 22 subtable" period.ss01
Substitution2: "'aalt' Access All Alternates in Latin lookup 0 subtable" period.ss01
EndChar

StartChar: comma
Encoding: 44 44 345
Width: 268
Flags: HW
LayerCount: 2
Fore
SplineSet
121 -110 m 1
 50 -110 l 1
 99 102 l 1
 206 102 l 5
 121 -110 l 1
EndSplineSet
Substitution2: "'ss01' Style Set 1 in Latin lookup 22 subtable" comma.ss01
Substitution2: "'aalt' Access All Alternates in Latin lookup 0 subtable" comma.ss01
EndChar

StartChar: exclam
Encoding: 33 33 349
Width: 268
Flags: HW
LayerCount: 2
Fore
SplineSet
103 209 m 1
 91 740 l 1
 176 740 l 1
 164 209 l 1
 103 209 l 1
83 0 m 1
 83 102 l 1
 185 102 l 1
 185 0 l 1
 83 0 l 1
EndSplineSet
Validated: 1
Substitution2: "'ss01' Style Set 1 in Latin lookup 22 subtable" exclam.ss01
Substitution2: "'case' Case-Sensitive Forms in Latin lookup 20 subtable" exclam.case
AlternateSubs2: "'aalt' Access All Alternates in Latin lookup 1 subtable" exclam.case exclam.ss01
EndChar

StartChar: exclamdown
Encoding: 161 161 350
Width: 268
Flags: HW
LayerCount: 2
Fore
SplineSet
91 -205 m 1
 103 301 l 1
 164 301 l 1
 176 -205 l 1
 91 -205 l 1
185 510 m 1
 185 409 l 1
 83 409 l 1
 83 510 l 1
 185 510 l 1
EndSplineSet
Validated: 1
Substitution2: "'ss01' Style Set 1 in Latin lookup 22 subtable" exclamdown.ss01
Substitution2: "'case' Case-Sensitive Forms in Latin lookup 20 subtable" exclamdown.case
AlternateSubs2: "'aalt' Access All Alternates in Latin lookup 1 subtable" exclamdown.case exclamdown.ss01
EndChar

StartChar: question
Encoding: 63 63 351
Width: 501
Flags: HW
LayerCount: 2
Fore
SplineSet
165 209 m 5
 165 256.333333333 168.166666667 289.166666667 174.5 307.5 c 4
 183.5 333.833333333 196.166666667 355.666666667 212.5 373 c 132
 228.833333333 390.333333333 245.166666667 405.833333333 261.5 419.5 c 132
 277.833333333 433.166666667 293.5 446.666666667 308.5 460 c 132
 323.5 473.333333333 335.666666667 488 345 504 c 4
 353.666666667 518.666666667 358.333333333 538.333333333 359 563 c 4
 360.333333333 599 347.5 627 320.5 647 c 4
 292.166666667 668.333333333 255.833333333 678.5 211.5 677.5 c 132
 167.166666667 676.5 125.333333333 669.666666667 86 657 c 5
 84 732.599609375 l 5
 120.666666667 744.866536458 165.666666667 751.066731771 219 751.200195312 c 4
 269 751.066731771 309.5 742.666666667 340.5 726 c 4
 368.166666667 711.333333333 391.166666667 690 409.5 662 c 132
 427.833333333 634 437 600.666666667 437 562 c 4
 437 531.333333333 432.333333333 505.833333333 423 485.5 c 132
 413.666666667 465.166666667 401.5 447.5 386.5 432.5 c 132
 371.5 417.5 354.666666667 403.5 336 390.5 c 4
 312.742838541 374.302734375 295.242838541 360.469401041 283.5 349 c 4
 270.5 336.333333333 259.833333333 319.833333333 251.5 299.5 c 132
 243.166666667 279.166666667 239 249 239 209 c 5
 165 209 l 5
151 0 m 5
 151 102 l 5
 252 102 l 5
 252 0 l 5
 151 0 l 5
EndSplineSet
Validated: 33
Substitution2: "'ss01' Style Set 1 in Latin lookup 22 subtable" question.ss01
Substitution2: "'case' Case-Sensitive Forms in Latin lookup 20 subtable" question.case
AlternateSubs2: "'aalt' Access All Alternates in Latin lookup 1 subtable" question.case question.ss01
EndChar

StartChar: questiondown
Encoding: 191 191 352
Width: 545
Flags: HW
LayerCount: 2
Fore
SplineSet
304 374 m 1
 304 326.666666667 300.833333333 293.833333333 294.5 275.5 c 0
 285.5 249.166666667 272.833333333 227.333333333 256.5 210 c 128
 240.169270833 192.669270833 223.8359375 177.169270833 207.5 163.5 c 128
 191.166666667 149.833333333 175.5 136.333333333 160.5 123 c 128
 145.5 109.666666667 133.333333333 95 124 79 c 0
 115.333333333 64.3333333333 110.666666667 44.6666666667 110 20 c 0
 108.666666667 -16 121.5 -44 148.5 -64 c 0
 176.833333333 -85.3333333333 213.166666667 -95.5 257.5 -94.5 c 128
 301.833333333 -93.5 343.666666667 -86.6666666667 383 -74 c 1
 385 -149.599609375 l 1
 348.333333333 -161.866536458 303.333333333 -168.066731771 250 -168.200195312 c 0
 200 -168.066731771 159.5 -159.666666667 128.5 -143 c 0
 100.833333333 -128.333333333 77.8333333333 -107 59.5 -79 c 128
 41.1666666667 -51 32 -17.6666666667 32 21 c 0
 32 51.6666666667 36.6666666667 77.1666666667 46 97.5 c 128
 55.3333333333 117.833333333 67.5 135.5 82.5 150.5 c 128
 97.5 165.5 114.333333333 179.5 133 192.5 c 0
 156.256510417 208.697265625 173.756510417 222.530598959 185.5 234 c 0
 198.5 246.666666667 209.166666667 263.166666667 217.5 283.5 c 128
 225.833333333 303.833333333 230 334 230 374 c 1
 304 374 l 1
318 583 m 1
 318 481 l 1
 217 481 l 1
 217 583 l 1
 318 583 l 1
EndSplineSet
Substitution2: "'ss01' Style Set 1 in Latin lookup 22 subtable" questiondown.ss01
Substitution2: "'case' Case-Sensitive Forms in Latin lookup 20 subtable" questiondown.case
AlternateSubs2: "'aalt' Access All Alternates in Latin lookup 1 subtable" questiondown.case questiondown.ss01
EndChar

StartChar: bullet
Encoding: 8226 8226 354
Width: 300
Flags: HW
LayerCount: 2
Fore
SplineSet
74 299 m 1
 74 451 l 1
 227 451 l 1
 227 299 l 1
 74 299 l 1
EndSplineSet
Validated: 1
Substitution2: "'ss01' Style Set 1 in Latin lookup 22 subtable" bullet.ss01
Substitution2: "'case' Case-Sensitive Forms in Latin lookup 20 subtable" bullet.case
AlternateSubs2: "'aalt' Access All Alternates in Latin lookup 1 subtable" bullet.case bullet.ss01
EndChar

StartChar: asterisk
Encoding: 42 42 355
Width: 404
Flags: HW
LayerCount: 2
Fore
SplineSet
166 437 m 1
 187 563 l 1
 84 483 l 1
 49 543 l 1
 170 588 l 1
 49 634 l 1
 84 695 l 1
 187 615 l 1
 166 740 l 1
 237 740 l 1
 217 615 l 1
 319 695 l 1
 355 634 l 1
 233 588 l 1
 355 543 l 1
 319 483 l 1
 217 563 l 1
 237 437 l 1
 166 437 l 1
EndSplineSet
Validated: 1
EndChar

StartChar: numbersign
Encoding: 35 35 356
Width: 684
Flags: HW
LayerCount: 2
Fore
SplineSet
145 0 m 1
 245 720 l 1
 314 720 l 1
 214 0 l 1
 145 0 l 1
370 0 m 1
 470 720 l 1
 539 720 l 1
 439 0 l 1
 370 0 l 1
65 506 m 1
 645 506 l 1
 645 439 l 1
 65 439 l 1
 65 506 l 1
40 291 m 1
 620 291 l 1
 620 224 l 1
 40 224 l 1
 40 291 l 1
EndSplineSet
Validated: 5
EndChar

StartChar: slash
Encoding: 47 47 357
Width: 421
Flags: HW
LayerCount: 2
Fore
SplineSet
58 -60 m 1
 294 750 l 1
 363 750 l 1
 127 -60 l 1
 58 -60 l 1
EndSplineSet
Validated: 1
EndChar

StartChar: backslash
Encoding: 92 92 358
Width: 421
Flags: HW
LayerCount: 2
Fore
SplineSet
58 750 m 1
 127 750 l 1
 363 -60 l 1
 294 -60 l 1
 58 750 l 1
EndSplineSet
Validated: 1
EndChar

StartChar: exclam.case
Encoding: 65639 -1 361
Width: 270
Flags: HW
LayerCount: 2
Fore
SplineSet
104 209 m 1
 92 720 l 1
 177 720 l 1
 165 209 l 1
 104 209 l 1
84 0 m 1
 84 102 l 1
 186 102 l 1
 186 0 l 1
 84 0 l 1
EndSplineSet
Validated: 1
EndChar

StartChar: exclamdown.case
Encoding: 65640 -1 362
Width: 268
Flags: HW
LayerCount: 2
Fore
SplineSet
91 0 m 1
 103 511 l 1
 164 511 l 1
 176 0 l 1
 91 0 l 1
185 720 m 1
 185 619 l 1
 83 619 l 1
 83 720 l 1
 185 720 l 1
EndSplineSet
Validated: 1
EndChar

StartChar: question.case
Encoding: 65641 -1 363
Width: 545
Flags: HW
LayerCount: 2
Fore
SplineSet
243 209 m 1
 243 245.666666667 247.5 276.5 256.5 301.5 c 128
 265.5 326.5 277.5 347.666666667 292.5 365 c 128
 307.5 382.333333333 323.166666667 397.666666667 339.5 411 c 128
 355.833333333 424.333333333 371.5 437.5 386.5 450.5 c 128
 401.5 463.5 413.666666667 478 423 494 c 128
 432.333333333 510 437 529.666666667 437 553 c 0
 437 583 425 608.166666667 401 628.5 c 128
 377 648.833333333 340.666666667 659 292 659 c 0
 244 659 205.166666667 646.333333333 175.5 621 c 128
 145.833333333 595.666666667 128 560 122 514 c 1
 43 514 l 1
 47 558 60 596.166666667 82 628.5 c 128
 104 660.833333333 133.333333333 685.833333333 170 703.5 c 128
 206.666666667 721.166666667 248.333333333 730 295 730 c 256
 341.666666667 730 381.333333333 722.5 414 707.5 c 128
 446.666666667 692.5 471.666666667 671.666666667 489 645 c 128
 506.333333333 618.333333333 515 587.333333333 515 552 c 0
 515 521.333333333 510.333333333 495.833333333 501 475.5 c 128
 491.666666667 455.166666667 479.5 437.666666667 464.5 423 c 128
 449.5 408.333333333 433.333333333 394.666666667 416 382 c 128
 398.666666667 369.333333333 382.5 355.666666667 367.5 341 c 128
 352.5 326.333333333 340.333333333 308.5 331 287.5 c 128
 321.666666667 266.5 317 240.333333333 317 209 c 1
 243 209 l 1
229 0 m 1
 229 102 l 1
 330 102 l 1
 330 0 l 1
 229 0 l 1
EndSplineSet
Validated: 1
EndChar

StartChar: questiondown.case
Encoding: 65642 -1 364
Width: 545
Flags: HW
LayerCount: 2
Fore
SplineSet
250 -10 m 0
 208 -10 170.5 -3 137.5 11 c 128
 104.5 25 78.3333333333 45.8333333333 59 73.5 c 128
 39.6666666667 101.166666667 30 134.666666667 30 174 c 0
 30 204.666666667 34.8333333333 230.166666667 44.5 250.5 c 128
 54.1666666667 270.833333333 66.5 288.5 81.5 303.5 c 128
 96.5 318.5 112.5 332.166666667 129.5 344.5 c 128
 146.5 356.833333333 162.5 370.166666667 177.5 384.5 c 128
 192.5 398.833333333 204.833333333 416 214.5 436 c 128
 224.166666667 456 229 481 229 511 c 1
 303 511 l 1
 303 475.666666667 298.333333333 446.166666667 289 422.5 c 128
 279.666666667 398.833333333 267.666666667 378.666666667 253 362 c 128
 238.333333333 345.333333333 222.666666667 330.666666667 206 318 c 128
 189.333333333 305.333333333 173.5 292.666666667 158.5 280 c 128
 143.5 267.333333333 131.5 252.833333333 122.5 236.5 c 128
 113.5 220.166666667 109 199.666666667 109 175 c 0
 109 138.333333333 122.666666667 110.166666667 150 90.5 c 128
 177.333333333 70.8333333333 211.666666667 61 253 61 c 0
 297 61 334.833333333 72 366.5 94 c 128
 398.166666667 116 417.333333333 147.666666667 424 189 c 1
 502 189 l 1
 498 148.333333333 484.5 113 461.5 83 c 128
 438.5 53 408.833333333 30 372.5 14 c 128
 336.166666667 -2 295.333333333 -10 250 -10 c 0
317 720 m 1
 317 619 l 1
 215 619 l 1
 215 720 l 1
 317 720 l 1
EndSplineSet
Validated: 1
EndChar

StartChar: bullet.case
Encoding: 65643 -1 365
Width: 695
Flags: HW
LayerCount: 2
Fore
SplineSet
74 118 m 1
 74 665 l 1
 621 665 l 1
 621 118 l 1
 74 118 l 1
EndSplineSet
Validated: 1
Substitution2: "'ss01' Style Set 1 in Latin lookup 22 subtable" bullet.case.ss01
Substitution2: "'aalt' Access All Alternates in Latin lookup 0 subtable" bullet.case.ss01
EndChar

StartChar: period.ss01
Encoding: 65645 -1 367
Width: 250
Flags: HW
LayerCount: 2
Fore
SplineSet
125 -10 m 0
 109 -10 95.5 -4.66666666667 84.5 6 c 128
 73.5 16.6666666667 68 30.6666666667 68 48 c 0
 68 64 73.5 77.3333333333 84.5 88 c 128
 95.5 98.6666666667 109 104 125 104 c 0
 140.333333333 104 153.666666667 98.6666666667 165 88 c 128
 176.333333333 77.3333333333 182 63.6666666667 182 47 c 256
 182 30.3333333333 176.333333333 16.6666666667 165 6 c 128
 153.666666667 -4.66666666667 140.333333333 -10 125 -10 c 0
EndSplineSet
Validated: 1
EndChar

StartChar: comma.ss01
Encoding: 65646 -1 368
Width: 250
Flags: HW
LayerCount: 2
Fore
SplineSet
79 -142 m 1
 79 -102 l 1
 96.3333333333 -94.6666666667 110.166666667 -83.1666666667 120.5 -67.5 c 128
 130.833333333 -51.8333333333 136 -28.3333333333 136 3 c 1
 160 6 l 1
 155.333333333 2.66666666667 150 -0.333333333333 144 -3 c 128
 138 -5.66666666667 131.666666667 -7 125 -7 c 0
 109 -7 95.5 -1.83333333333 84.5 8.5 c 128
 73.5 18.8333333333 68 31.6666666667 68 47 c 0
 68 64.3333333333 73.5 78.1666666667 84.5 88.5 c 128
 95.5 98.8333333333 108 104 122 104 c 0
 138.666666667 104 152.833333333 97.6666666667 164.5 85 c 128
 176.166666667 72.3333333333 182 51 182 21 c 0
 182 -21 173 -56 155 -84 c 128
 137 -112 111.666666667 -131.333333333 79 -142 c 1
EndSplineSet
Validated: 5
EndChar

StartChar: exclam.ss01
Encoding: 65650 -1 372
Width: 270
Flags: HW
LayerCount: 2
Fore
SplineSet
104 209 m 1
 92 740 l 1
 177 740 l 1
 165 209 l 1
 104 209 l 1
135 -10 m 0
 119 -10 105.5 -4.66666666667 94.5 6 c 128
 83.5 16.6666666667 78 30.6666666667 78 48 c 0
 78 64 83.5 77.3333333333 94.5 88 c 128
 105.5 98.6666666667 119 104 135 104 c 0
 150.333333333 104 163.666666667 98.6666666667 175 88 c 128
 186.333333333 77.3333333333 192 63.6666666667 192 47 c 256
 192 30.3333333333 186.333333333 16.6666666667 175 6 c 128
 163.666666667 -4.66666666667 150.333333333 -10 135 -10 c 0
EndSplineSet
Validated: 1
EndChar

StartChar: exclamdown.ss01
Encoding: 65651 -1 373
Width: 280
Flags: HW
LayerCount: 2
Fore
SplineSet
97 -205 m 1
 109 301 l 1
 170 301 l 1
 182 -205 l 1
 97 -205 l 1
140 520 m 0
 156 520 169.5 514.666666667 180.5 504 c 128
 191.5 493.333333333 197 479.666666667 197 463 c 256
 197 446.333333333 191.5 432.666666667 180.5 422 c 128
 169.5 411.333333333 156 406 140 406 c 0
 125.333333333 406 112.166666667 411.333333333 100.5 422 c 128
 88.8333333333 432.666666667 83 446.333333333 83 463 c 256
 83 479.666666667 88.8333333333 493.333333333 100.5 504 c 128
 112.166666667 514.666666667 125.333333333 520 140 520 c 0
EndSplineSet
Validated: 1
EndChar

StartChar: question.ss01
Encoding: 65652 -1 374
Width: 545
Flags: HW
LayerCount: 2
Fore
SplineSet
243 209 m 1
 243 247 247.5 279.166666667 256.5 305.5 c 128
 265.5 331.833333333 277.5 354 292.5 372 c 128
 307.5 390 323.166666667 405.833333333 339.5 419.5 c 128
 355.833333333 433.166666667 371.5 446.666666667 386.5 460 c 128
 401.5 473.333333333 413.666666667 488 423 504 c 128
 432.333333333 520 437 539.666666667 437 563 c 0
 437 597.666666667 424.166666667 625.666666667 398.5 647 c 128
 372.833333333 668.333333333 337.333333333 679 292 679 c 0
 244 679 205.166666667 666.333333333 175.5 641 c 128
 145.833333333 615.666666667 128 580 122 534 c 1
 43 534 l 1
 47 578 60 616.166666667 82 648.5 c 128
 104 680.833333333 133.333333333 705.833333333 170 723.5 c 128
 206.666666667 741.166666667 248.333333333 750 295 750 c 0
 339.666666667 750 378.333333333 742.333333333 411 727 c 128
 443.666666667 711.666666667 469.166666667 690 487.5 662 c 128
 505.833333333 634 515 600.666666667 515 562 c 0
 515 531.333333333 510.333333333 505.833333333 501 485.5 c 128
 491.666666667 465.166666667 479.5 447.5 464.5 432.5 c 128
 449.5 417.5 433.333333333 403.5 416 390.5 c 128
 398.666666667 377.5 382.5 363.333333333 367.5 348 c 128
 352.5 332.666666667 340.333333333 314 331 292 c 128
 321.666666667 270 317 242.333333333 317 209 c 1
 243 209 l 1
280 -10 m 0
 263.333333333 -10 249.5 -4.66666666667 238.5 6 c 128
 227.5 16.6666666667 222 30.6666666667 222 48 c 0
 222 64 227.5 77.3333333333 238.5 88 c 128
 249.5 98.6666666667 263.333333333 104 280 104 c 0
 294.666666667 104 307.666666667 98.6666666667 319 88 c 128
 330.333333333 77.3333333333 336 64 336 48 c 0
 336 30.6666666667 330.333333333 16.6666666667 319 6 c 128
 307.666666667 -4.66666666667 294.666666667 -10 280 -10 c 0
EndSplineSet
Validated: 1
EndChar

StartChar: questiondown.ss01
Encoding: 65653 -1 375
Width: 545
Flags: HW
LayerCount: 2
Fore
SplineSet
250 -215 m 0
 208 -215 170.5 -208 137.5 -194 c 128
 104.5 -180 78.3333333333 -159.666666667 59 -133 c 128
 39.6666666667 -106.333333333 30 -74 30 -36 c 0
 30 -5.33333333333 34.8333333333 20.1666666667 44.5 40.5 c 128
 54.1666666667 60.8333333333 66.5 78.5 81.5 93.5 c 128
 96.5 108.5 112.5 122.166666667 129.5 134.5 c 128
 146.5 146.833333333 162.5 160.166666667 177.5 174.5 c 128
 192.5 188.833333333 204.833333333 206 214.5 226 c 128
 224.166666667 246 229 271 229 301 c 1
 303 301 l 1
 303 265.666666667 298.333333333 236.166666667 289 212.5 c 128
 279.666666667 188.833333333 267.666666667 168.666666667 253 152 c 128
 238.333333333 135.333333333 222.666666667 120.666666667 206 108 c 128
 189.333333333 95.3333333333 173.5 82.6666666667 158.5 70 c 128
 143.5 57.3333333333 131.5 42.8333333333 122.5 26.5 c 128
 113.5 10.1666666667 109 -10.3333333333 109 -35 c 0
 109 -69 122.666666667 -95.6666666667 150 -115 c 128
 177.333333333 -134.333333333 211.666666667 -144 253 -144 c 0
 297 -144 334.833333333 -133 366.5 -111 c 128
 398.166666667 -89 417.333333333 -57.3333333333 424 -16 c 1
 502 -16 l 1
 498 -57.3333333333 484.5 -92.8333333333 461.5 -122.5 c 128
 438.5 -152.166666667 408.833333333 -175 372.5 -191 c 128
 336.166666667 -207 295.333333333 -215 250 -215 c 0
266 520 m 0
 282 520 295.5 514.666666667 306.5 504 c 128
 317.5 493.333333333 323 479.666666667 323 463 c 256
 323 446.333333333 317.5 432.666666667 306.5 422 c 128
 295.5 411.333333333 282 406 266 406 c 0
 251.333333333 406 238.166666667 411.333333333 226.5 422 c 128
 214.833333333 432.666666667 209 446.333333333 209 463 c 256
 209 479.666666667 214.833333333 493.333333333 226.5 504 c 128
 238.166666667 514.666666667 251.333333333 520 266 520 c 0
EndSplineSet
Validated: 1
EndChar

StartChar: bullet.ss01
Encoding: 65655 -1 377
Width: 318
Flags: HW
LayerCount: 2
Fore
SplineSet
160 284 m 0
 136 284 115.666666667 291.833333333 99 307.5 c 128
 82.3333333333 323.166666667 74 344 74 370 c 0
 74 394 82.3333333333 414.166666667 99 430.5 c 128
 115.666666667 446.833333333 136 455 160 455 c 0
 182.666666667 455 202.5 446.833333333 219.5 430.5 c 128
 236.5 414.166666667 245 394 245 370 c 0
 245 344 236.5 323.166666667 219.5 307.5 c 128
 202.5 291.833333333 182.666666667 284 160 284 c 0
EndSplineSet
Validated: 1
EndChar

StartChar: bullet.case.ss01
Encoding: 65657 -1 379
Width: 760
Flags: HW
LayerCount: 2
Fore
SplineSet
383 65 m 0
 295 65 221.5 93.1666666667 162.5 149.5 c 128
 103.5 205.833333333 74 280.666666667 74 374 c 0
 74 461.333333333 103.5 533.833333333 162.5 591.5 c 128
 221.5 649.166666667 295 678 383 678 c 0
 463 678 533.666666667 649.166666667 595 591.5 c 128
 656.333333333 533.833333333 687 461.333333333 687 374 c 0
 687 280.666666667 656.333333333 205.833333333 595 149.5 c 128
 533.666666667 93.1666666667 463 65 383 65 c 0
EndSplineSet
Validated: 1
EndChar

StartChar: hyphen
Encoding: 45 45 381
Width: 488
Flags: HW
LayerCount: 2
Fore
SplineSet
78 235 m 1
 78 310 l 1
 410 310 l 1
 410 235 l 1
 78 235 l 1
EndSplineSet
Validated: 1
Substitution2: "'case' Case-Sensitive Forms in Latin lookup 20 subtable" hyphen.case
Substitution2: "'aalt' Access All Alternates in Latin lookup 0 subtable" hyphen.case
EndChar

StartChar: endash
Encoding: 8211 8211 382
Width: 568
Flags: HW
LayerCount: 2
Fore
SplineSet
78 238 m 1
 78 306 l 1
 490 306 l 1
 490 238 l 1
 78 238 l 1
EndSplineSet
Validated: 1
Substitution2: "'case' Case-Sensitive Forms in Latin lookup 20 subtable" endash.case
Substitution2: "'aalt' Access All Alternates in Latin lookup 0 subtable" endash.case
EndChar

StartChar: emdash
Encoding: 8212 8212 383
Width: 856
Flags: HW
LayerCount: 2
Fore
SplineSet
78 238 m 1
 78 306 l 1
 778 306 l 1
 778 238 l 1
 78 238 l 1
EndSplineSet
Validated: 1
Substitution2: "'case' Case-Sensitive Forms in Latin lookup 20 subtable" emdash.case
Substitution2: "'aalt' Access All Alternates in Latin lookup 0 subtable" emdash.case
EndChar

StartChar: hyphen.case
Encoding: 65659 -1 385
Width: 488
Flags: HW
LayerCount: 2
Fore
SplineSet
78 323 m 1
 78 398 l 1
 410 398 l 1
 410 323 l 1
 78 323 l 1
EndSplineSet
Validated: 1
EndChar

StartChar: endash.case
Encoding: 65660 -1 386
Width: 568
Flags: HW
LayerCount: 2
Fore
SplineSet
78 326 m 1
 78 394 l 1
 490 394 l 1
 490 326 l 1
 78 326 l 1
EndSplineSet
Validated: 1
EndChar

StartChar: emdash.case
Encoding: 65661 -1 387
Width: 856
Flags: HW
LayerCount: 2
Fore
SplineSet
78 326 m 1
 78 394 l 1
 778 394 l 1
 778 326 l 1
 78 326 l 1
EndSplineSet
Validated: 1
EndChar

StartChar: parenleft
Encoding: 40 40 388
Width: 397
Flags: HW
LayerCount: 2
Fore
SplineSet
274 -110 m 1
 207.333333333 -47.3333333333 158.166666667 20.8333333333 126.5 94.5 c 128
 94.8333333333 168.166666667 79 243.333333333 79 320 c 0
 79 395.333333333 95 470 127 544 c 128
 159 618 208 686.666666667 274 750 c 1
 349 750 l 1
 283 686.666666667 233.666666667 619.166666667 201 547.5 c 128
 168.333333333 475.833333333 152 400 152 320 c 0
 152 239.333333333 168.666666667 163.166666667 202 91.5 c 128
 235.333333333 19.8333333333 284.333333333 -47.3333333333 349 -110 c 1
 274 -110 l 1
EndSplineSet
Validated: 1
Substitution2: "'case' Case-Sensitive Forms in Latin lookup 20 subtable" parenleft.case
Substitution2: "'aalt' Access All Alternates in Latin lookup 0 subtable" parenleft.case
EndChar

StartChar: parenright
Encoding: 41 41 389
Width: 397
Flags: HW
LayerCount: 2
Fore
SplineSet
124 754 m 1
 190.666666667 691.333333333 239.833333333 623.166666667 271.5 549.5 c 128
 303.166666667 475.833333333 319 400.666666667 319 324 c 0
 319 248.666666667 303 173.833333333 271 99.5 c 128
 239 25.1666666667 190 -43.3333333333 124 -106 c 1
 49 -106 l 1
 115 -43.3333333333 164.333333333 24 197 96 c 128
 229.666666667 168 246 244 246 324 c 0
 246 404.666666667 229.166666667 480.833333333 195.5 552.5 c 128
 161.833333333 624.166666667 113 691.333333333 49 754 c 1
 124 754 l 1
EndSplineSet
Validated: 1
Substitution2: "'case' Case-Sensitive Forms in Latin lookup 20 subtable" parenright.case
Substitution2: "'aalt' Access All Alternates in Latin lookup 0 subtable" parenright.case
EndChar

StartChar: braceleft
Encoding: 123 123 390
Width: 397
Flags: HW
LayerCount: 2
Fore
SplineSet
252 -108 m 2
 217.333333333 -108 189.166666667 -101.166666667 167.5 -87.5 c 128
 145.833333333 -73.8333333333 131.333333333 -55.3333333333 124 -32 c 128
 116.666666667 -8.66666666667 115.333333333 16.3333333333 120 43 c 2
 151 202 l 2
 157.666666667 233.333333333 155.5 255.833333333 144.5 269.5 c 128
 133.5 283.166666667 113.666666667 290 85 290 c 2
 39 290 l 1
 39 352 l 1
 85 352 l 2
 113.666666667 352 133.5 358.833333333 144.5 372.5 c 128
 155.5 386.166666667 157.666666667 408.666666667 151 440 c 2
 120 599 l 2
 115.333333333 626.333333333 116.666666667 651.5 124 674.5 c 128
 131.333333333 697.5 145.833333333 715.833333333 167.5 729.5 c 128
 189.166666667 743.166666667 217.333333333 750 252 750 c 2
 339 750 l 1
 339 687 l 1
 257 687 l 2
 231.666666667 687 213.333333333 679.833333333 202 665.5 c 128
 190.666666667 651.166666667 188 630 194 602 c 2
 223 461 l 2
 231.666666667 421 230.166666667 390.166666667 218.5 368.5 c 128
 206.833333333 346.833333333 188.333333333 331 163 321 c 1
 188.333333333 311 206.833333333 295.166666667 218.5 273.5 c 128
 230.166666667 251.833333333 231.666666667 221 223 181 c 2
 194 40 l 2
 188 12 190.666666667 -9.16666666667 202 -23.5 c 128
 213.333333333 -37.8333333333 231.666666667 -45 257 -45 c 2
 339 -45 l 1
 339 -108 l 1
 252 -108 l 2
EndSplineSet
Validated: 33
Substitution2: "'case' Case-Sensitive Forms in Latin lookup 20 subtable" braceleft.case
Substitution2: "'aalt' Access All Alternates in Latin lookup 0 subtable" braceleft.case
EndChar

StartChar: braceright
Encoding: 125 125 391
Width: 397
Flags: HW
LayerCount: 2
Fore
SplineSet
145 750 m 2
 180.333333333 750 208.666666667 743.166666667 230 729.5 c 128
 251.333333333 715.833333333 266 697.5 274 674.5 c 128
 282 651.5 283 626.333333333 277 599 c 2
 246 440 l 2
 239.333333333 408.666666667 241.666666667 386.166666667 253 372.5 c 128
 264.333333333 358.833333333 284.333333333 352 313 352 c 2
 359 352 l 1
 359 290 l 1
 313 290 l 2
 284.333333333 290 264.333333333 283.166666667 253 269.5 c 128
 241.666666667 255.833333333 239.333333333 233.333333333 246 202 c 2
 277 43 l 2
 283 16.3333333333 282 -8.66666666667 274 -32 c 128
 266 -55.3333333333 251.333333333 -73.8333333333 230 -87.5 c 128
 208.666666667 -101.166666667 180.333333333 -108 145 -108 c 2
 59 -108 l 1
 59 -45 l 1
 140 -45 l 2
 166.666666667 -45 185.5 -37.8333333333 196.5 -23.5 c 128
 207.5 -9.16666666667 209.666666667 12 203 40 c 2
 174 181 l 2
 166 221 167.666666667 251.833333333 179 273.5 c 128
 190.333333333 295.166666667 208.666666667 311 234 321 c 1
 208.666666667 331 190.333333333 346.833333333 179 368.5 c 128
 167.666666667 390.166666667 166 421 174 461 c 2
 203 602 l 2
 209.666666667 630 207.5 651.166666667 196.5 665.5 c 128
 185.5 679.833333333 166.666666667 687 140 687 c 2
 59 687 l 1
 59 750 l 1
 145 750 l 2
EndSplineSet
Validated: 33
Substitution2: "'case' Case-Sensitive Forms in Latin lookup 20 subtable" braceright.case
Substitution2: "'aalt' Access All Alternates in Latin lookup 0 subtable" braceright.case
EndChar

StartChar: bracketleft
Encoding: 91 91 392
Width: 397
Flags: HW
LayerCount: 2
Fore
SplineSet
89 -108 m 1
 89 750 l 1
 339 750 l 1
 339 687 l 1
 162 687 l 1
 162 -45 l 1
 339 -45 l 1
 339 -108 l 1
 89 -108 l 1
EndSplineSet
Validated: 1
Substitution2: "'case' Case-Sensitive Forms in Latin lookup 20 subtable" bracketleft.case
Substitution2: "'aalt' Access All Alternates in Latin lookup 0 subtable" bracketleft.case
EndChar

StartChar: bracketright
Encoding: 93 93 393
Width: 397
Flags: HW
LayerCount: 2
Fore
SplineSet
309 750 m 1
 309 -108 l 1
 59 -108 l 1
 59 -45 l 1
 236 -45 l 1
 236 687 l 1
 59 687 l 1
 59 750 l 1
 309 750 l 1
EndSplineSet
Validated: 1
Substitution2: "'case' Case-Sensitive Forms in Latin lookup 20 subtable" bracketright.case
Substitution2: "'aalt' Access All Alternates in Latin lookup 0 subtable" bracketright.case
EndChar

StartChar: parenleft.case
Encoding: 65662 -1 394
Width: 397
Flags: HW
LayerCount: 2
Fore
SplineSet
274 -40 m 1
 229.333333333 -0.666666666667 192.666666667 40.8333333333 164 84.5 c 128
 135.333333333 128.166666667 114 173.166666667 100 219.5 c 128
 86 265.833333333 79 312.666666667 79 360 c 256
 79 407.333333333 86 454.166666667 100 500.5 c 128
 114 546.833333333 135.5 591.833333333 164.5 635.5 c 128
 193.5 679.166666667 230 720.666666667 274 760 c 1
 349 760 l 1
 283 701.333333333 233.666666667 638.666666667 201 572 c 128
 168.333333333 505.333333333 152 434.666666667 152 360 c 0
 152 284.666666667 168.666666667 213.833333333 202 147.5 c 128
 235.333333333 81.1666666667 284.333333333 18.6666666667 349 -40 c 1
 274 -40 l 1
EndSplineSet
Validated: 1
EndChar

StartChar: parenright.case
Encoding: 65663 -1 395
Width: 397
Flags: HW
LayerCount: 2
Fore
SplineSet
124 760 m 1
 168 721.333333333 204.333333333 680.166666667 233 636.5 c 128
 261.666666667 592.833333333 283.166666667 547.666666667 297.5 501 c 128
 311.833333333 454.333333333 319 407.333333333 319 360 c 0
 319 313.333333333 311.833333333 266.833333333 297.5 220.5 c 128
 283.166666667 174.166666667 261.666666667 129 233 85 c 128
 204.333333333 41 168 -0.666666666667 124 -40 c 1
 49 -40 l 1
 115 18.6666666667 164.333333333 81.5 197 148.5 c 128
 229.666666667 215.5 246 286 246 360 c 0
 246 435.333333333 229.166666667 506.166666667 195.5 572.5 c 128
 161.833333333 638.833333333 113 701.333333333 49 760 c 1
 124 760 l 1
EndSplineSet
Validated: 1
EndChar

StartChar: braceleft.case
Encoding: 65664 -1 396
Width: 397
Flags: HW
LayerCount: 2
Fore
SplineSet
252 -40 m 2
 217.333333333 -40 189 -33.1666666667 167 -19.5 c 128
 145 -5.83333333333 130.166666667 12.6666666667 122.5 36 c 128
 114.833333333 59.3333333333 114 84.3333333333 120 111 c 2
 151 241 l 2
 159 272.333333333 157.166666667 294.833333333 145.5 308.5 c 128
 133.833333333 322.166666667 113.666666667 329 85 329 c 2
 39 329 l 1
 39 391 l 1
 85 391 l 2
 113.666666667 391 133.833333333 397.833333333 145.5 411.5 c 128
 157.166666667 425.166666667 159 447.666666667 151 479 c 2
 120 609 l 2
 114 636.333333333 114.833333333 661.5 122.5 684.5 c 128
 130.166666667 707.5 145 725.833333333 167 739.5 c 128
 189 753.166666667 217.333333333 760 252 760 c 2
 339 760 l 1
 339 697 l 1
 257 697 l 2
 231.666666667 697 213 689.833333333 201 675.5 c 128
 189 661.166666667 186.666666667 640 194 612 c 2
 223 500 l 2
 229.666666667 473.333333333 231.333333333 450.833333333 228 432.5 c 128
 224.666666667 414.166666667 217.333333333 399.166666667 206 387.5 c 128
 194.666666667 375.833333333 180.333333333 366.666666667 163 360 c 1
 180.333333333 353.333333333 194.666666667 344.166666667 206 332.5 c 128
 217.333333333 320.833333333 224.833333333 305.833333333 228.5 287.5 c 128
 232.166666667 269.166666667 230.333333333 246.666666667 223 220 c 2
 194 108 l 2
 186.666666667 80 189 58.8333333333 201 44.5 c 128
 213 30.1666666667 231.666666667 23 257 23 c 2
 339 23 l 1
 339 -40 l 1
 252 -40 l 2
EndSplineSet
Validated: 33
EndChar

StartChar: braceright.case
Encoding: 65665 -1 397
Width: 397
Flags: HW
LayerCount: 2
Fore
SplineSet
145 760 m 2
 180.333333333 760 208.833333333 753.166666667 230.5 739.5 c 128
 252.166666667 725.833333333 267.166666667 707.5 275.5 684.5 c 128
 283.833333333 661.5 284.333333333 636.333333333 277 609 c 2
 246 479 l 2
 238 447.666666667 240 425.166666667 252 411.5 c 128
 264 397.833333333 284.333333333 391 313 391 c 2
 359 391 l 1
 359 329 l 1
 313 329 l 2
 284.333333333 329 264 322.166666667 252 308.5 c 128
 240 294.833333333 238 272.333333333 246 241 c 2
 277 111 l 2
 284.333333333 84.3333333333 283.833333333 59.3333333333 275.5 36 c 128
 267.166666667 12.6666666667 252.166666667 -5.83333333333 230.5 -19.5 c 128
 208.833333333 -33.1666666667 180.333333333 -40 145 -40 c 2
 59 -40 l 1
 59 23 l 1
 140 23 l 2
 166.666666667 23 185.833333333 30.1666666667 197.5 44.5 c 128
 209.166666667 58.8333333333 211 80 203 108 c 2
 175 220 l 2
 167.666666667 246.666666667 165.666666667 269.166666667 169 287.5 c 128
 172.333333333 305.833333333 179.833333333 320.833333333 191.5 332.5 c 128
 203.166666667 344.166666667 217.333333333 353.333333333 234 360 c 1
 217.333333333 366.666666667 203.166666667 375.833333333 191.5 387.5 c 128
 179.833333333 399.166666667 172.333333333 414.166666667 169 432.5 c 128
 165.666666667 450.833333333 167.333333333 473.333333333 174 500 c 2
 203 612 l 2
 211 640 209.166666667 661.166666667 197.5 675.5 c 128
 185.833333333 689.833333333 166.666666667 697 140 697 c 2
 59 697 l 1
 59 760 l 1
 145 760 l 2
EndSplineSet
Validated: 33
EndChar

StartChar: bracketleft.case
Encoding: 65666 -1 398
Width: 397
Flags: HW
LayerCount: 2
Fore
SplineSet
89 -40 m 1
 89 760 l 1
 339 760 l 1
 339 697 l 1
 162 697 l 1
 162 23 l 1
 339 23 l 1
 339 -40 l 1
 89 -40 l 1
EndSplineSet
Validated: 1
EndChar

StartChar: bracketright.case
Encoding: 65667 -1 399
Width: 397
Flags: HW
LayerCount: 2
Fore
SplineSet
309 760 m 1
 309 -40 l 1
 59 -40 l 1
 59 23 l 1
 236 23 l 1
 236 697 l 1
 59 697 l 1
 59 760 l 1
 309 760 l 1
EndSplineSet
Validated: 1
EndChar

StartChar: quoteleft
Encoding: 8216 8216 404
Width: 304
Flags: HW
LayerCount: 2
Fore
SplineSet
195 508 m 5
 152 508 l 4
 93 508 l 1
 172 720 l 1
 243 720 l 1
 195 508 l 5
EndSplineSet
Validated: 1
Substitution2: "'ss01' Style Set 1 in Latin lookup 22 subtable" quoteleft.ss01
Substitution2: "'aalt' Access All Alternates in Latin lookup 0 subtable" quoteleft.ss01
EndChar

StartChar: quoteright
Encoding: 8217 8217 405
Width: 250
Flags: HW
LayerCount: 2
Fore
SplineSet
147 508 m 1
 76 508 l 1
 125 720 l 1
 226 720 l 1
 147 508 l 1
EndSplineSet
Validated: 1
Substitution2: "'ss01' Style Set 1 in Latin lookup 22 subtable" quoteright.ss01
Substitution2: "'aalt' Access All Alternates in Latin lookup 0 subtable" quoteright.ss01
EndChar

StartChar: guillemotright
Encoding: 187 187 407
Width: 484
Flags: HW
LayerCount: 2
Fore
SplineSet
302 434 m 1
 430 251 l 1
 302 68 l 1
 223 68 l 1
 347 251 l 1
 223 434 l 1
 302 434 l 1
143 434 m 1
 272 251 l 1
 143 68 l 1
 64 68 l 1
 188 251 l 1
 64 434 l 1
 143 434 l 1
EndSplineSet
Validated: 1
EndChar

StartChar: guilsinglleft
Encoding: 8249 8249 408
Width: 325
Flags: HW
LayerCount: 2
Fore
SplineSet
182 68 m 1
 54 251 l 1
 182 434 l 1
 262 434 l 1
 137 251 l 1
 262 68 l 1
 182 68 l 1
EndSplineSet
Validated: 1
EndChar

StartChar: guilsinglright
Encoding: 8250 8250 409
Width: 325
Flags: HW
LayerCount: 2
Fore
SplineSet
143 68 m 1
 64 68 l 1
 188 251 l 1
 64 434 l 1
 143 434 l 1
 272 251 l 1
 143 68 l 1
EndSplineSet
Validated: 1
EndChar

StartChar: quotesingle
Encoding: 39 39 411
Width: 228
Flags: HW
LayerCount: 2
Fore
SplineSet
94 495 m 1
 70 743 l 1
 156 743 l 1
 133 495 l 1
 94 495 l 1
EndSplineSet
Validated: 1
EndChar

StartChar: quoteleft.ss01
Encoding: 65672 -1 416
Width: 260
Flags: HW
LayerCount: 2
Fore
SplineSet
135 494 m 0
 118.333333333 494 104 500.333333333 92 513 c 128
 80 525.666666667 74 547 74 577 c 0
 74 619.666666667 83.6666666667 655 103 683 c 128
 122.333333333 711 150.333333333 730 187 740 c 1
 187 700 l 1
 165 693.333333333 148.333333333 682.166666667 137 666.5 c 128
 125.666666667 650.833333333 120 627 120 595 c 1
 96 592 l 1
 100.666666667 595.333333333 106 598.333333333 112 601 c 128
 118 603.666666667 124.333333333 605 131 605 c 0
 149 605 163.666666667 599.833333333 175 589.5 c 128
 186.333333333 579.166666667 192 566 192 550 c 0
 192 533.333333333 186.5 519.833333333 175.5 509.5 c 128
 164.5 499.166666667 151 494 135 494 c 0
EndSplineSet
Validated: 5
EndChar

StartChar: quoteright.ss01
Encoding: 65673 -1 417
Width: 250
Flags: HW
LayerCount: 2
Fore
SplineSet
69 513 m 1
 69 553 l 1
 91 555.666666667 107.666666667 564.333333333 119 579 c 128
 130.333333333 593.666666667 136 617 136 649 c 1
 160 652 l 1
 155.333333333 648.666666667 150 645.666666667 144 643 c 128
 138 640.333333333 131.666666667 639 125 639 c 0
 107 639 92.5 644.166666667 81.5 654.5 c 128
 70.5 664.833333333 65 678 65 694 c 0
 65 710.666666667 70.3333333333 724.166666667 81 734.5 c 128
 91.6666666667 744.833333333 105 750 121 750 c 0
 137.666666667 750 152 743.666666667 164 731 c 128
 176 718.333333333 182 697 182 667 c 0
 182 624.333333333 172.333333333 589.333333333 153 562 c 128
 133.666666667 534.666666667 105.666666667 518.333333333 69 513 c 1
EndSplineSet
Validated: 5
EndChar

StartChar: less_hyphen.liga
Encoding: 65674 -1 418
Width: 825
GlyphClass: 3
LigCaretCntFixed: 1
Flags: HW
LayerCount: 2
Fore
SplineSet
770 325 m 1
 133 325 l 1
 165 352 l 1
 485 30 l 1
 387 30 l 1
 60 360 l 1
 388 690 l 1
 486 690 l 1
 165 368 l 1
 133 395 l 1
 770 395 l 1
 770 325 l 1
EndSplineSet
Validated: 5
Ligature2: "'liga' Standard Ligatures in Latin lookup 21 subtable" less hyphen
LCarets2: 1 413
EndChar

StartChar: at
Encoding: 64 64 419
Width: 839
Flags: HW
LayerCount: 2
Fore
SplineSet
423 -10 m 0
 347.666666667 -10 282 4 226 32 c 128
 170 60 126.5 99.1666666667 95.5 149.5 c 128
 64.5 199.833333333 49 259 49 327 c 0
 49 383.666666667 59 436.5 79 485.5 c 128
 99 534.5 127.5 577.333333333 164.5 614 c 128
 201.5 650.666666667 245.166666667 679.166666667 295.5 699.5 c 128
 345.833333333 719.833333333 401 730 461 730 c 0
 526.333333333 730 583.666666667 717.5 633 692.5 c 128
 682.333333333 667.5 721 632.5 749 587.5 c 128
 777 542.5 791 491 791 433 c 0
 791 395 785.5 359 774.5 325 c 128
 763.5 291 748.333333333 261 729 235 c 128
 709.666666667 209 687.333333333 188.666666667 662 174 c 128
 636.666666667 159.333333333 610 152 582 152 c 0
 561.333333333 152 543.666666667 156.666666667 529 166 c 128
 514.333333333 175.333333333 504.666666667 189.5 500 208.5 c 128
 495.333333333 227.5 496.666666667 250 504 276 c 1
 510 244 l 1
 492.666666667 214.666666667 471.5 192 446.5 176 c 128
 421.5 160 394.333333333 152 365 152 c 0
 321.666666667 152 286.5 167.333333333 259.5 198 c 128
 232.5 228.666666667 219 269 219 319 c 0
 219 353 224.333333333 385.166666667 235 415.5 c 128
 245.666666667 445.833333333 260.5 472.666666667 279.5 496 c 128
 298.5 519.333333333 320.166666667 537.666666667 344.5 551 c 128
 368.833333333 564.333333333 394.666666667 571 422 571 c 0
 460.666666667 571 491.666666667 559.833333333 515 537.5 c 128
 538.333333333 515.166666667 549.333333333 485.333333333 548 448 c 1
 536 448 l 1
 564 554 l 1
 640 554 l 1
 570 281 l 2
 564 257.666666667 563.333333333 240 568 228 c 128
 572.666666667 216 583 210 599 210 c 256
 615 210 630.5 216 645.5 228 c 128
 660.5 240 674.166666667 256.166666667 686.5 276.5 c 128
 698.833333333 296.833333333 708.5 320 715.5 346 c 128
 722.5 372 726 399 726 427 c 0
 726 475.666666667 714.833333333 518.166666667 692.5 554.5 c 128
 670.166666667 590.833333333 639 619.166666667 599 639.5 c 128
 559 659.833333333 512.333333333 670 459 670 c 0
 408.333333333 670 361.833333333 661.333333333 319.5 644 c 128
 277.166666667 626.666666667 240.666666667 602.333333333 210 571 c 128
 179.333333333 539.666666667 155.5 503.333333333 138.5 462 c 128
 121.5 420.666666667 113 376.333333333 113 329 c 0
 113 273 125.333333333 224.166666667 150 182.5 c 128
 174.666666667 140.833333333 209.833333333 108.333333333 255.5 85 c 128
 301.166666667 61.6666666667 356.666666667 50 422 50 c 0
 458 50 494 54.3333333333 530 63 c 128
 566 71.6666666667 599 83.6666666667 629 99 c 1
 653 47 l 1
 625 29.6666666667 590.833333333 15.8333333333 550.5 5.5 c 128
 510.166666667 -4.83333333333 467.666666667 -10 423 -10 c 0
389 217 m 0
 406.333333333 217 422.833333333 221.833333333 438.5 231.5 c 128
 454.166666667 241.166666667 468.166666667 254.666666667 480.5 272 c 128
 492.833333333 289.333333333 502.5 308.833333333 509.5 330.5 c 128
 516.5 352.166666667 520 374.666666667 520 398 c 0
 520 430.666666667 511.666666667 456.833333333 495 476.5 c 128
 478.333333333 496.166666667 456 506 428 506 c 0
 410.666666667 506 394.166666667 501.5 378.5 492.5 c 128
 362.833333333 483.5 349 470.666666667 337 454 c 128
 325 437.333333333 315.5 418.166666667 308.5 396.5 c 128
 301.5 374.833333333 298 351.666666667 298 327 c 0
 298 293 306.333333333 266.166666667 323 246.5 c 128
 339.666666667 226.833333333 361.666666667 217 389 217 c 0
EndSplineSet
Validated: 37
EndChar

StartChar: ampersand
Encoding: 65675 -1 420
Width: 729
Flags: HW
LayerCount: 2
Fore
SplineSet
603 0 m 1
 227 401 l 2
 205.666666667 423.666666667 188.333333333 444.5 175 463.5 c 128
 161.666666667 482.5 151.833333333 500.833333333 145.5 518.5 c 128
 139.166666667 536.166666667 136 554.333333333 136 573 c 0
 136 603.666666667 143.833333333 630.666666667 159.5 654 c 128
 175.166666667 677.333333333 196.666666667 695.833333333 224 709.5 c 128
 251.333333333 723.166666667 282.666666667 730 318 730 c 0
 352 730 382.666666667 723.666666667 410 711 c 128
 437.333333333 698.333333333 459 680.5 475 657.5 c 128
 491 634.5 499 607 499 575 c 0
 499 535 483.5 499.333333333 452.5 468 c 128
 421.5 436.666666667 374 409.666666667 310 387 c 1
 270 438 l 1
 320.666666667 452 358.666666667 470.166666667 384 492.5 c 128
 409.333333333 514.833333333 422 541 422 571 c 0
 422 599.666666667 411.666666667 622.333333333 391 639 c 128
 370.333333333 655.666666667 345.333333333 664 316 664 c 256
 286.666666667 664 262.5 656 243.5 640 c 128
 224.5 624 215 601.333333333 215 572 c 0
 215 558.666666667 217.666666667 545.333333333 223 532 c 128
 228.333333333 518.666666667 237.666666667 503.5 251 486.5 c 128
 264.333333333 469.5 283 448.333333333 307 423 c 2
 705 0 l 1
 603 0 l 1
300 -10 m 0
 249.333333333 -10 204.833333333 -1.16666666667 166.5 16.5 c 128
 128.166666667 34.1666666667 98.5 59.1666666667 77.5 91.5 c 128
 56.5 123.833333333 46 161.666666667 46 205 c 0
 46 257.666666667 64.1666666667 304 100.5 344 c 128
 136.833333333 384 186.333333333 412 249 428 c 1
 292 378 l 1
 255.333333333 369.333333333 224.833333333 357.166666667 200.5 341.5 c 128
 176.166666667 325.833333333 157.666666667 307.333333333 145 286 c 128
 132.333333333 264.666666667 126 240 126 212 c 0
 126 163.333333333 142 125.666666667 174 99 c 128
 206 72.3333333333 249 59 303 59 c 0
 343.666666667 59 379.5 66 410.5 80 c 128
 441.5 94 468.166666667 115 490.5 143 c 128
 512.833333333 171 529.666666667 205.5 541 246.5 c 128
 552.333333333 287.5 558 334.666666667 558 388 c 1
 636 388 l 1
 636 337.333333333 630.666666667 291 620 249 c 128
 609.333333333 207 594 169.833333333 574 137.5 c 128
 554 105.166666667 530 78.1666666667 502 56.5 c 128
 474 34.8333333333 443 18.3333333333 409 7 c 128
 375 -4.33333333333 338.666666667 -10 300 -10 c 0
EndSplineSet
Validated: 5
Substitution2: "'calt' Contextual Alternates in Latin lookup 32 subtable" ampersand.ss11
Substitution2: "'aalt' Access All Alternates in Latin lookup 0 subtable" ampersand.ss11
EndChar

StartChar: paragraph
Encoding: 182 182 421
Width: 685
Flags: HW
LayerCount: 2
Fore
SplineSet
345 -130 m 1
 345 326 l 1
 236 326 l 2
 198 326 164.166666667 334.166666667 134.5 350.5 c 128
 104.833333333 366.833333333 81.6666666667 389.666666667 65 419 c 128
 48.3333333333 448.333333333 40 482 40 520 c 0
 40 559.333333333 48.3333333333 594 65 624 c 128
 81.6666666667 654 105 677.5 135 694.5 c 128
 165 711.5 199.666666667 720 239 720 c 2
 601 720 l 1
 601 -130 l 1
 535 -130 l 1
 535 657 l 1
 410 657 l 1
 410 -130 l 1
 345 -130 l 1
EndSplineSet
Validated: 1
EndChar

StartChar: section
Encoding: 167 167 422
Width: 478
Flags: HW
LayerCount: 2
Fore
SplineSet
253 178 m 1
 255 233 l 1
 288.333333333 233 314.5 240.5 333.5 255.5 c 128
 352.5 270.5 362 290.333333333 362 315 c 0
 362 336.333333333 355.833333333 354.166666667 343.5 368.5 c 128
 331.166666667 382.833333333 310 394.333333333 280 403 c 2
 186 431 l 2
 149.333333333 441.666666667 120.666666667 460 100 486 c 128
 79.3333333333 512 69 544.666666667 69 584 c 0
 69 626.666666667 84.6666666667 661.666666667 116 689 c 128
 147.333333333 716.333333333 190 730 244 730 c 0
 297.333333333 730 340.5 716.833333333 373.5 690.5 c 128
 406.5 664.166666667 425 627 429 579 c 1
 354 579 l 1
 350 607 338.333333333 628.333333333 319 643 c 128
 299.666666667 657.666666667 273.666666667 665 241 665 c 0
 210.333333333 665 186.333333333 658 169 644 c 128
 151.666666667 630 143 611.666666667 143 589 c 0
 143 567.666666667 149.333333333 549.666666667 162 535 c 128
 174.666666667 520.333333333 195.666666667 508 225 498 c 2
 302 474 l 2
 346 460.666666667 379.5 440.833333333 402.5 414.5 c 128
 425.5 388.166666667 437 354.666666667 437 314 c 0
 437 270.666666667 420.666666667 237.166666667 388 213.5 c 128
 355.333333333 189.833333333 310.333333333 178 253 178 c 1
234 -70 m 256
 180.666666667 -70 137.666666667 -56.6666666667 105 -30 c 128
 72.3333333333 -3.33333333333 53.3333333333 33.6666666667 48 81 c 1
 124 81 l 1
 128 53 139.666666667 31.6666666667 159 17 c 128
 178.333333333 2.33333333333 204.333333333 -5 237 -5 c 0
 268.333333333 -5 292.333333333 2 309 16 c 128
 325.666666667 30 334 48.3333333333 334 71 c 0
 334 93 328 111.333333333 316 126 c 128
 304 140.666666667 283 152.666666667 253 162 c 2
 176 186 l 2
 131.333333333 200 97.6666666667 220.166666667 75 246.5 c 128
 52.3333333333 272.833333333 41 306 41 346 c 0
 41 390 57.3333333333 423.833333333 90 447.5 c 128
 122.666666667 471.166666667 167.666666667 483 225 483 c 1
 223 428 l 1
 189.666666667 428 163.5 420.5 144.5 405.5 c 128
 125.5 390.5 116 370.666666667 116 346 c 0
 116 324 122.166666667 305.833333333 134.5 291.5 c 128
 146.833333333 277.166666667 168 265.666666667 198 257 c 2
 292 229 l 2
 328.666666667 218.333333333 357.333333333 200 378 174 c 128
 398.666666667 148 409 115.666666667 409 77 c 0
 409 33.6666666667 393.166666667 -1.66666666667 361.5 -29 c 128
 329.833333333 -56.3333333333 287.333333333 -70 234 -70 c 256
EndSplineSet
Validated: 5
EndChar

StartChar: copyright
Encoding: 169 169 423
Width: 848
Flags: HW
LayerCount: 2
Fore
SplineSet
424 -15 m 256
 372 -15 323.333333333 -5.33333333333 278 14 c 128
 232.666666667 33.3333333333 192.833333333 60.1666666667 158.5 94.5 c 128
 124.166666667 128.833333333 97.3333333333 168.666666667 78 214 c 128
 58.6666666667 259.333333333 49 308 49 360 c 256
 49 412 58.6666666667 460.666666667 78 506 c 128
 97.3333333333 551.333333333 124.166666667 591.166666667 158.5 625.5 c 128
 192.833333333 659.833333333 232.666666667 686.666666667 278 706 c 128
 323.333333333 725.333333333 372 735 424 735 c 256
 476 735 524.666666667 725.333333333 570 706 c 128
 615.333333333 686.666666667 655.166666667 659.833333333 689.5 625.5 c 128
 723.833333333 591.166666667 750.666666667 551.333333333 770 506 c 128
 789.333333333 460.666666667 799 412 799 360 c 256
 799 308 789.333333333 259.333333333 770 214 c 128
 750.666666667 168.666666667 723.833333333 128.833333333 689.5 94.5 c 128
 655.166666667 60.1666666667 615.333333333 33.3333333333 570 14 c 128
 524.666666667 -5.33333333333 476 -15 424 -15 c 256
424 23 m 256
 470 23 513.333333333 31.8333333333 554 49.5 c 128
 594.666666667 67.1666666667 630.333333333 91.5 661 122.5 c 128
 691.666666667 153.5 715.666666667 189.333333333 733 230 c 128
 750.333333333 270.666666667 759 314 759 360 c 256
 759 406 750.333333333 449.333333333 733 490 c 128
 715.666666667 530.666666667 691.666666667 566.5 661 597.5 c 128
 630.333333333 628.5 594.666666667 652.833333333 554 670.5 c 128
 513.333333333 688.166666667 470 697 424 697 c 256
 378 697 334.666666667 688.166666667 294 670.5 c 128
 253.333333333 652.833333333 217.666666667 628.5 187 597.5 c 128
 156.333333333 566.5 132.333333333 530.666666667 115 490 c 128
 97.6666666667 449.333333333 89 406 89 360 c 256
 89 314 97.6666666667 270.666666667 115 230 c 128
 132.333333333 189.333333333 156.333333333 153.5 187 122.5 c 128
 217.666666667 91.5 253.333333333 67.1666666667 294 49.5 c 128
 334.666666667 31.8333333333 378 23 424 23 c 256
426 140 m 0
 386.666666667 140 351.666666667 149.5 321 168.5 c 128
 290.333333333 187.5 266.333333333 213.5 249 246.5 c 128
 231.666666667 279.5 223 317.333333333 223 360 c 256
 223 402.666666667 231.666666667 440.5 249 473.5 c 128
 266.333333333 506.5 290.333333333 532.5 321 551.5 c 128
 351.666666667 570.5 386.333333333 580 425 580 c 0
 473 580 513.5 565.5 546.5 536.5 c 128
 579.5 507.5 599.333333333 469.333333333 606 422 c 1
 557 422 l 1
 552.333333333 457.333333333 538.333333333 485.166666667 515 505.5 c 128
 491.666666667 525.833333333 462 536 426 536 c 0
 380 536 343 519.666666667 315 487 c 128
 287 454.333333333 273 412 273 360 c 0
 273 307.333333333 287 264.833333333 315 232.5 c 128
 343 200.166666667 379.666666667 184 425 184 c 0
 462.333333333 184 492.666666667 194.333333333 516 215 c 128
 539.333333333 235.666666667 553.333333333 263.333333333 558 298 c 1
 607 298 l 1
 600.333333333 250 580.666666667 211.666666667 548 183 c 128
 515.333333333 154.333333333 474.666666667 140 426 140 c 0
EndSplineSet
Validated: 1
EndChar

StartChar: registered
Encoding: 174 174 424
Width: 848
Flags: HW
LayerCount: 2
Fore
SplineSet
424 -15 m 256
 372 -15 323.333333333 -5.33333333333 278 14 c 128
 232.666666667 33.3333333333 192.833333333 60.1666666667 158.5 94.5 c 128
 124.166666667 128.833333333 97.3333333333 168.666666667 78 214 c 128
 58.6666666667 259.333333333 49 308 49 360 c 256
 49 412 58.6666666667 460.666666667 78 506 c 128
 97.3333333333 551.333333333 124.166666667 591.166666667 158.5 625.5 c 128
 192.833333333 659.833333333 232.666666667 686.666666667 278 706 c 128
 323.333333333 725.333333333 372 735 424 735 c 256
 476 735 524.666666667 725.333333333 570 706 c 128
 615.333333333 686.666666667 655.166666667 659.833333333 689.5 625.5 c 128
 723.833333333 591.166666667 750.666666667 551.333333333 770 506 c 128
 789.333333333 460.666666667 799 412 799 360 c 256
 799 308 789.333333333 259.333333333 770 214 c 128
 750.666666667 168.666666667 723.833333333 128.833333333 689.5 94.5 c 128
 655.166666667 60.1666666667 615.333333333 33.3333333333 570 14 c 128
 524.666666667 -5.33333333333 476 -15 424 -15 c 256
424 23 m 256
 470 23 513.333333333 31.8333333333 554 49.5 c 128
 594.666666667 67.1666666667 630.333333333 91.5 661 122.5 c 128
 691.666666667 153.5 715.666666667 189.333333333 733 230 c 128
 750.333333333 270.666666667 759 314 759 360 c 256
 759 406 750.333333333 449.333333333 733 490 c 128
 715.666666667 530.666666667 691.666666667 566.5 661 597.5 c 128
 630.333333333 628.5 594.666666667 652.833333333 554 670.5 c 128
 513.333333333 688.166666667 470 697 424 697 c 256
 378 697 334.666666667 688.166666667 294 670.5 c 128
 253.333333333 652.833333333 217.666666667 628.5 187 597.5 c 128
 156.333333333 566.5 132.333333333 530.666666667 115 490 c 128
 97.6666666667 449.333333333 89 406 89 360 c 256
 89 314 97.6666666667 270.666666667 115 230 c 128
 132.333333333 189.333333333 156.333333333 153.5 187 122.5 c 128
 217.666666667 91.5 253.333333333 67.1666666667 294 49.5 c 128
 334.666666667 31.8333333333 378 23 424 23 c 256
284 145 m 1
 284 575 l 1
 443 575 l 2
 487.666666667 575 523 564.5 549 543.5 c 128
 575 522.5 588 494 588 458 c 0
 588 399.333333333 549.666666667 361.666666667 473 345 c 1
 479 361 l 1
 510.333333333 362.333333333 535.166666667 354.5 553.5 337.5 c 128
 571.833333333 320.5 581 297 581 267 c 2
 581 196 l 2
 581 188.666666667 581.333333333 180.833333333 582 172.5 c 128
 582.666666667 164.166666667 584 155 586 145 c 1
 536 145 l 1
 534.666666667 151 533.666666667 158.333333333 533 167 c 128
 532.333333333 175.666666667 532 185.333333333 532 196 c 2
 532 257 l 2
 532 283 524.5 302.833333333 509.5 316.5 c 128
 494.5 330.166666667 473.333333333 337 446 337 c 2
 320 337 l 1
 320 377 l 1
 441 377 l 2
 472.333333333 377 496.5 384 513.5 398 c 128
 530.5 412 539 431.333333333 539 456 c 256
 539 480.666666667 530.5 499.5 513.5 512.5 c 128
 496.5 525.5 472.333333333 532 441 532 c 2
 333 532 l 1
 333 145 l 1
 284 145 l 1
EndSplineSet
Validated: 37
EndChar

StartChar: trademark
Encoding: 8482 8482 425
Width: 820
Flags: HW
LayerCount: 2
Fore
SplineSet
172 360 m 1
 172 707 l 1
 236 707 l 1
 236 360 l 1
 172 360 l 1
59 665 m 1
 59 720 l 1
 350 720 l 1
 350 665 l 1
 59 665 l 1
387 360 m 1
 387 720 l 1
 483 720 l 1
 592 374 l 1
 555 374 l 1
 664 720 l 1
 761 720 l 1
 761 360 l 1
 697 360 l 1
 697 696 l 1
 708 696 l 1
 606 360 l 1
 539 360 l 1
 437 693 l 1
 447 693 l 1
 447 360 l 1
 387 360 l 1
EndSplineSet
Validated: 5
EndChar

StartChar: degree
Encoding: 176 176 426
Width: 386
Flags: HW
LayerCount: 2
Fore
SplineSet
194 449 m 0
 167.333333333 449 143 455.5 121 468.5 c 128
 99 481.5 81.6666666667 499 69 521 c 128
 56.3333333333 543 50 567 50 593 c 256
 50 619 56.3333333333 642.833333333 69 664.5 c 128
 81.6666666667 686.166666667 99 703.333333333 121 716 c 128
 143 728.666666667 167.333333333 735 194 735 c 0
 221.333333333 735 245.666666667 728.666666667 267 716 c 128
 288.333333333 703.333333333 305.166666667 686.166666667 317.5 664.5 c 128
 329.833333333 642.833333333 336 619 336 593 c 256
 336 567 329.833333333 543 317.5 521 c 128
 305.166666667 499 288.333333333 481.5 267 468.5 c 128
 245.666666667 455.5 221.333333333 449 194 449 c 0
194 498 m 0
 220 498 241.833333333 507.166666667 259.5 525.5 c 128
 277.166666667 543.833333333 286 566.333333333 286 593 c 0
 286 619 277.166666667 641 259.5 659 c 128
 241.833333333 677 220 686 194 686 c 0
 166.666666667 686 144.166666667 677 126.5 659 c 128
 108.833333333 641 100 619 100 593 c 0
 100 566.333333333 108.833333333 543.833333333 126.5 525.5 c 128
 144.166666667 507.166666667 166.666666667 498 194 498 c 0
EndSplineSet
Validated: 1
EndChar

StartChar: bar
Encoding: 124 124 427
Width: 237
Flags: HW
LayerCount: 2
Fore
SplineSet
84 -130 m 1
 84 790 l 1
 153 790 l 1
 153 -130 l 1
 84 -130 l 1
EndSplineSet
Validated: 1
EndChar

StartChar: ampersand.ss11
Encoding: 38 38 428
Width: 709
Flags: HW
LayerCount: 2
Fore
SplineSet
255 0 m 2
 211.666666667 0 173.833333333 8 141.5 24 c 128
 109.166666667 40 83.8333333333 62.5 65.5 91.5 c 128
 47.1666666667 120.5 38 154.333333333 38 193 c 0
 38 231 46.3333333333 264.833333333 63 294.5 c 128
 79.6666666667 324.166666667 102.5 347.5 131.5 364.5 c 128
 160.5 381.5 193.333333333 390 230 390 c 1
 234 369 l 1
 202.666666667 369 174.5 376.5 149.5 391.5 c 128
 124.5 406.5 104.5 427.333333333 89.5 454 c 128
 74.5 480.666666667 67 511 67 545 c 0
 67 599 87.3333333333 643.333333333 128 678 c 128
 168.666666667 712.666666667 230.666666667 730 314 730 c 0
 338 730 362.5 728.5 387.5 725.5 c 128
 412.5 722.5 433 718.333333333 449 713 c 1
 449 647 l 1
 433.666666667 652.333333333 413.5 656.333333333 388.5 659 c 128
 363.5 661.666666667 339.666666667 663 317 663 c 0
 257 663 213.833333333 651.666666667 187.5 629 c 128
 161.166666667 606.333333333 148 575.666666667 148 537 c 0
 148 496.333333333 160.333333333 465 185 443 c 128
 209.666666667 421 244 410 288 410 c 2
 687 410 l 1
 687 345 l 1
 268 345 l 2
 223.333333333 345 187.666666667 331.833333333 161 305.5 c 128
 134.333333333 279.166666667 121 244.333333333 121 201 c 0
 121 159.666666667 133.5 127 158.5 103 c 128
 183.5 79 217.666666667 67 261 67 c 2
 507 67 l 1
 507 0 l 1
 255 0 l 2
466 0 m 1
 466 546 l 5
 547 578 l 5
 547 0 l 1
 466 0 l 1
EndSplineSet
Validated: 5
EndChar

StartChar: cent
Encoding: 162 162 429
Width: 514
GlyphClass: 2
Flags: HW
AnchorPoint: "Anchor-2" 269 0 basechar 0
AnchorPoint: "Anchor-0" 273 510 basechar 0
LayerCount: 2
Fore
SplineSet
238 482 m 1
 238 616 l 1
 302 616 l 1
 302 482 l 1
 238 482 l 1
302 20 m 1
 302 -109 l 1
 238 -109 l 1
 238 20 l 1
 302 20 l 1
272 -10 m 0
 226.666666667 -10 186.666666667 1.33333333333 152 24 c 128
 117.333333333 46.6666666667 90 78.1666666667 70 118.5 c 128
 50 158.833333333 40 205 40 257 c 256
 40 309 50 354.666666667 70 394 c 128
 90 433.333333333 117.5 464.166666667 152.5 486.5 c 128
 187.5 508.833333333 227.333333333 520 272 520 c 0
 308.666666667 520 341.666666667 512.666666667 371 498 c 128
 400.333333333 483.333333333 424.333333333 462.333333333 443 435 c 128
 461.666666667 407.666666667 473.333333333 375.666666667 478 339 c 1
 405 339 l 1
 399 373 384.666666667 400.5 362 421.5 c 128
 339.333333333 442.5 309.666666667 453 273 453 c 0
 241.666666667 453 214.666666667 445 192 429 c 128
 169.333333333 413 151.666666667 390.333333333 139 361 c 128
 126.333333333 331.666666667 120 297 120 257 c 256
 120 217 126.333333333 182 139 152 c 128
 151.666666667 122 169.5 98.6666666667 192.5 82 c 128
 215.5 65.3333333333 242.666666667 57 274 57 c 0
 309.333333333 57 338.666666667 67.5 362 88.5 c 128
 385.333333333 109.5 400 136.666666667 406 170 c 1
 479 170 l 1
 473.666666667 134.666666667 461.333333333 103.333333333 442 76 c 128
 422.666666667 48.6666666667 398.5 27.5 369.5 12.5 c 128
 340.5 -2.5 308 -10 272 -10 c 0
EndSplineSet
Validated: 5
Substitution2: "'ss12' Style Set 12 in Latin lookup 33 subtable" cent.ss12
Substitution2: "'aalt' Access All Alternates in Latin lookup 0 subtable" cent.ss12
EndChar

StartChar: dollar
Encoding: 36 36 430
Width: 583
GlyphClass: 2
Flags: HW
AnchorPoint: "Anchor-2" 301 0 basechar 0
AnchorPoint: "Anchor-0" 301 720 basechar 0
LayerCount: 2
Fore
SplineSet
266 696 m 1
 266 830 l 1
 331 830 l 1
 331 696 l 1
 266 696 l 1
331 20 m 1
 331 -109 l 1
 266 -109 l 1
 266 20 l 1
 331 20 l 1
316 -9 m 4
 138.666666667 -9 47 70.6666666667 41 230 c 1
 119 230 l 1
 121.666666667 118 187.333333333 62 316 62 c 0
 380.734428582 62 465 78.5358181288 465 177 c 0
 465 209 456.333333333 234.833333333 439 254.5 c 128
 421.666666667 274.166666667 395 291 359 305 c 2
 241 351 l 2
 183.666666667 373 141 399.333333333 113 430 c 128
 85 460.666666667 71 498.666666667 71 544 c 0
 71 665.511329163 171.611969285 731 296 731 c 0
 452 731 531.333333333 658.666666667 534 514 c 1
 456 514 l 1
 452.666666667 611.333333333 398.666666667 660 294 660 c 0
 250.505446304 660 150 649.3589477 150 551 c 0
 150 521.666666667 158.833333333 497.666666667 176.5 479 c 128
 194.166666667 460.333333333 222 444 260 430 c 2
 384 381 l 2
 437.333333333 361 477.166666667 334.333333333 503.5 301 c 128
 529.833333333 267.666666667 543 226.666666667 543 178 c 0
 543 115.731370705 517.812070658 -9 316 -9 c 4
EndSplineSet
Substitution2: "'ss12' Style Set 12 in Latin lookup 33 subtable" dollar.ss12
Substitution2: "'aalt' Access All Alternates in Latin lookup 0 subtable" dollar.ss12
EndChar

StartChar: Euro
Encoding: 8364 8364 431
Width: 672
Flags: HW
LayerCount: 2
Fore
SplineSet
385 -10 m 0
 341.666666667 -10 302 -1 266 17 c 128
 230 35 198.666666667 60.5 172 93.5 c 128
 145.333333333 126.5 124.5 165.5 109.5 210.5 c 128
 94.5 255.5 87 305.333333333 87 360 c 256
 87 414.666666667 94.5 464.5 109.5 509.5 c 128
 124.5 554.5 145.166666667 593.5 171.5 626.5 c 128
 197.833333333 659.5 228.833333333 685 264.5 703 c 128
 300.166666667 721 339.333333333 730 382 730 c 0
 423.333333333 730 460.833333333 722.5 494.5 707.5 c 128
 528.166666667 692.5 556.666666667 671.166666667 580 643.5 c 128
 603.333333333 615.833333333 618.666666667 583 626 545 c 1
 542 545 l 1
 535.333333333 580.333333333 517.666666667 607.833333333 489 627.5 c 128
 460.333333333 647.166666667 425.666666667 657 385 657 c 0
 342.333333333 657 304.666666667 644.666666667 272 620 c 128
 239.333333333 595.333333333 214.166666667 560.833333333 196.5 516.5 c 128
 178.833333333 472.166666667 170 420 170 360 c 0
 170 300.666666667 179 248.666666667 197 204 c 128
 215 159.333333333 240.166666667 124.666666667 272.5 100 c 128
 304.833333333 75.3333333333 342 63 384 63 c 0
 425.333333333 63 460.5 72.8333333333 489.5 92.5 c 128
 518.5 112.166666667 536.333333333 139.666666667 543 175 c 1
 628 175 l 1
 620 136.333333333 604.666666667 103.333333333 582 76 c 128
 559.333333333 48.6666666667 531 27.5 497 12.5 c 128
 463 -2.5 425.666666667 -10 385 -10 c 0
0 401 m 1
 14 468 l 1
 483 468 l 1
 470 401 l 1
 0 401 l 1
0 255 m 1
 14 321 l 1
 457 321 l 1
 443 255 l 1
 0 255 l 1
EndSplineSet
Validated: 5
EndChar

StartChar: sterling
Encoding: 163 163 432
Width: 566
Flags: HW
LayerCount: 2
Fore
SplineSet
53 0 m 1
 53 71 l 1
 83 118.333333333 103.833333333 158.666666667 115.5 192 c 128
 127.166666667 225.333333333 133 254.333333333 133 279 c 0
 133 303 129.333333333 324.5 122 343.5 c 128
 114.666666667 362.5 106 381 96 399 c 128
 86 417 77.3333333333 436.5 70 457.5 c 128
 62.6666666667 478.5 59 503.666666667 59 533 c 0
 59 571.666666667 67.5 606 84.5 636 c 128
 101.5 666 126.666666667 689.166666667 160 705.5 c 128
 193.333333333 721.833333333 234 730 282 730 c 0
 329.333333333 730 370 721.666666667 404 705 c 128
 438 688.333333333 464.666666667 665 484 635 c 128
 503.333333333 605 514.666666667 570.333333333 518 531 c 1
 439 531 l 1
 433.666666667 573.666666667 417.333333333 605.666666667 390 627 c 128
 362.666666667 648.333333333 327.666666667 659 285 659 c 0
 237 659 200.5 647.166666667 175.5 623.5 c 128
 150.5 599.833333333 138 568.333333333 138 529 c 0
 138 506.333333333 141.5 485.5 148.5 466.5 c 128
 155.5 447.5 163.666666667 428.833333333 173 410.5 c 128
 182.333333333 392.166666667 190.5 372.833333333 197.5 352.5 c 128
 204.5 332.166666667 208 309.333333333 208 284 c 0
 208 254 200.5 219 185.5 179 c 128
 170.5 139 142.666666667 91.3333333333 102 36 c 1
 99 71 l 1
 498 71 l 1
 498 0 l 1
 53 0 l 1
20 310 m 1
 20 376 l 1
 426 376 l 1
 426 310 l 1
 20 310 l 1
EndSplineSet
Validated: 5
EndChar

StartChar: yen
Encoding: 165 165 433
Width: 591
Flags: HW
LayerCount: 2
Fore
SplineSet
255 0 m 1
 255 327 l 1
 23 720 l 1
 120 720 l 1
 318 375 l 1
 281 375 l 1
 479 720 l 1
 568 720 l 1
 336 327 l 1
 336 0 l 1
 255 0 l 1
49 255 m 1
 49 321 l 1
 542 321 l 1
 542 255 l 1
 49 255 l 1
251 401 m 1
 49 401 l 1
 49 468 l 1
 216 468 l 1
 251 401 l 1
389 468 m 1
 542 468 l 1
 542 401 l 1
 348 401 l 1
 389 468 l 1
EndSplineSet
Validated: 5
EndChar

StartChar: cent.ss12
Encoding: 65676 -1 434
Width: 514
Flags: HW
LayerCount: 2
Fore
SplineSet
272 -10 m 0
 226.666666667 -10 186.666666667 1.33333333333 152 24 c 128
 117.333333333 46.6666666667 90 78.1666666667 70 118.5 c 128
 50 158.833333333 40 205 40 257 c 256
 40 309 50 354.666666667 70 394 c 128
 90 433.333333333 117.5 464.166666667 152.5 486.5 c 128
 187.5 508.833333333 227.333333333 520 272 520 c 0
 308.666666667 520 341.666666667 512.666666667 371 498 c 128
 400.333333333 483.333333333 424.333333333 462.333333333 443 435 c 128
 461.666666667 407.666666667 473.333333333 375.666666667 478 339 c 1
 406 339 l 1
 400 373.666666667 385.666666667 401.5 363 422.5 c 128
 340.333333333 443.5 310.333333333 454 273 454 c 0
 226.333333333 454 189 436.333333333 161 401 c 128
 133 365.666666667 119 317.666666667 119 257 c 0
 119 197 133 148.5 161 111.5 c 128
 189 74.5 226.666666667 56 274 56 c 0
 309.333333333 56 338.833333333 66.5 362.5 87.5 c 128
 386.166666667 108.5 401 136 407 170 c 1
 479 170 l 1
 473.666666667 134.666666667 461.333333333 103.333333333 442 76 c 128
 422.666666667 48.6666666667 398.5 27.5 369.5 12.5 c 128
 340.5 -2.5 308 -10 272 -10 c 0
238 -109 m 1
 238 14 l 1
 238 35 l 1
 238 474 l 1
 238 497 l 1
 238 616 l 1
 302 616 l 1
 302 494 l 1
 301 473 l 1
 301 35 l 1
 302 18 l 1
 302 -109 l 1
 238 -109 l 1
EndSplineSet
Validated: 5
EndChar

StartChar: dollar.ss12
Encoding: 65677 -1 435
Width: 583
Flags: HW
LayerCount: 2
Fore
SplineSet
316 -9 m 0
 234.666666667 -9 170.333333333 11.6666666667 123 53 c 128
 75.6666666667 94.3333333333 48 153.333333333 40 230 c 1
 118 230 l 1
 124.666666667 174.666666667 144.5 132.666666667 177.5 104 c 128
 210.5 75.3333333333 256.333333333 61 315 61 c 0
 365 61 402.5 70.8333333333 427.5 90.5 c 128
 452.5 110.166666667 465 139 465 177 c 0
 465 209 456.333333333 234.833333333 439 254.5 c 128
 421.666666667 274.166666667 394.666666667 291 358 305 c 2
 240 351 l 2
 182.666666667 373 140.166666667 399.333333333 112.5 430 c 128
 84.8333333333 460.666666667 71 498.666666667 71 544 c 0
 71 582 80.3333333333 614.833333333 99 642.5 c 128
 117.666666667 670.166666667 143.833333333 691.833333333 177.5 707.5 c 128
 211.166666667 723.166666667 250.666666667 731 296 731 c 0
 365.333333333 731 420.833333333 712.166666667 462.5 674.5 c 128
 504.166666667 636.833333333 527.666666667 583.333333333 533 514 c 1
 456 514 l 1
 448 564.666666667 431.166666667 601.833333333 405.5 625.5 c 128
 379.833333333 649.166666667 342.666666667 661 294 661 c 0
 248 661 212.333333333 651.5 187 632.5 c 128
 161.666666667 613.5 149 586.333333333 149 551 c 0
 149 521.666666667 158 497.666666667 176 479 c 128
 194 460.333333333 221.666666667 444 259 430 c 2
 384 381 l 2
 436.666666667 361 476.333333333 334.333333333 503 301 c 128
 529.666666667 267.666666667 543 226.666666667 543 178 c 0
 543 118.666666667 523.166666667 72.6666666667 483.5 40 c 128
 443.833333333 7.33333333333 388 -9 316 -9 c 0
267 -109 m 1
 267 14 l 1
 268 35 l 1
 268 688 l 1
 267 711 l 1
 267 830 l 1
 331 830 l 1
 331 708 l 1
 331 687 l 1
 331 35 l 1
 331 18 l 1
 331 -109 l 1
 267 -109 l 1
EndSplineSet
Validated: 5
EndChar

StartChar: plus
Encoding: 43 43 436
Width: 531
Flags: HW
LayerCount: 2
Fore
SplineSet
232 153 m 1
 232 590 l 1
 300 590 l 1
 300 153 l 1
 232 153 l 1
60 338 m 1
 60 404 l 1
 471 404 l 1
 471 338 l 1
 60 338 l 1
EndSplineSet
Validated: 5
Substitution2: "'tnum' Tabular Numbers in Latin lookup 19 subtable" plus.tf
Substitution2: "'aalt' Access All Alternates in Latin lookup 0 subtable" plus.tf
EndChar

StartChar: minus
Encoding: 8722 8722 437
Width: 531
Flags: HW
LayerCount: 2
Fore
SplineSet
60 338 m 1
 60 404 l 1
 471 404 l 1
 471 338 l 1
 60 338 l 1
EndSplineSet
Validated: 1
Substitution2: "'tnum' Tabular Numbers in Latin lookup 19 subtable" minus.tf
Substitution2: "'aalt' Access All Alternates in Latin lookup 0 subtable" minus.tf
EndChar

StartChar: multiply
Encoding: 215 215 438
Width: 531
Flags: HW
LayerCount: 2
Fore
SplineSet
416 174 m 1
 68 522 l 1
 115 569 l 1
 463 221 l 1
 416 174 l 1
115 174 m 1
 68 221 l 1
 416 569 l 1
 463 522 l 1
 115 174 l 1
EndSplineSet
Validated: 5
Substitution2: "'tnum' Tabular Numbers in Latin lookup 19 subtable" multiply.tf
Substitution2: "'aalt' Access All Alternates in Latin lookup 0 subtable" multiply.tf
EndChar

StartChar: divide
Encoding: 247 247 439
Width: 531
Flags: HW
LayerCount: 2
Fore
SplineSet
60 338 m 1
 60 404 l 1
 471 404 l 1
 471 338 l 1
 60 338 l 1
266 481 m 0
 249.333333333 481 235.666666667 486.166666667 225 496.5 c 128
 214.333333333 506.833333333 209 520.666666667 209 538 c 0
 209 554.666666667 214.333333333 568.166666667 225 578.5 c 128
 235.666666667 588.833333333 249.333333333 594 266 594 c 0
 281.333333333 594 294.5 588.833333333 305.5 578.5 c 128
 316.5 568.166666667 322 554.666666667 322 538 c 0
 322 520.666666667 316.5 506.833333333 305.5 496.5 c 128
 294.5 486.166666667 281.333333333 481 266 481 c 0
266 148 m 0
 249.333333333 148 235.666666667 153.166666667 225 163.5 c 128
 214.333333333 173.833333333 209 187.666666667 209 205 c 0
 209 221.666666667 214.333333333 235.333333333 225 246 c 128
 235.666666667 256.666666667 249.333333333 262 266 262 c 0
 281.333333333 262 294.5 256.666666667 305.5 246 c 128
 316.5 235.333333333 322 221.666666667 322 205 c 0
 322 187.666666667 316.5 173.833333333 305.5 163.5 c 128
 294.5 153.166666667 281.333333333 148 266 148 c 0
EndSplineSet
Validated: 1
Substitution2: "'tnum' Tabular Numbers in Latin lookup 19 subtable" divide.tf
Substitution2: "'aalt' Access All Alternates in Latin lookup 0 subtable" divide.tf
EndChar

StartChar: equal
Encoding: 61 61 440
Width: 531
Flags: HW
LayerCount: 2
Fore
SplineSet
60 438 m 1
 60 504 l 1
 471 504 l 1
 471 438 l 1
 60 438 l 1
60 238 m 1
 60 304 l 1
 471 304 l 1
 471 238 l 1
 60 238 l 1
EndSplineSet
Validated: 1
Substitution2: "'tnum' Tabular Numbers in Latin lookup 19 subtable" equal.tf
Substitution2: "'aalt' Access All Alternates in Latin lookup 0 subtable" equal.tf
EndChar

StartChar: greater
Encoding: 62 62 441
Width: 531
Flags: HW
LayerCount: 2
Fore
SplineSet
60 173 m 1
 60 244 l 1
 423 383 l 1
 423 358 l 1
 60 488 l 1
 60 559 l 1
 471 409 l 1
 471 333 l 1
 60 173 l 1
EndSplineSet
Validated: 5
Substitution2: "'tnum' Tabular Numbers in Latin lookup 19 subtable" greater.tf
Substitution2: "'aalt' Access All Alternates in Latin lookup 0 subtable" greater.tf
EndChar

StartChar: less
Encoding: 60 60 442
Width: 531
Flags: HW
LayerCount: 2
Fore
SplineSet
471 569 m 1
 471 498 l 1
 108 359 l 1
 108 384 l 1
 471 254 l 1
 471 183 l 1
 60 333 l 1
 60 409 l 1
 471 569 l 1
EndSplineSet
Validated: 5
Substitution2: "'tnum' Tabular Numbers in Latin lookup 19 subtable" less.tf
Substitution2: "'aalt' Access All Alternates in Latin lookup 0 subtable" less.tf
EndChar

StartChar: asciitilde
Encoding: 126 126 443
Width: 531
Flags: HW
LayerCount: 2
Fore
SplineSet
379 297 m 0
 403.666666667 297 424.5 301.166666667 441.5 309.5 c 128
 458.5 317.833333333 472.333333333 330.333333333 483 347 c 128
 493.666666667 363.666666667 500.666666667 384 504 408 c 1
 450 408 l 1
 446.666666667 390.666666667 439.5 377.833333333 428.5 369.5 c 128
 417.5 361.166666667 403.666666667 357 387 357 c 0
 369.666666667 357 352 360 334 366 c 128
 316 372 297.5 379.166666667 278.5 387.5 c 128
 259.5 395.833333333 239.333333333 403 218 409 c 128
 196.666666667 415 174.333333333 418 151 418 c 0
 127 418 106.5 413.833333333 89.5 405.5 c 128
 72.5 397.166666667 58.8333333333 384.666666667 48.5 368 c 128
 38.1666666667 351.333333333 31 331 27 307 c 1
 82 307 l 1
 85.3333333333 325 92.5 338 103.5 346 c 128
 114.5 354 128 358 144 358 c 0
 162.666666667 358 180.833333333 355 198.5 349 c 128
 216.166666667 343 234.333333333 335.833333333 253 327.5 c 128
 271.666666667 319.166666667 291.333333333 312 312 306 c 128
 332.666666667 300 355 297 379 297 c 0
EndSplineSet
Validated: 9
EndChar

StartChar: asciicircum
Encoding: 94 94 444
Width: 531
Flags: HW
LayerCount: 2
Fore
SplineSet
142 491 m 1
 79 491 l 1
 228 740 l 1
 303 740 l 1
 452 491 l 1
 390 491 l 1
 246 699 l 1
 285 699 l 1
 142 491 l 1
EndSplineSet
Validated: 5
EndChar

StartChar: percent
Encoding: 37 37 445
Width: 765
Flags: HW
LayerCount: 2
Fore
SplineSet
80 0 m 1
 609 720 l 1
 690 720 l 1
 161 0 l 1
 80 0 l 1
571 -10 m 0
 543.666666667 -10 518 -3.33333333333 494 10 c 128
 470 23.3333333333 450.5 43.5 435.5 70.5 c 128
 420.5 97.5 413 132 413 174 c 0
 413 215.333333333 420.333333333 249.5 435 276.5 c 128
 449.666666667 303.5 469 323.666666667 493 337 c 128
 517 350.333333333 543 357 571 357 c 0
 600.333333333 357 627.166666667 350.333333333 651.5 337 c 128
 675.833333333 323.666666667 695.166666667 303.5 709.5 276.5 c 128
 723.833333333 249.5 731 215.333333333 731 174 c 0
 731 132 723.5 97.5 708.5 70.5 c 128
 693.5 43.5 673.833333333 23.3333333333 649.5 10 c 128
 625.166666667 -3.33333333333 599 -10 571 -10 c 0
571 45 m 256
 597.666666667 45 619.5 56.1666666667 636.5 78.5 c 128
 653.5 100.833333333 662 133 662 175 c 0
 662 215.666666667 653.5 247 636.5 269 c 128
 619.5 291 597.666666667 302 571 302 c 256
 544.333333333 302 523 291.166666667 507 269.5 c 128
 491 247.833333333 483 216.333333333 483 175 c 0
 483 132.333333333 491 100 507 78 c 128
 523 56 544.333333333 45 571 45 c 256
193 364 m 256
 165 364 138.833333333 370.5 114.5 383.5 c 128
 90.1666666667 396.5 70.8333333333 416.666666667 56.5 444 c 128
 42.1666666667 471.333333333 35 505.666666667 35 547 c 0
 35 589 42.1666666667 623.333333333 56.5 650 c 128
 70.8333333333 676.666666667 90 696.666666667 114 710 c 128
 138 723.333333333 164.333333333 730 193 730 c 0
 222.333333333 730 249 723.333333333 273 710 c 128
 297 696.666666667 316.166666667 676.666666667 330.5 650 c 128
 344.833333333 623.333333333 352 589 352 547 c 0
 352 505.666666667 344.5 471.333333333 329.5 444 c 128
 314.5 416.666666667 295 396.5 271 383.5 c 128
 247 370.5 221 364 193 364 c 256
193 418 m 0
 219 418 240.5 429.166666667 257.5 451.5 c 128
 274.5 473.833333333 283 506 283 548 c 0
 283 589.333333333 274.666666667 620.833333333 258 642.5 c 128
 241.333333333 664.166666667 219.666666667 675 193 675 c 256
 166.333333333 675 144.666666667 664.333333333 128 643 c 128
 111.333333333 621.666666667 103 590 103 548 c 256
 103 506 111.333333333 473.833333333 128 451.5 c 128
 144.666666667 429.166666667 166.333333333 418 193 418 c 0
EndSplineSet
Validated: 1
Substitution2: "'tnum' Tabular Numbers in Latin lookup 19 subtable" percent.tf
Substitution2: "'aalt' Access All Alternates in Latin lookup 0 subtable" percent.tf
EndChar

StartChar: perthousand
Encoding: 8240 8240 446
Width: 832
Flags: HW
LayerCount: 2
Fore
SplineSet
169 364 m 256
 144.333333333 364 121.333333333 370.5 100 383.5 c 128
 78.6666666667 396.5 61.6666666667 416.666666667 49 444 c 128
 36.3333333333 471.333333333 30 505.666666667 30 547 c 0
 30 589 36.3333333333 623.333333333 49 650 c 128
 61.6666666667 676.666666667 78.5 696.666666667 99.5 710 c 128
 120.5 723.333333333 143.666666667 730 169 730 c 0
 207.666666667 730 240.666666667 715.166666667 268 685.5 c 128
 295.333333333 655.833333333 309 609.666666667 309 547 c 0
 309 505.666666667 302.333333333 471.333333333 289 444 c 128
 275.666666667 416.666666667 258.5 396.5 237.5 383.5 c 128
 216.5 370.5 193.666666667 364 169 364 c 256
169 417 m 0
 191 417 209.166666667 428.166666667 223.5 450.5 c 128
 237.833333333 472.833333333 245 505.333333333 245 548 c 0
 245 589.333333333 238 621 224 643 c 128
 210 665 191.666666667 676 169 676 c 256
 146.333333333 676 128.166666667 665.166666667 114.5 643.5 c 128
 100.833333333 621.833333333 94 590 94 548 c 0
 94 505.333333333 100.833333333 472.833333333 114.5 450.5 c 128
 128.166666667 428.166666667 146.333333333 417 169 417 c 0
64 0 m 1
 517 720 l 1
 593 720 l 1
 141 0 l 1
 64 0 l 1
478 -10 m 0
 456.666666667 -10 435.833333333 -3.33333333333 415.5 10 c 128
 395.166666667 23.3333333333 378.833333333 43.5 366.5 70.5 c 128
 354.166666667 97.5 348 132 348 174 c 0
 348 215.333333333 354.166666667 249.5 366.5 276.5 c 128
 378.833333333 303.5 395 323.666666667 415 337 c 128
 435 350.333333333 456 357 478 357 c 0
 512 357 540.666666667 342 564 312 c 128
 587.333333333 282 599 236 599 174 c 0
 599 111.333333333 587 65 563 35 c 128
 539 5 510.666666667 -10 478 -10 c 0
478 44 m 0
 497.333333333 44 513.333333333 55.1666666667 526 77.5 c 128
 538.666666667 99.8333333333 545 132.333333333 545 175 c 0
 545 216.333333333 538.833333333 248 526.5 270 c 128
 514.166666667 292 498 303 478 303 c 256
 458 303 442 292.166666667 430 270.5 c 128
 418 248.833333333 412 217 412 175 c 0
 412 132.333333333 418 99.8333333333 430 77.5 c 128
 442 55.1666666667 458 44 478 44 c 0
672 44 m 0
 692 44 708 55.1666666667 720 77.5 c 128
 732 99.8333333333 738 132.333333333 738 175 c 0
 738 217 732 248.833333333 720 270.5 c 128
 708 292.166666667 692 303 672 303 c 0
 652.666666667 303 636.666666667 292 624 270 c 128
 611.333333333 248 605 216.333333333 605 175 c 0
 605 132.333333333 611.5 99.8333333333 624.5 77.5 c 128
 637.5 55.1666666667 653.333333333 44 672 44 c 0
672 -10 m 0
 639.333333333 -10 611 5 587 35 c 128
 563 65 551 111.333333333 551 174 c 0
 551 236 562.666666667 282 586 312 c 128
 609.333333333 342 638 357 672 357 c 0
 694 357 715 350.333333333 735 337 c 128
 755 323.666666667 771.166666667 303.5 783.5 276.5 c 128
 795.833333333 249.5 802 215.333333333 802 174 c 0
 802 132 795.833333333 97.5 783.5 70.5 c 128
 771.166666667 43.5 755 23.3333333333 735 10 c 128
 715 -3.33333333333 694 -10 672 -10 c 0
EndSplineSet
Validated: 5
Substitution2: "'tnum' Tabular Numbers in Latin lookup 19 subtable" perthousand.tf
Substitution2: "'aalt' Access All Alternates in Latin lookup 0 subtable" perthousand.tf
EndChar

StartChar: plus.tf
Encoding: 65678 -1 447
Width: 588
Flags: HW
LayerCount: 2
Fore
SplineSet
260 153 m 1
 260 590 l 1
 328 590 l 1
 328 153 l 1
 260 153 l 1
75 338 m 1
 75 404 l 1
 513 404 l 1
 513 338 l 1
 75 338 l 1
EndSplineSet
Validated: 5
Substitution2: "'pnum' Proportional Numbers in Latin lookup 18 subtable" plus
Substitution2: "'aalt' Access All Alternates in Latin lookup 0 subtable" plus
EndChar

StartChar: minus.tf
Encoding: 65679 -1 448
Width: 588
Flags: HW
LayerCount: 2
Fore
SplineSet
75 338 m 1
 75 404 l 1
 513 404 l 1
 513 338 l 1
 75 338 l 1
EndSplineSet
Validated: 1
Substitution2: "'pnum' Proportional Numbers in Latin lookup 18 subtable" minus
Substitution2: "'aalt' Access All Alternates in Latin lookup 0 subtable" minus
EndChar

StartChar: multiply.tf
Encoding: 65680 -1 449
Width: 588
Flags: HW
LayerCount: 2
Fore
SplineSet
463 174 m 1
 78 522 l 1
 124 569 l 1
 509 221 l 1
 463 174 l 1
124 174 m 1
 78 221 l 1
 463 569 l 1
 509 522 l 1
 124 174 l 1
EndSplineSet
Validated: 5
Substitution2: "'pnum' Proportional Numbers in Latin lookup 18 subtable" multiply
Substitution2: "'aalt' Access All Alternates in Latin lookup 0 subtable" multiply
EndChar

StartChar: divide.tf
Encoding: 65681 -1 450
Width: 588
Flags: HW
LayerCount: 2
Fore
SplineSet
75 338 m 1
 75 404 l 1
 513 404 l 1
 513 338 l 1
 75 338 l 1
295 481 m 0
 277.666666667 481 263.333333333 486.166666667 252 496.5 c 128
 240.666666667 506.833333333 235 520.666666667 235 538 c 0
 235 554.666666667 240.666666667 568.166666667 252 578.5 c 128
 263.333333333 588.833333333 277.666666667 594 295 594 c 0
 309.666666667 594 323 588.833333333 335 578.5 c 128
 347 568.166666667 353 554.666666667 353 538 c 0
 353 520.666666667 347 506.833333333 335 496.5 c 128
 323 486.166666667 309.666666667 481 295 481 c 0
295 148 m 0
 277.666666667 148 263.333333333 153.166666667 252 163.5 c 128
 240.666666667 173.833333333 235 187.666666667 235 205 c 0
 235 221.666666667 240.666666667 235.333333333 252 246 c 128
 263.333333333 256.666666667 277.666666667 262 295 262 c 0
 309.666666667 262 323 256.666666667 335 246 c 128
 347 235.333333333 353 221.666666667 353 205 c 0
 353 187.666666667 347 173.833333333 335 163.5 c 128
 323 153.166666667 309.666666667 148 295 148 c 0
EndSplineSet
Validated: 1
Substitution2: "'pnum' Proportional Numbers in Latin lookup 18 subtable" divide
Substitution2: "'aalt' Access All Alternates in Latin lookup 0 subtable" divide
EndChar

StartChar: equal.tf
Encoding: 65682 -1 451
Width: 588
Flags: HW
LayerCount: 2
Fore
SplineSet
75 438 m 1
 75 504 l 1
 513 504 l 1
 513 438 l 1
 75 438 l 1
75 238 m 1
 75 304 l 1
 513 304 l 1
 513 238 l 1
 75 238 l 1
EndSplineSet
Validated: 1
Substitution2: "'pnum' Proportional Numbers in Latin lookup 18 subtable" equal
Substitution2: "'aalt' Access All Alternates in Latin lookup 0 subtable" equal
EndChar

StartChar: greater.tf
Encoding: 65683 -1 452
Width: 588
Flags: HW
LayerCount: 2
Fore
SplineSet
80 173 m 1
 80 244 l 1
 453 383 l 1
 453 358 l 1
 80 488 l 1
 80 559 l 1
 518 409 l 1
 518 333 l 1
 80 173 l 1
EndSplineSet
Validated: 5
Substitution2: "'pnum' Proportional Numbers in Latin lookup 18 subtable" greater
Substitution2: "'aalt' Access All Alternates in Latin lookup 0 subtable" greater
EndChar

StartChar: less.tf
Encoding: 65684 -1 453
Width: 588
Flags: HW
LayerCount: 2
Fore
SplineSet
471 569 m 1
 471 498 l 1
 108 359 l 1
 108 384 l 1
 471 254 l 1
 471 183 l 1
 60 333 l 1
 60 409 l 1
 471 569 l 1
EndSplineSet
Validated: 5
Substitution2: "'pnum' Proportional Numbers in Latin lookup 18 subtable" less
Substitution2: "'aalt' Access All Alternates in Latin lookup 0 subtable" less
EndChar

StartChar: percent.tf
Encoding: 65685 -1 454
Width: 588
Flags: HW
LayerCount: 2
Fore
SplineSet
38 0 m 1
 484 720 l 1
 555 720 l 1
 109 0 l 1
 38 0 l 1
429 -10 m 0
 406.333333333 -10 385 -3.33333333333 365 10 c 128
 345 23.3333333333 328.833333333 43.6666666667 316.5 71 c 128
 304.166666667 98.3333333333 298 132.333333333 298 173 c 256
 298 213.666666667 304.166666667 247.333333333 316.5 274 c 128
 328.833333333 300.666666667 345 320.666666667 365 334 c 128
 385 347.333333333 406.333333333 354 429 354 c 0
 453 354 475.166666667 347.333333333 495.5 334 c 128
 515.833333333 320.666666667 532 300.666666667 544 274 c 128
 556 247.333333333 562 213.666666667 562 173 c 256
 562 132.333333333 555.833333333 98.3333333333 543.5 71 c 128
 531.166666667 43.6666666667 514.833333333 23.3333333333 494.5 10 c 128
 474.166666667 -3.33333333333 452.333333333 -10 429 -10 c 0
429 45 m 256
 445.666666667 45 460.5 55 473.5 75 c 128
 486.5 95 493 128 493 174 c 0
 493 218.666666667 486.666666667 250.666666667 474 270 c 128
 461.333333333 289.333333333 446.333333333 299 429 299 c 0
 412.333333333 299 397.833333333 289.5 385.5 270.5 c 128
 373.166666667 251.5 367 219.333333333 367 174 c 0
 367 128 373.166666667 95 385.5 75 c 128
 397.833333333 55 412.333333333 45 429 45 c 256
157 366 m 256
 134.333333333 366 113 372.666666667 93 386 c 128
 73 399.333333333 56.8333333333 419.666666667 44.5 447 c 128
 32.1666666667 474.333333333 26 508.333333333 26 549 c 256
 26 589.666666667 32.1666666667 623.333333333 44.5 650 c 128
 56.8333333333 676.666666667 73 696.666666667 93 710 c 128
 113 723.333333333 134.333333333 730 157 730 c 0
 180.333333333 730 202.166666667 723.333333333 222.5 710 c 128
 242.833333333 696.666666667 259.166666667 676.666666667 271.5 650 c 128
 283.833333333 623.333333333 290 589.666666667 290 549 c 0
 290 507.666666667 283.666666667 473.5 271 446.5 c 128
 258.333333333 419.5 241.833333333 399.333333333 221.5 386 c 128
 201.166666667 372.666666667 179.666666667 366 157 366 c 256
157 421 m 256
 173.666666667 421 188.5 431 201.5 451 c 128
 214.5 471 221 504 221 550 c 0
 221 594.666666667 214.666666667 626.666666667 202 646 c 128
 189.333333333 665.333333333 174.333333333 675 157 675 c 0
 140.333333333 675 125.666666667 665.5 113 646.5 c 128
 100.333333333 627.5 94 595.333333333 94 550 c 0
 94 504 100.333333333 471 113 451 c 128
 125.666666667 431 140.333333333 421 157 421 c 256
EndSplineSet
Validated: 1
Substitution2: "'pnum' Proportional Numbers in Latin lookup 18 subtable" percent
Substitution2: "'aalt' Access All Alternates in Latin lookup 0 subtable" percent
EndChar

